SplineFontDB: 3.0
FontName: Umpush-LightOblique
FullName: Umpush Light Oblique
FamilyName: Umpush
Weight: Light
Copyright: Copyright (c) 2003 NECTEC. All rights reserved.\nCopyright (c) 2007 Widhaya Trisarnwadhana. All rights reserved.\nModified under GNU General Public License by TLWG.
Version: 0.9.18: 2014-03-15
ItalicAngle: -10
UnderlinePosition: -85
UnderlineWidth: 10
Ascent: 1638
Descent: 410
LayerCount: 2
Layer: 0 0 "Back"  1
Layer: 1 0 "Fore"  0
FSType: 0
OS2Version: 0
OS2_WeightWidthSlopeOnly: 0
OS2_UseTypoMetrics: 0
CreationTime: 1176605901
ModificationTime: 1394862765
PfmFamily: 33
TTFWeight: 300
TTFWidth: 5
LineGap: 0
VLineGap: 0
Panose: 2 11 3 4 2 2 2 2 2 4
OS2TypoAscent: 0
OS2TypoAOffset: 1
OS2TypoDescent: 0
OS2TypoDOffset: 1
OS2TypoLinegap: 0
OS2WinAscent: 0
OS2WinAOffset: 1
OS2WinDescent: 0
OS2WinDOffset: 1
HheadAscent: 0
HheadAOffset: 1
HheadDescent: 0
HheadDOffset: 1
OS2Vendor: 'PfEd'
Lookup: 4 0 1 "'liga' Standard Ligatures lookup 0"  {"'liga' Standard Ligatures lookup 0"  } ['liga' ('latn' <'dflt' > ) ]
Lookup: 6 0 0 "'ccmp' Thai Conditional Descender Removal"  {"'ccmp' Thai Conditional Descender Removal"  } ['ccmp' ('DFLT' <'dflt' > 'thai' <'KUY ' 'THA ' 'dflt' > ) ]
Lookup: 1 0 0 "'ccmp' Pali-Sanskrit Descender Removal"  {"'ccmp' Pali-Sanskrit Descender Removal" ("descless" ) } ['ccmp' ('thai' <'PAL ' 'SAN ' > ) ]
Lookup: 6 0 0 "'ccmp' Thai General Composition"  {"'ccmp' Thai Below Vowel Tone Reordering"  "'ccmp' Thai General Composition"  } ['ccmp' ('DFLT' <'dflt' > 'thai' <'KUY ' 'PAL ' 'SAN ' 'THA ' 'dflt' > ) ]
Lookup: 1 0 0 "Thai Descender Removal Single Substitution"  {"Thai Descender Removal Single Substitution" ("descless" ) } []
Lookup: 2 0 0 "Thai Sara Am Decomposition"  {"Thai Sara Am Decomposition"  } []
Lookup: 2 0 0 "Thai Tone Nikhahit Attachment"  {"Thai Tone Nikhahit Attachment"  } []
Lookup: 1 0 0 "Thai Sara Am Lakkhang"  {"Thai Sara Am Lakkhang"  } []

StartChar: .notdef
Encoding: 65536 -1 0
Width: 1533
VWidth: 2045
Flags: W
HStem: 0 32<293 1253> 1248 32<507 1467>
DStem2: 256 0 287.358 0 0.173648 0.984808<37.9388 1272.63> 1247.36 0 1278 0 0.173648 0.984808<32.4937 1267.18>
LayerCount: 2
Fore
SplineSet
256 0 m 1
 482 1280 l 1
 1504 1280 l 1
 1278 0 l 1
 256 0 l 1
293 32 m 1
 1253 32 l 1
 1467 1248 l 1
 507 1248 l 1
 293 32 l 1
EndSplineSet
EndChar

StartChar: uni0E4D.high
Encoding: 63262 63262 2
Width: 0
VWidth: 2558
Flags: W
HStem: 2026 72<83.4149 215.128> 2254 74<97.3427 231.646>
VStem: 5 71<2105.61 2231.63> 238 71<2122.54 2246.11>
AnchorPoint: "AboveMark" 217 2512 basemark 0
AnchorPoint: "AboveMark" 134 2040 mark 0
LayerCount: 2
Fore
SplineSet
5 2147 m 0
 5 2242 93 2328 184 2328 c 0
 256 2328 309 2277 309 2203 c 0
 309 2107 219 2026 131 2026 c 0
 60 2026 5 2075 5 2147 c 0
171 2254 m 0
 110 2254 76 2201 76 2161 c 0
 76 2127 102 2098 144 2098 c 0
 182 2098 238 2135 238 2190 c 0
 238 2230 209 2254 171 2254 c 0
EndSplineSet
EndChar

StartChar: exclam
Encoding: 33 33 5
Width: 681
VWidth: 2045
Flags: W
HStem: 0 193<242 368> 1430 20G<467.46 617>
VStem: 315 75<366 427.635>
DStem2: 208 0 368 0 0.173648 0.984808<27.7837 195.972 734.399 1473.64>
LayerCount: 2
Fore
SplineSet
391 998 m 1
 471 1450 l 1
 617 1450 l 1
 537 998 l 1
 390 366 l 1
 315 366 l 1
 391 998 l 1
242 193 m 1
 402 193 l 1
 368 0 l 1
 208 0 l 1
 242 193 l 1
EndSplineSet
EndChar

StartChar: quotedbl
Encoding: 34 34 6
Width: 568
VWidth: 2045
Flags: W
HStem: 946 504<347 370 610 632>
VStem: 284 460
LayerCount: 2
Fore
SplineSet
284 946 m 1
 306 1217 l 1
 347 1450 l 1
 481 1450 l 1
 440 1217 l 1
 370 946 l 1
 284 946 l 1
547 946 m 1
 569 1217 l 1
 610 1450 l 1
 744 1450 l 1
 703 1217 l 1
 632 946 l 1
 547 946 l 1
EndSplineSet
EndChar

StartChar: numbersign
Encoding: 35 35 7
Width: 1137
VWidth: 2045
Flags: W
HStem: -9 21G<85 219.677 597 731.677> 387 124<111 237 412 749 924 1181> 951 124<211 455 630 967 1142 1281> 1450 20G<646.354 781 1158.35 1293>
DStem2: 85 -9 212 -9 0.359064 0.933313<45.6011 424.17 602.737 1028.83 1207.4 1584.68> 597 -9 724 -9 0.359064 0.933313<45.6011 424.17 602.737 1028.83 1207.4 1584.68>
LayerCount: 2
Fore
SplineSet
212 -9 m 1
 85 -9 l 1
 237 387 l 1
 89 387 l 1
 111 511 l 1
 285 511 l 1
 455 951 l 1
 189 951 l 1
 211 1075 l 1
 503 1075 l 1
 654 1470 l 1
 781 1470 l 1
 630 1075 l 1
 1015 1075 l 1
 1166 1470 l 1
 1293 1470 l 1
 1142 1075 l 1
 1303 1075 l 1
 1281 951 l 1
 1094 951 l 1
 924 511 l 1
 1203 511 l 1
 1181 387 l 1
 876 387 l 1
 724 -9 l 1
 597 -9 l 1
 749 387 l 1
 364 387 l 1
 212 -9 l 1
967 951 m 1
 582 951 l 1
 412 511 l 1
 797 511 l 1
 967 951 l 1
EndSplineSet
EndChar

StartChar: dollar
Encoding: 36 36 8
Width: 1137
VWidth: 2045
Flags: W
HStem: -16 138<396.645 481 651 789.378> 634 142<767 856.394> 1268 138<573.274 708 878 977.334>
VStem: 141 150<223.202 417> 283 153<903.207 1145.42> 967 149<282.18 542.285> 1049 147<1050 1198.4>
DStem2: 463 -118 609 -118 0.173648 0.984808<25.3526 103.576 267.03 789.023 947.478 1407.49 1571.93 1630.74>
LayerCount: 2
Fore
SplineSet
609 -118 m 1xe4
 463 -118 l 1
 481 -16 l 1
 289 5 141 112 141 324 c 3
 141 353 144 384 150 417 c 1
 296 417 l 1
 293 398 291 380 291 363 c 3xf4
 291 232 382 146 506 122 c 1
 602 671 l 1
 436 719 283 789 283 966 c 3
 283 1232 517 1380 732 1406 c 1
 746 1488 l 1
 892 1488 l 1
 878 1405 l 1
 1052 1382 1196 1279 1196 1108 c 3
 1196 1089 1195 1070 1191 1050 c 1
 1045 1050 l 1
 1047 1064 1049 1077 1049 1090 c 3xea
 1049 1199 960 1253 854 1269 c 1
 767 776 l 1
 921 735 1116 666 1116 462 c 3
 1116 159 856 7 627 -16 c 1
 609 -118 l 1xe4
651 120 m 1
 800 142 967 241 967 433 c 3
 967 554 862 600 742 634 c 1
 651 120 l 1
708 1268 m 1
 572 1246 436 1168 436 1017 c 3xe8
 436 909 521 852 628 815 c 1
 708 1268 l 1
EndSplineSet
EndChar

StartChar: percent
Encoding: 37 37 9
Width: 1818
VWidth: 2045
Flags: W
HStem: -48 136<1308.58 1492.03> -9 21G<476 635.662> 588 136<1383.97 1567.42> 718 136<496.577 680.026> 1354 136<571.974 755.423>
VStem: 306 148<897.063 1215.17> 798 148<992.83 1310.94> 1118 148<131.064 449.17> 1610 148<226.83 544.937>
DStem2: 476 -9 622 -9 0.564072 0.825726<82.3545 1815.37>
LayerCount: 2
Fore
SplineSet
1758 422 m 3xaf80
 1758 159 1559 -48 1370 -48 c 259
 1221 -48 1118 79 1118 254 c 3
 1118 517 1317 724 1506 724 c 259
 1655 724 1758 597 1758 422 c 3xaf80
1482 588 m 259
 1397 588 1266 465 1266 268 c 3
 1266 145 1333 88 1394 88 c 259
 1479 88 1610 211 1610 408 c 3
 1610 531 1543 588 1482 588 c 259
946 1188 m 3
 946 925 747 718 558 718 c 259x1f80
 409 718 306 845 306 1020 c 3
 306 1283 505 1490 694 1490 c 259
 843 1490 946 1363 946 1188 c 3
670 1354 m 259
 585 1354 454 1231 454 1034 c 3
 454 911 521 854 582 854 c 259
 667 854 798 977 798 1174 c 3
 798 1297 731 1354 670 1354 c 259
1500 1490 m 1
 1646 1490 l 1
 622 -9 l 1
 476 -9 l 1x4f80
 1500 1490 l 1
EndSplineSet
EndChar

StartChar: ampersand
Encoding: 38 38 10
Width: 1364
VWidth: 2045
Flags: W
HStem: -12 136<415.907 761.175> 1344 136<716.446 994.457>
VStem: 152 153<235.102 530.99> 462 151<1019.73 1251.06> 1046 148<1090.42 1289.42>
DStem2: 729 907 571 844 0.539995 -0.841668<-256.526 -32.2941 128.287 593.093>
LayerCount: 2
Fore
SplineSet
1210 -17 m 1
 1125 35 1058 99 1010 173 c 1
 879 50 726 -12 550 -12 c 3
 233 -12 152 215 152 345 c 3
 152 562 317 759 571 844 c 1
 482 973 462 1053 462 1108 c 3
 462 1305 662 1480 898 1480 c 3
 1083 1480 1194 1359 1194 1217 c 3
 1194 1042 1044 909 792 795 c 1
 1048 407 l 1
 1119 506 1168 606 1204 719 c 1
 1348 675 l 1
 1299 542 1227 416 1128 290 c 1
 1176 217 1251 146 1345 77 c 1
 1210 -17 l 1
864 1344 m 3
 733 1344 613 1250 613 1140 c 3
 613 1084 647 1030 729 907 c 1
 911 989 1046 1088 1046 1194 c 3
 1046 1260 986 1344 864 1344 c 3
305 386 m 3
 305 281 364 124 577 124 c 3
 706 124 855 203 929 286 c 1
 652 730 l 1
 354 639 305 470 305 386 c 3
EndSplineSet
EndChar

StartChar: quotesingle
Encoding: 39 39 11
Width: 454
VWidth: 2045
Flags: W
HStem: 946 519<394 429>
VStem: 333 221
LayerCount: 2
Fore
SplineSet
333 946 m 1
 351 1220 l 1
 394 1465 l 1
 554 1465 l 1
 511 1220 l 1
 429 946 l 1
 333 946 l 1
EndSplineSet
EndChar

StartChar: parenleft
Encoding: 40 40 12
Width: 681
VWidth: 2045
Flags: W
HStem: -430 21G<322.5 479>
VStem: 197 141<-52.3037 603.886>
LayerCount: 2
Fore
SplineSet
818 1489 m 1
 617 1249 338 788 338 230 c 3
 338 30 375 -189 479 -430 c 1
 403 -430 l 1
 242 -169 197 82 197 285 c 3
 197 784 470 1226 742 1489 c 1
 818 1489 l 1
EndSplineSet
EndChar

StartChar: parenright
Encoding: 41 41 13
Width: 681
VWidth: 2045
Flags: W
HStem: -430 21G<50 349>
VStem: 531 142<449.781 1126.6>
LayerCount: 2
Fore
SplineSet
389 1489 m 1
 465 1489 l 1
 584 1314 673 1073 673 787 c 3
 673 462 572 31 126 -430 c 1
 50 -430 l 1
 408 27 531 452 531 839 c 3
 531 1121 460 1342 389 1489 c 1
EndSplineSet
EndChar

StartChar: asterisk
Encoding: 42 42 14
Width: 795
VWidth: 2045
Flags: W
HStem: 1210 116<784.77 918.977>
VStem: 598 116<1302.11 1489>
LayerCount: 2
Fore
SplineSet
283 1208 m 1
 339 1325 l 1
 567 1223 l 1
 580 1334 589 1423 598 1489 c 1
 714 1489 l 1
 700 1426 679 1339 650 1228 c 1
 729 1263 819 1296 917 1326 c 1
 933 1210 l 1
 831 1181 741 1158 659 1143 c 1
 696 1109 743 1042 802 942 c 1
 692 873 l 1
 644 956 607 1031 582 1097 c 1
 528 1025 468 952 400 878 c 1
 322 941 l 1
 405 1032 472 1099 527 1142 c 1
 283 1208 l 1
EndSplineSet
EndChar

StartChar: plus
Encoding: 43 43 15
Width: 1350
VWidth: 2045
Flags: W
HStem: 655 136<328 715 885 1272>
DStem2: 642 237 788 237 0.173648 0.984808<25.3526 424.326 587.78 982.814>
LayerCount: 2
Fore
SplineSet
642 237 m 1
 715 655 l 1
 304 655 l 1
 328 791 l 1
 739 791 l 1
 812 1205 l 1
 958 1205 l 1
 885 791 l 1
 1296 791 l 1
 1272 655 l 1
 861 655 l 1
 788 237 l 1
 642 237 l 1
EndSplineSet
EndChar

StartChar: comma
Encoding: 44 44 16
Width: 568
VWidth: 2045
Flags: W
HStem: -290 495
VStem: 148 275
LayerCount: 2
Fore
SplineSet
204 0 m 1
 240 205 l 1
 423 205 l 1
 387 0 l 2
 370 -99 327 -228 169 -290 c 1
 148 -213 l 1
 224 -181 273 -125 299 0 c 1
 204 0 l 1
EndSplineSet
EndChar

StartChar: hyphen
Encoding: 45 45 17
Width: 681
VWidth: 2045
Flags: W
HStem: 462 136<169 698>
VStem: 145 577
LayerCount: 2
Fore
SplineSet
145 462 m 1
 169 598 l 1
 722 598 l 1
 698 462 l 1
 145 462 l 1
EndSplineSet
EndChar

StartChar: period
Encoding: 46 46 18
Width: 568
VWidth: 2045
Flags: W
HStem: 0 196<221 369>
VStem: 186 218
LayerCount: 2
Fore
SplineSet
186 0 m 1
 221 196 l 1
 404 196 l 1
 369 0 l 1
 186 0 l 1
EndSplineSet
EndChar

StartChar: slash
Encoding: 47 47 19
Width: 568
VWidth: 2045
Flags: W
HStem: -9 21G<-83 58.4557> 1448 20G<753.517 893>
DStem2: -83 -9 47 -9 0.497908 0.86723<64.7281 1703.12>
LayerCount: 2
Fore
SplineSet
-83 -9 m 1
 765 1468 l 1
 893 1468 l 1
 47 -9 l 1
 -83 -9 l 1
EndSplineSet
EndChar

StartChar: zero
Encoding: 48 48 20
Width: 1137
VWidth: 2045
Flags: W
HStem: -12 136<443.613 725.293> 1344 136<641.287 935.217>
VStem: 185 150<245.941 839.463> 1043 149<646.577 1223.69>
LayerCount: 2
Fore
SplineSet
1043 992 m 3
 1043 1179 989 1344 797 1344 c 3
 460 1344 335 798 335 479 c 3
 335 292 390 124 582 124 c 3
 901 124 1043 655 1043 992 c 3
558 -12 m 3
 268 -12 185 196 185 444 c 3
 185 894 353 1480 821 1480 c 3
 1111 1480 1192 1274 1192 1026 c 3
 1192 576 1026 -12 558 -12 c 3
EndSplineSet
EndChar

StartChar: one
Encoding: 49 49 21
Width: 1137
VWidth: 2045
Flags: W
HStem: 0 21G<617 766.521> 1451 20G<803.5 1022>
VStem: 399 623
DStem2: 617 0 763 0 0.173648 0.984808<25.3526 1320.02>
LayerCount: 2
Fore
SplineSet
417 1103 m 1
 649 1211 785 1385 822 1471 c 1
 1022 1471 l 1
 763 0 l 1
 617 0 l 1
 846 1300 l 1
 700 1136 603 1060 399 997 c 1
 417 1103 l 1
EndSplineSet
EndChar

StartChar: two
Encoding: 50 50 22
Width: 1137
VWidth: 2045
Flags: W
HStem: 0 136<283 1031> 1344 136<616.892 966.388>
VStem: 279 146<1039 1155.03> 1074 150<952.821 1244.03>
DStem2: 254 326 424 292 0.811615 0.584193<-85.9257 971.08>
LayerCount: 2
Fore
SplineSet
833 1480 m 3
 1094 1480 1224 1341 1224 1154 c 3
 1224 986 1154 850 1056 766 c 0
 877 612 674 472 424 292 c 16
 337 229 291 180 283 136 c 1
 1055 136 l 1
 1031 0 l 1
 61 0 l 1
 84 131 145 243 254 326 c 0
 560 561 622 581 908 809 c 0
 1008 889 1074 996 1074 1114 c 3
 1074 1230 980 1344 804 1344 c 3
 593 1344 454 1205 425 1039 c 1
 279 1039 l 1
 325 1300 546 1480 833 1480 c 3
EndSplineSet
EndChar

StartChar: three
Encoding: 51 51 23
Width: 1137
VWidth: 2045
Flags: W
HStem: -9 136<423.602 758.223> 708 136<590 844.247> 1069 21G<292 450.5> 1344 136<612.545 954.67>
VStem: 155 148<249.161 426> 292 146<1069 1176.37> 981 149<325.747 616.55> 1027 145<996.105 1275.76>
LayerCount: 2
Fore
SplineSet
1172 1164 m 3xf5
 1172 982 1026 830 911 794 c 1
 958 784 1130 737 1130 528 c 3
 1130 192 826 -9 550 -9 c 3
 282 -9 155 175 155 362 c 3
 155 383 157 405 160 426 c 1
 306 426 l 1
 304 416 303 405 303 394 c 3
 303 292 375 127 574 127 c 3
 741 127 981 247 981 494 c 3xfa
 981 663 816 708 687 708 c 3
 645 708 603 706 563 693 c 1
 590 844 l 1
 914 844 1027 984 1027 1157 c 3
 1027 1293 913 1344 780 1344 c 3
 602 1344 463 1213 438 1069 c 9
 292 1069 l 1
 325 1256 520 1480 811 1480 c 3
 1002 1480 1172 1365 1172 1164 c 3xf5
EndSplineSet
EndChar

StartChar: four
Encoding: 52 52 24
Width: 1137
VWidth: 2045
Flags: W
HStem: 0 21G<696 845.516> 347 136<244 757 927 1101> 1451 20G<915.269 1101>
DStem2: 113 492 244 483 0.641647 0.767<77.1528 1125.02> 696 0 842 0 0.173648 0.984808<25.3526 352.321 515.775 1301.77>
LayerCount: 2
Fore
SplineSet
696 0 m 1
 757 347 l 1
 87 347 l 1
 113 492 l 1
 932 1471 l 1
 1101 1471 l 1
 927 483 l 1
 1125 483 l 1
 1101 347 l 1
 903 347 l 1
 842 0 l 1
 696 0 l 1
781 483 m 1
 922 1282 l 1
 244 483 l 1
 781 483 l 1
EndSplineSet
EndChar

StartChar: five
Encoding: 53 53 25
Width: 1137
VWidth: 2045
Flags: W
HStem: -12 136<398.276 755.963> 847 136<538.111 885.382> 1314 136<609 1220>
VStem: 152 151<220.453 411> 1006 148<387.87 736.04>
DStem2: 240 704 447 877 0.34588 0.938279<28.3735 117.712 233.919 699.98>
LayerCount: 2
Fore
SplineSet
1006 587 m 3
 1006 753 887 847 701 847 c 3
 571 847 463 789 379 683 c 1
 240 704 l 1
 515 1450 l 1
 1244 1450 l 1
 1220 1314 l 1
 609 1314 l 1
 447 877 l 1
 479 912 575 983 774 983 c 3
 980 983 1154 854 1154 610 c 3
 1154 276 883 -12 543 -12 c 3
 249 -12 152 179 152 348 c 3
 152 370 154 391 157 411 c 1
 303 411 l 1
 303 403 303 395 303 387 c 3
 303 246 349 124 590 124 c 3
 791 124 1006 316 1006 587 c 3
EndSplineSet
EndChar

StartChar: six
Encoding: 54 54 26
Width: 1137
VWidth: 2045
Flags: W
HStem: -12 136<445.453 775.254> 840 136<551.718 879.18> 1344 136<650.03 979.144>
VStem: 176 155<240.697 610.788> 989 150<364.005 730.059> 1066 151<1103 1252.28>
LayerCount: 2
Fore
SplineSet
575 -12 m 3xf8
 294 -12 176 190 176 466 c 3
 176 753 312 1480 863 1480 c 3
 1065 1480 1217 1361 1217 1167 c 3
 1217 1147 1216 1125 1212 1103 c 1
 1066 1103 l 1xf4
 1066 1172 1044 1344 829 1344 c 3
 528 1344 408 1052 351 766 c 1
 362 788 481 976 776 976 c 3
 958 976 1139 843 1139 593 c 3
 1139 304 926 -12 575 -12 c 3xf8
724 840 m 3
 509 840 331 664 331 406 c 3
 331 240 430 124 604 124 c 3
 877 124 989 387 989 562 c 3xf8
 989 718 903 840 724 840 c 3
EndSplineSet
EndChar

StartChar: seven
Encoding: 55 55 27
Width: 1137
VWidth: 2045
Flags: W
HStem: 0 21G<364 521> 1314 136<354 1121>
VStem: 364 146<0 187.312>
LayerCount: 2
Fore
SplineSet
364 0 m 1
 395 168 503 682 1121 1314 c 1
 330 1314 l 1
 354 1450 l 1
 1302 1450 l 1
 1278 1314 l 1
 644 703 532 126 510 0 c 1
 364 0 l 1
EndSplineSet
EndChar

StartChar: eight
Encoding: 56 56 28
Width: 1137
VWidth: 2045
Flags: W
HStem: -12 136<420.753 767.921> 727 136<573.723 859.032> 1344 136<637.744 946.838>
VStem: 150 148<239.519 527.426> 331 149<950.426 1202.14> 982 150<315.548 608.571> 1040 149<1010.8 1258.04>
LayerCount: 2
Fore
SplineSet
717 863 m 259xfa
 884 863 1040 997 1040 1141 c 3
 1040 1260 925 1344 802 1344 c 259
 664 1344 480 1236 480 1074 c 3
 480 967 571 863 717 863 c 259xfa
587 124 m 259
 763 124 982 258 982 468 c 3xfc
 982 609 865 727 693 727 c 259
 494 727 298 571 298 376 c 3
 298 224 432 124 587 124 c 259
150 351 m 3
 150 556 264 744 503 804 c 1
 389 849 331 928 331 1040 c 3
 331 1309 559 1480 826 1480 c 0
 1053 1480 1189 1360 1189 1178 c 3xfa
 1189 981 1084 863 913 804 c 1
 1078 759 1132 639 1132 512 c 3
 1132 235 908 -12 563 -12 c 3
 280 -12 150 163 150 351 c 3
EndSplineSet
EndChar

StartChar: nine
Encoding: 57 57 29
Width: 1137
VWidth: 2045
Flags: W
HStem: -12 136<450.081 766.779> 495 136<548.449 851.701> 1344 136<657.165 963.108>
VStem: 202 148<223.835 369> 277 150<754.773 1102.41> 1086 152<756.141 1219.77>
LayerCount: 2
Fore
SplineSet
810 1344 m 259xec
 638 1344 427 1161 427 920 c 3
 427 749 546 631 684 631 c 259
 883 631 1086 815 1086 1054 c 3
 1086 1211 986 1344 810 1344 c 259xec
571 -12 m 3
 339 -12 202 133 202 327 c 3
 202 341 203 355 204 369 c 9
 350 369 l 1xf4
 350 237 440 124 595 124 c 3
 871 124 1001 382 1059 713 c 1
 972 578 869 495 660 495 c 3
 433 495 277 645 277 878 c 3
 277 1243 553 1480 834 1480 c 3
 1080 1480 1238 1351 1238 1017 c 3
 1238 514 1029 -12 571 -12 c 3
EndSplineSet
EndChar

StartChar: colon
Encoding: 58 58 30
Width: 568
VWidth: 2045
Flags: W
HStem: 0 205<274 390> 856 204<425 541>
VStem: 238 339
DStem2: 238 0 390 0 0.173648 0.984808<26.3945 208.137 895.611 1076.37>
LayerCount: 2
Fore
SplineSet
389 856 m 1
 425 1060 l 1
 577 1060 l 1
 541 856 l 1
 389 856 l 1
238 0 m 1
 274 205 l 1
 426 205 l 1
 390 0 l 1
 238 0 l 1
EndSplineSet
EndChar

StartChar: semicolon
Encoding: 59 59 31
Width: 568
VWidth: 2045
Flags: W
HStem: 856 204<407 539>
VStem: 138 437
DStem2: 168.865 -290 336.865 -290 0.173648 0.984808<294.474 502.611 1192.86 1370.84>
LayerCount: 2
Fore
SplineSet
371 856 m 1
 407 1060 l 1
 575 1060 l 1
 539 856 l 1
 371 856 l 1
220 0 m 1
 256 205 l 1
 424 205 l 1
 388 0 l 2
 360 -159 280 -244 169 -290 c 1
 138 -221 l 1
 252 -173 282 -49 291 0 c 1
 220 0 l 1
EndSplineSet
EndChar

StartChar: less
Encoding: 60 60 32
Width: 1350
VWidth: 2045
Flags: W
DStem2: 447 723 291 663 0.898614 -0.438741<0 843.964> 312 785 447 723 0.924404 0.381416<101.147 1058.56>
LayerCount: 2
Fore
SplineSet
291 663 m 1
 312 785 l 1
 1359 1217 l 1
 1335 1081 l 1
 447 723 l 1
 1207 356 l 1
 1184 227 l 1
 291 663 l 1
EndSplineSet
EndChar

StartChar: equal
Encoding: 61 61 33
Width: 1350
VWidth: 2045
Flags: W
HStem: 437 136<290 1234> 877 136<368 1312>
LayerCount: 2
Fore
SplineSet
1312 877 m 1
 344 877 l 1
 368 1013 l 1
 1336 1013 l 1
 1312 877 l 1
1234 437 m 1
 266 437 l 1
 290 573 l 1
 1258 573 l 1
 1234 437 l 1
EndSplineSet
EndChar

StartChar: greater
Encoding: 62 62 34
Width: 1350
VWidth: 2045
Flags: W
DStem2: 251 356 229 227 0.923155 0.384428<0 959.924> 404 1217 379 1081 0.900198 -0.435482<36.7206 875.873>
LayerCount: 2
Fore
SplineSet
1276 663 m 1
 229 227 l 1
 251 356 l 1
 1138 723 l 1
 379 1081 l 1
 404 1217 l 1
 1297 785 l 1
 1276 663 l 1
EndSplineSet
EndChar

StartChar: question
Encoding: 63 63 35
Width: 1022
VWidth: 2045
Flags: W
HStem: 0 205<466 589> 1368 136<567.756 912.622>
VStem: 221 146<1045 1159.88> 1031 149<984.186 1254.66>
DStem2: 430 0 589 0 0.173648 0.984808<27.6101 208.137 393.024 578.512>
LayerCount: 2
Fore
SplineSet
776 1504 m 3
 1014 1504 1180 1369 1180 1160 c 3
 1180 720 723 798 646 361 c 9
 500 361 l 17
 582 824 1031 825 1031 1121 c 3
 1031 1230 943 1368 755 1368 c 3
 526 1368 396 1202 367 1045 c 1
 221 1045 l 1
 278 1299 492 1504 776 1504 c 3
430 0 m 1
 466 205 l 1
 625 205 l 1
 589 0 l 1
 430 0 l 1
EndSplineSet
EndChar

StartChar: at
Encoding: 64 64 36
Width: 1635
VWidth: 2045
Flags: W
HStem: -430 124<549.137 1205.65> -12 124<584.759 837.16 1132.18 1373.15> 961 124<829.132 1161.49> 1040 20G<1360.64 1509> 1369 124<874.044 1378.4>
VStem: -24 131<67.5983 601.998> 372 129<200.949 572.207> 1764 133<608.858 1032.56>
LayerCount: 2
Fore
SplineSet
372 336 m 3xdf
 372 743 730 1085 999 1085 c 3xef
 1134 1085 1257 1041 1318 938 c 1
 1369 1060 l 1
 1509 1060 l 1
 1204 257 l 2
 1187 213 1176 190 1176 167 c 3
 1176 137 1206 112 1243 112 c 3
 1555 112 1764 607 1764 825 c 3
 1764 1199 1413 1369 1137 1369 c 3
 677 1369 107 975 107 306 c 3
 107 -177 529 -306 879 -306 c 3
 1360 -306 1551 -102 1658 18 c 1
 1808 18 l 1
 1741 -83 1462 -430 853 -430 c 3
 422 -430 -24 -263 -24 268 c 3
 -24 1037 595 1493 1177 1493 c 3
 1541 1493 1897 1295 1897 872 c 3
 1897 536 1626 -12 1152 -12 c 3
 1087 -12 1008 0 1008 145 c 1
 891 46 771 -12 654 -12 c 3
 526 -12 372 89 372 336 c 3xdf
992 961 m 3
 739 961 501 636 501 361 c 3
 501 171 620 112 706 112 c 3
 999 112 1224 513 1224 763 c 3
 1224 882 1168 961 992 961 c 3
EndSplineSet
EndChar

StartChar: A
Encoding: 65 65 37
Width: 1364
VWidth: 2045
Flags: W
HStem: 0 21G<-3 170.563 1198.95 1366> 467 136<508 1051> 1430 20G<826.4 1005.05>
DStem2: -3 0 159 0 0.501718 0.865031<81.2783 620.712 777.992 1531.64> 1000 1450 886 1255 0.244738 -0.969589<161.17 833.724 974.154 1455.83>
LayerCount: 2
Fore
SplineSet
1051 603 m 1
 886 1255 l 1
 508 603 l 1
 1051 603 l 1
1086 467 m 1
 429 467 l 1
 159 0 l 1
 -3 0 l 1
 838 1450 l 1
 1000 1450 l 1
 1366 0 l 1
 1204 0 l 1
 1086 467 l 1
EndSplineSet
EndChar

StartChar: B
Encoding: 66 66 38
Width: 1364
VWidth: 2045
Flags: W
HStem: 0 136<335 1001.25> 687 136<456 1073.23> 1314 136<543 1151.63>
VStem: 1188 149<310.283 589.636> 1230 150<959.539 1243.63>
DStem2: 165 0 311.02 0 0.173648 0.984808<163.454 722.927 861.028 1359.68>
LayerCount: 2
Fore
SplineSet
753 0 m 2xf0
 165 0 l 1
 421 1450 l 1
 954 1450 l 2
 1317 1450 1380 1267 1380 1143 c 3xe8
 1380 1008 1324 865 1116 772 c 1
 1274 722 1337 607 1337 489 c 3
 1337 296 1194 0 753 0 c 2xf0
874 823 m 2
 1022 823 1230 884 1230 1118 c 3
 1230 1238 1156 1314 936 1314 c 2
 543 1314 l 1
 456 823 l 1
 874 823 l 2
1188 467 m 3xf0
 1188 624 1031 687 871 687 c 2
 432 687 l 1
 335 136 l 1
 802 136 l 2
 1097 136 1188 348 1188 467 c 3xf0
EndSplineSet
EndChar

StartChar: C
Encoding: 67 67 39
Width: 1477
VWidth: 2045
Flags: W
HStem: -12 136<591.608 1045.02> 1344 136<801.618 1228.51>
VStem: 215 150<352.605 862.037> 1411 146<1050 1173.91>
LayerCount: 2
Fore
SplineSet
809 124 m 3
 1084 124 1247 248 1335 480 c 1
 1481 480 l 1
 1378 206 1118 -12 815 -12 c 3
 401 -12 215 220 215 555 c 3
 215 1107 599 1480 1054 1480 c 3
 1361 1480 1528 1305 1557 1050 c 1
 1411 1050 l 1
 1377 1283 1174 1344 1027 1344 c 3
 652 1344 365 1034 365 582 c 3
 365 307 509 124 809 124 c 3
EndSplineSet
EndChar

StartChar: D
Encoding: 68 68 40
Width: 1477
VWidth: 2045
Flags: W
HStem: 0 136<338 962.708> 1314 136<546 1169.16>
VStem: 1379 150<611.696 1125.27>
DStem2: 168 0 314.02 0 0.173648 0.984808<163.454 1359.68>
LayerCount: 2
Fore
SplineSet
928 1450 m 2
 1385 1450 1529 1252 1529 957 c 3
 1529 441 1267 0 695 0 c 2
 168 0 l 1
 424 1450 l 1
 928 1450 l 2
338 136 m 1
 713 136 l 2
 1187 136 1379 526 1379 915 c 3
 1379 1146 1271 1314 917 1314 c 2
 546 1314 l 1
 338 136 l 1
EndSplineSet
EndChar

StartChar: E
Encoding: 69 69 41
Width: 1209
VWidth: 2045
Flags: W
HStem: 0 136<261 1151> 668 136<379 1068> 1314 136<469 1383>
DStem2: 91 0 237.02 0 0.173648 0.984808<163.454 703.695 841.796 1359.68>
LayerCount: 2
Fore
SplineSet
91 0 m 1
 347 1450 l 1
 1407 1450 l 1
 1383 1314 l 1
 469 1314 l 1
 379 804 l 1
 1092 804 l 1
 1068 668 l 1
 355 668 l 1
 261 136 l 1
 1175 136 l 1
 1151 0 l 1
 91 0 l 1
EndSplineSet
EndChar

StartChar: F
Encoding: 70 70 42
Width: 1137
VWidth: 2045
Flags: W
HStem: 0 21G<91 240.529> 663 136<378 1049> 1314 136<469 1311>
DStem2: 91 0 237 0 0.173648 0.984808<25.3526 698.597 836.698 1359.68>
LayerCount: 2
Fore
SplineSet
91 0 m 1
 347 1450 l 1
 1335 1450 l 1
 1311 1314 l 1
 469 1314 l 1
 378 799 l 1
 1073 799 l 1
 1049 663 l 1
 354 663 l 1
 237 0 l 1
 91 0 l 1
EndSplineSet
EndChar

StartChar: G
Encoding: 71 71 43
Width: 1590
VWidth: 2045
Flags: W
HStem: -12 136<632.462 1078.55> 541 136<1069 1397> 1344 136<834.563 1281.73>
VStem: 262 149<359.506 852.971> 1457 146<1050 1184>
LayerCount: 2
Fore
SplineSet
411 587 m 3
 411 289 580 124 837 124 c 3
 1245 124 1375 414 1397 541 c 1
 1045 541 l 1
 1069 677 l 1
 1567 677 l 1
 1543 539 l 1
 1478 191 1205 -12 833 -12 c 3
 470 -12 262 205 262 560 c 3
 262 1112 649 1480 1100 1480 c 3
 1408 1480 1575 1304 1603 1050 c 1
 1457 1050 l 1
 1450 1135 1392 1344 1064 1344 c 3
 688 1344 411 1027 411 587 c 3
EndSplineSet
EndChar

StartChar: H
Encoding: 72 72 44
Width: 1477
VWidth: 2045
Flags: W
HStem: 0 21G<165 314.512 1167 1316.53> 689 136<456 1288> 1430 20G<417.469 567 1419.45 1569>
DStem2: 165 0 311 0 0.173648 0.984808<25.3526 724.897 862.998 1472.43> 1167 0 1313 0 0.173648 0.984808<25.3526 699.544 837.645 1472.43>
LayerCount: 2
Fore
SplineSet
165 0 m 1
 421 1450 l 1
 567 1450 l 1
 456 825 l 1
 1312 825 l 1
 1423 1450 l 1
 1569 1450 l 1
 1313 0 l 1
 1167 0 l 1
 1288 689 l 1
 432 689 l 1
 311 0 l 1
 165 0 l 1
EndSplineSet
EndChar

StartChar: I
Encoding: 73 73 45
Width: 568
VWidth: 2045
Flags: W
HStem: 0 21G<223 372.531> 1430 20G<475.469 625>
VStem: 223 402
DStem2: 223 0 369 0 0.173648 0.984808<25.3526 1472.43>
LayerCount: 2
Fore
SplineSet
223 0 m 1
 479 1450 l 1
 625 1450 l 1
 369 0 l 1
 223 0 l 1
EndSplineSet
EndChar

StartChar: J
Encoding: 74 74 46
Width: 1022
VWidth: 2045
Flags: W
HStem: -12 136<345.616 651.784> 1430 20G<970.459 1120>
VStem: 132 148<192.842 452>
DStem2: 715.472 -12 862.008 -12 0.173648 0.984808<233.432 1484.68>
LayerCount: 2
Fore
SplineSet
974 1450 m 17
 1120 1450 l 1
 944 453 l 2
 898 190 776 -12 461 -12 c 3
 181 -12 132 186 132 327 c 3
 132 383 140 429 144 452 c 1
 290 452 l 17
 284 416 280 381 280 349 c 3
 280 212 342 124 482 124 c 3
 665 124 758 230 789 405 c 10
 974 1450 l 17
EndSplineSet
EndChar

StartChar: K
Encoding: 75 75 47
Width: 1364
VWidth: 2045
Flags: W
HStem: 0 21G<149 298.521 1150.31 1345> 1430 20G<401.469 551 1354.38 1570>
DStem2: 149 0 295 0 0.173648 0.984808<25.3526 602.088 767.648 1472.43> 424 731 395 568 0.799755 0.600327<0 163.354 303.954 1197> 735 823 623 738 0.595461 -0.803384<1.59603 917.233>
LayerCount: 2
Fore
SplineSet
149 0 m 1
 405 1450 l 1
 551 1450 l 1
 424 731 l 1
 1381 1450 l 1
 1570 1450 l 1
 735 823 l 1
 1345 0 l 1
 1165 0 l 1
 623 738 l 1
 395 568 l 1
 295 0 l 1
 149 0 l 1
EndSplineSet
EndChar

StartChar: L
Encoding: 76 76 48
Width: 1137
VWidth: 2045
Flags: W
HStem: 0 136<319 1058> 1430 20G<401.469 551>
DStem2: 149 0 295.02 0 0.173648 0.984808<163.454 1472.43>
LayerCount: 2
Fore
SplineSet
149 0 m 1
 405 1450 l 1
 551 1450 l 1
 319 136 l 1
 1082 136 l 1
 1058 0 l 1
 149 0 l 1
EndSplineSet
EndChar

StartChar: M
Encoding: 77 77 49
Width: 1702
VWidth: 2045
Flags: W
HStem: 0 21G<152 301.528 790.83 915.262 1403 1552.53> 1430 20G<404.469 559.023 1646.94 1805>
DStem2: 152 0 298 0 0.173648 0.984808<25.3526 1188.03> 554 1450 500 1145 0.243594 -0.969877<282.659 1334.19> 879 156 903 0 0.516247 0.85644<0 1221.81> 1403 0 1549 0 0.173648 0.984808<25.3526 1162.68>
LayerCount: 2
Fore
SplineSet
152 0 m 1
 408 1450 l 1
 554 1450 l 1
 879 156 l 1
 1659 1450 l 1
 1805 1450 l 1
 1549 0 l 1
 1403 0 l 1
 1605 1145 l 1
 903 0 l 1
 796 0 l 1
 500 1145 l 1
 298 0 l 1
 152 0 l 1
EndSplineSet
EndChar

StartChar: N
Encoding: 78 78 50
Width: 1477
VWidth: 2045
Flags: W
HStem: 0 21G<156 305.527 1152.66 1312.53> 1430 20G<408.469 568.338 1415.47 1565>
DStem2: 156 0 302 0 0.173648 0.984808<25.3526 1286.51> 558 1450 521 1242 0.459189 -0.888338<167.784 1398.12> 1163.32 0 1309 0 0.173648 0.984808<211.209 1472.37>
LayerCount: 2
Fore
SplineSet
156 0 m 1
 412 1450 l 1
 558 1450 l 1
 1200 208 l 1
 1419 1450 l 1
 1565 1450 l 1
 1309 0 l 1
 1163 0 l 1
 521 1242 l 1
 302 0 l 1
 156 0 l 1
EndSplineSet
EndChar

StartChar: O
Encoding: 79 79 51
Width: 1590
VWidth: 2045
Flags: W
HStem: -12 136<622.285 1025.43> 1344 136<831.473 1234.58>
VStem: 213 150<394.683 856.482> 1493 150<612.418 1073.96>
LayerCount: 2
Fore
SplineSet
1060 1480 m 259
 1415 1480 1643 1258 1643 901 c 3
 1643 350 1239 -12 797 -12 c 259
 442 -12 213 211 213 568 c 3
 213 1119 618 1480 1060 1480 c 259
1036 1344 m 259
 717 1344 363 1038 363 614 c 3
 363 324 560 124 821 124 c 259
 1140 124 1493 431 1493 855 c 3
 1493 1144 1297 1344 1036 1344 c 259
EndSplineSet
EndChar

StartChar: P
Encoding: 80 80 52
Width: 1248
VWidth: 2045
Flags: W
HStem: 0 21G<88 237.517> 580 136<360 1022.84> 1314 136<466 1126.16>
VStem: 1248 150<917.822 1211.47>
DStem2: 88 0 234 0 0.173648 0.984808<25.3526 614.253 752.355 1359.68>
LayerCount: 2
Fore
SplineSet
88 0 m 1
 344 1450 l 1
 928 1450 l 2
 1085 1450 1398 1440 1398 1128 c 3
 1398 803 1183 580 761 580 c 2
 336 580 l 1
 234 0 l 1
 88 0 l 1
788 716 m 2
 1148 716 1248 933 1248 1089 c 3
 1248 1193 1184 1314 891 1314 c 2
 466 1314 l 1
 360 716 l 1
 788 716 l 2
EndSplineSet
EndChar

StartChar: Q
Encoding: 81 81 53
Width: 1590
VWidth: 2045
Flags: W
HStem: -12 136<604.81 1017.51 1308.38 1556.82> 341 136<706.992 1027.09> 1344 136<813.473 1216.58>
VStem: 195 150<394.81 856.482> 1475 150<607.617 1073.96>
LayerCount: 2
Fore
SplineSet
1414 124 m 3
 1485 124 1551 156 1586 194 c 1
 1648 79 l 1
 1582 18 1495 -12 1385 -12 c 3
 1268 -12 1215 34 1177 92 c 1
 1058 25 923 -12 779 -12 c 3
 424 -12 195 211 195 568 c 3
 195 1119 600 1480 1042 1480 c 3
 1397 1480 1625 1258 1625 901 c 3
 1625 577 1484 331 1301 177 c 1
 1326 145 1360 124 1414 124 c 3
1018 1344 m 3
 699 1344 345 1038 345 614 c 3
 345 465 398 340 484 253 c 1
 563 364 718 477 865 477 c 3
 1092 477 1176 391 1228 303 c 1
 1366 430 1475 613 1475 855 c 3
 1475 1144 1279 1344 1018 1344 c 3
1109 214 m 1
 1065 283 999 341 841 341 c 3
 741 341 635 258 580 180 c 1
 646 144 721 124 803 124 c 3
 908 124 1013 157 1109 214 c 1
EndSplineSet
EndChar

StartChar: R
Encoding: 82 82 54
Width: 1364
VWidth: 2045
Flags: W
HStem: 0 21G<98 247.517 1155.83 1325> 580 136<370 815> 1314 136<476 1132.93>
VStem: 1253 153<906.51 1213.28>
DStem2: 98 0 244 0 0.173648 0.984808<25.3526 614.253 752.355 1359.68> 968 595 815 580 0.514496 -0.857493<0 613.107>
LayerCount: 2
Fore
SplineSet
968 595 m 1
 1325 0 l 1
 1168 0 l 1
 815 580 l 1
 346 580 l 1
 244 0 l 1
 98 0 l 1
 354 1450 l 1
 939 1450 l 2
 1311 1450 1406 1295 1406 1129 c 3
 1406 812 1192 642 968 595 c 1
826 716 m 2
 1102 716 1253 846 1253 1075 c 3
 1253 1186 1189 1314 927 1314 c 2
 476 1314 l 1
 370 716 l 1
 826 716 l 2
EndSplineSet
EndChar

StartChar: S
Encoding: 83 83 55
Width: 1248
VWidth: 2045
Flags: W
HStem: -12 136<437.414 934.93> 1344 136<618.638 1054.21>
VStem: 125 148<265.684 501> 285 150<951.905 1187.4> 1142 150<301.617 545.736> 1203 149<1018 1207.14>
LayerCount: 2
Fore
SplineSet
862 1344 m 3xf4
 539 1344 435 1179 435 1050 c 3
 435 923 600 864 764 835 c 0
 1193 759 1292 600 1292 473 c 3
 1292 294 1120 -12 687 -12 c 3
 230 -12 125 208 125 399 c 3
 125 434 128 469 134 501 c 9
 280 501 l 17
 276 477 273 452 273 425 c 3
 273 285 348 124 684 124 c 3
 1034 124 1142 320 1142 445 c 3xf8
 1142 542 1052 627 713 689 c 0
 483 731 285 823 285 1013 c 3
 285 1229 491 1480 867 1480 c 3
 1150 1480 1352 1341 1352 1083 c 3
 1352 1062 1351 1040 1348 1018 c 1
 1202 1018 l 17
 1203 1028 1203 1038 1203 1048 c 3
 1203 1242 1061 1344 862 1344 c 3xf4
EndSplineSet
EndChar

StartChar: T
Encoding: 84 84 56
Width: 1137
VWidth: 2045
Flags: W
HStem: 0 21G<494 643.531> 1314 136<274 726 872 1351>
DStem2: 494 0 640 0 0.173648 0.984808<25.3526 1334.32>
LayerCount: 2
Fore
SplineSet
494 0 m 1
 726 1314 l 1
 250 1314 l 1
 274 1450 l 1
 1375 1450 l 1
 1351 1314 l 1
 872 1314 l 1
 640 0 l 1
 494 0 l 1
EndSplineSet
EndChar

StartChar: U
Encoding: 85 85 57
Width: 1477
VWidth: 2045
Flags: W
HStem: -12 136<546.012 989.512> 1430 20G<414.471 564 1419.46 1569>
VStem: 246 150<266.106 718.766>
DStem2: 160.083 -12 305.73 -12 0.173648 0.984808<491.75 1484.58> 1164.73 -12 1311.08 -12 0.173648 0.984808<345.74 1484.64>
LayerCount: 2
Fore
SplineSet
760 124 m 3
 984 124 1205 218 1267 568 c 2
 1423 1450 l 1
 1569 1450 l 1
 1413 566 l 2
 1331 103 1042 -12 736 -12 c 3
 470 -12 246 75 246 402 c 3
 246 451 251 506 262 566 c 2
 418 1450 l 1
 564 1450 l 1
 408 568 l 2
 400 522 396 481 396 444 c 3
 396 195 565 124 760 124 c 3
EndSplineSet
EndChar

StartChar: V
Encoding: 86 86 58
Width: 1248
VWidth: 2045
Flags: W
HStem: 0 21G<556.917 694.228> 1430 20G<265 424.88 1342.73 1497>
DStem2: 421 1450 265 1450 0.200013 -0.979793<0 1254.91> 660 218 683 0 0.489519 0.871993<0 1414.02>
LayerCount: 2
Fore
SplineSet
561 0 m 1
 265 1450 l 1
 421 1450 l 1
 660 218 l 1
 1354 1450 l 1
 1497 1450 l 1
 683 0 l 1
 561 0 l 1
EndSplineSet
EndChar

StartChar: W
Encoding: 87 87 59
Width: 1818
VWidth: 2045
Flags: W
HStem: 0 21G<433.848 582.194 1259.98 1408.99> 1430 20G<280 429.023 1103.83 1254.06 1897.39 2052>
DStem2: 427 1450 280 1450 0.106969 -0.994262<0 1232.23> 551 224 573 0 0.417698 0.908586<0 1158.32> 1252 1450 1138 1229 0.100385 -0.994949<208.44 1232.46> 1378 224 1400 0 0.410103 0.912039<0 1334.69>
LayerCount: 2
Fore
SplineSet
436 0 m 1
 280 1450 l 1
 427 1450 l 1
 551 224 l 1
 1113 1450 l 1
 1252 1450 l 1
 1378 224 l 1
 1906 1450 l 1
 2052 1450 l 1
 1400 0 l 1
 1262 0 l 1
 1138 1229 l 1
 573 0 l 1
 436 0 l 1
EndSplineSet
EndChar

StartChar: X
Encoding: 88 88 60
Width: 1248
VWidth: 2045
Flags: W
HStem: 0 21G<9 203.445 1058.59 1244> 1430 20G<332 518.057 1266.96 1460>
DStem2: 9 0 186 0 0.660336 0.75097<116.879 958.16 1150.63 1930.84> 509 1450 332 1450 0.446336 -0.894865<0 651.614 874.477 1547.5>
LayerCount: 2
Fore
SplineSet
9 0 m 1
 670 740 l 1
 332 1450 l 1
 509 1450 l 1
 778 856 l 1
 1284 1450 l 1
 1460 1450 l 1
 843 740 l 1
 1244 0 l 1
 1069 0 l 1
 739 634 l 1
 186 0 l 1
 9 0 l 1
EndSplineSet
EndChar

StartChar: Y
Encoding: 89 89 61
Width: 1248
VWidth: 2045
Flags: W
HStem: 0 21G<542 691.51> 1430 20G<262 448.206 1305.72 1497>
DStem2: 439 1450 262 1450 0.424798 -0.905288<0 762.875> 542 0 688 0 0.173648 0.984808<25.3526 630.493> 758 757 797 621 0.645157 0.76405<0 893.355>
LayerCount: 2
Fore
SplineSet
542 0 m 1
 651 621 l 1
 262 1450 l 1
 439 1450 l 1
 758 757 l 1
 1322 1450 l 1
 1497 1450 l 1
 797 621 l 1
 688 0 l 1
 542 0 l 1
EndSplineSet
EndChar

StartChar: Z
Encoding: 90 90 62
Width: 1248
VWidth: 2045
Flags: W
HStem: 0 136<257 1198> 1314 136<302 1267>
LayerCount: 2
Fore
SplineSet
41 0 m 1
 66 144 l 1
 1267 1314 l 1
 278 1314 l 1
 302 1450 l 1
 1468 1450 l 1
 1444 1314 l 1
 257 136 l 1
 1222 136 l 1
 1198 0 l 1
 41 0 l 1
EndSplineSet
EndChar

StartChar: bracketleft
Encoding: 91 91 63
Width: 681
VWidth: 2045
Flags: W
HStem: -408 136<237 463> 1329 136<519 769>
DStem2: 67 -408 213.02 -408 0.173648 0.984808<163.454 1789.1>
LayerCount: 2
Fore
SplineSet
67 -408 m 1
 397 1465 l 1
 793 1465 l 1
 769 1329 l 1
 519 1329 l 1
 237 -272 l 1
 487 -272 l 1
 463 -408 l 1
 67 -408 l 1
EndSplineSet
EndChar

StartChar: backslash
Encoding: 92 92 64
Width: 568
VWidth: 2045
Flags: W
VStem: 263 264
DStem2: 370 1489 263 1489 0.103213 -0.994659<0 1510.08>
LayerCount: 2
Fore
SplineSet
420 -24 m 1
 263 1489 l 1
 370 1489 l 1
 527 -24 l 1
 420 -24 l 1
EndSplineSet
EndChar

StartChar: bracketright
Encoding: 93 93 65
Width: 681
VWidth: 2045
Flags: W
HStem: -408 136<98 348> 1329 136<404 630>
DStem2: 324.02 -408 470 -408 0.173648 0.984808<138.098 1763.74>
LayerCount: 2
Fore
SplineSet
470 -408 m 1
 74 -408 l 1
 98 -272 l 1
 348 -272 l 1
 630 1329 l 1
 380 1329 l 1
 404 1465 l 1
 800 1465 l 1
 470 -408 l 1
EndSplineSet
EndChar

StartChar: asciicircum
Encoding: 94 94 66
Width: 1350
VWidth: 2045
Flags: W
DStem2: 359 689 496 689 0.523385 0.852096<71.7037 857.659>
LayerCount: 2
Fore
SplineSet
496 689 m 1
 359 689 l 1
 851 1490 l 1
 998 1490 l 1
 1210 689 l 1
 1066 689 l 1
 902 1362 l 1
 496 689 l 1
EndSplineSet
EndChar

StartChar: underscore
Encoding: 95 95 67
Width: 1022
VWidth: 2045
Flags: W
HStem: -408 94<-85 983>
LayerCount: 2
Fore
SplineSet
-102 -408 m 1
 -85 -314 l 1
 1000 -314 l 1
 983 -408 l 1
 -102 -408 l 1
EndSplineSet
EndChar

StartChar: grave
Encoding: 96 96 68
Width: 681
VWidth: 2045
Flags: W
HStem: 1193 281<576 597>
VStem: 394 289
LayerCount: 2
Fore
SplineSet
683 1193 m 1
 576 1193 l 1
 394 1474 l 1
 597 1474 l 1
 683 1193 l 1
EndSplineSet
EndChar

StartChar: a
Encoding: 97 97 69
Width: 1137
VWidth: 2045
Flags: W
HStem: 0 112<311.947 724.263> 961 124<523.553 928.527>
VStem: 121 129<168.723 375.078> 888 139<1.56889 260.912> 1003 130<596.046 895.069>
DStem2: 865.363 -12 991.419 -12 0.173648 0.984808<281.648 586.868 664.815 815.177>
LayerCount: 2
Fore
SplineSet
362 739 m 1xe8
 239 759 l 1
 329 986 494 1085 773 1085 c 3
 1068 1085 1133 981 1133 845 c 3xe8
 1133 795 1125 741 1115 687 c 2
 1072 445 l 2
 1041 273 1027 183 1027 120 c 3
 1027 72 1035 40 1052 0 c 1
 902 0 l 1
 893 27 888 58 888 94 c 3xf0
 888 106 889 118 890 131 c 1
 794 52 623 -12 434 -12 c 3
 243 -12 121 73 121 230 c 3
 121 464 306 571 656 609 c 0
 875 633 982 652 986 675 c 2
 1000 757 l 2
 1002 769 1003 781 1003 792 c 3
 1003 899 905 961 724 961 c 3
 532 961 424 875 362 739 c 1xe8
502 112 m 3
 728 112 905 214 950 468 c 2
 967 566 l 1
 850 533 741 513 642 504 c 0
 475 489 250 436 250 260 c 3
 250 147 390 112 502 112 c 3
EndSplineSet
EndChar

StartChar: b
Encoding: 98 98 70
Width: 1248
VWidth: 2045
Flags: W
HStem: -12 124<492.708 813.421> 961 124<632.521 953.425> 1444 20G<425.48 556>
VStem: 1070 130<412.588 839.75>
DStem2: 169.237 -12 296.237 -12 0.173648 0.984808<32.2076 178.361 461.185 819.881 966.362 1498.68>
LayerCount: 2
Fore
SplineSet
648 112 m 259
 875 112 1070 342 1070 647 c 3
 1070 796 1012 961 797 961 c 256
 631 961 445 832 393 538 c 256
 386 496 382 455 382 417 c 0
 382 241 462 112 648 112 c 259
618 -12 m 3
 412 -12 328 129 323 142 c 1
 298 -2 l 1
 171 -2 l 1
 429 1464 l 1
 556 1464 l 1
 460 918 l 1
 558 1027 682 1085 833 1085 c 3
 1086 1085 1200 905 1200 677 c 3
 1200 272 937 -12 618 -12 c 3
EndSplineSet
EndChar

StartChar: c
Encoding: 99 99 71
Width: 1137
VWidth: 2045
Flags: W
HStem: -12 124<426.49 795.392> 961 124<567.828 925.06>
VStem: 177 128<235.827 668.987> 962 127<285.07 402> 1014 133<695 872.698>
LayerCount: 2
Fore
SplineSet
1089 402 m 1xf0
 1052 190 868 -12 592 -12 c 3
 349 -12 177 137 177 403 c 3
 177 823 453 1085 770 1085 c 3
 1067 1085 1147 916 1147 770 c 3
 1147 744 1144 718 1140 695 c 1
 1014 695 l 1xe8
 1014 839 967 961 754 961 c 3
 497 961 305 750 305 417 c 3
 305 211 424 112 596 112 c 3
 836 112 919 234 962 402 c 1
 1089 402 l 1xf0
EndSplineSet
EndChar

StartChar: d
Encoding: 100 100 72
Width: 1248
VWidth: 2045
Flags: W
HStem: -12 124<486.969 807.107> 961 124<618.117 940.374> 1445 20G<1200.48 1331>
VStem: 238 130<242.084 662.518>
DStem2: 943.884 -12 1070.88 -12 0.173648 0.984808<34.2384 158.339 303.941 677.869 946.339 1499.73>
LayerCount: 2
Fore
SplineSet
636 112 m 259
 771 112 980 192 1041 537 c 256
 1049 581 1052 622 1052 659 c 3
 1052 859 947 961 785 961 c 259
 499 961 368 649 368 430 c 3
 368 243 464 112 636 112 c 259
238 393 m 3
 238 708 415 1085 795 1085 c 3
 947 1085 1050 1029 1108 920 c 1
 1204 1465 l 1
 1331 1465 l 1
 1073 0 l 1
 946 0 l 1
 971 144 l 1
 962 131 838 -12 631 -12 c 3
 369 -12 238 143 238 393 c 3
EndSplineSet
EndChar

StartChar: e
Encoding: 101 101 73
Width: 1137
VWidth: 2045
Flags: W
HStem: -12 124<409.005 798.591> 494 124<325 1026.74> 961 124<557.566 919.384>
VStem: 152 138<223.308 485.155> 1027 129<619.839 854.328>
LayerCount: 2
Fore
SplineSet
761 1085 m 3
 1010 1085 1156 951 1156 673 c 3
 1156 619 1150 559 1139 494 c 1
 300 494 l 1
 294 459 290 423 290 389 c 3
 290 239 362 112 602 112 c 3
 720 112 869 148 973 329 c 1
 1104 329 l 1
 977 -6 645 -12 577 -12 c 3
 244 -12 152 176 152 375 c 3
 152 830 450 1085 761 1085 c 3
1024 618 m 1
 1026 640 1027 661 1027 680 c 3
 1027 912 879 961 742 961 c 3
 567 961 372 850 325 618 c 1
 1024 618 l 1
EndSplineSet
EndChar

StartChar: f
Encoding: 102 102 74
Width: 568
VWidth: 2045
Flags: W
HStem: 0 21G<177 307.526> 936 124<205 342 491 700> 1391 124<612.018 884.187>
DStem2: 177 0 304 0 0.173648 0.984808<22.0533 950.432 1098.42 1368.7>
LayerCount: 2
Fore
SplineSet
745 1391 m 3
 696 1391 544 1366 510 1170 c 2
 491 1060 l 1
 722 1060 l 1
 700 936 l 1
 469 936 l 1
 304 0 l 1
 177 0 l 1
 342 936 l 1
 183 936 l 1
 205 1060 l 1
 364 1060 l 1
 384 1175 l 2
 432 1447 620 1515 753 1515 c 3
 804 1515 854 1506 902 1488 c 1
 880 1363 l 1
 830 1382 786 1391 745 1391 c 3
EndSplineSet
EndChar

StartChar: g
Encoding: 103 103 75
Width: 1248
VWidth: 2045
Flags: W
HStem: -435 124<369.363 754.732> -12 124<480.519 799.684> 961 124<615.49 935.323> 1040 20G<1142.41 1273>
VStem: 167 132<-245.643 -74> 232 129<240.451 661.583>
DStem2: 882.73 -435 1008.85 -435 0.173648 0.984808<291.931 631.525 746.951 1090.46 1387.95 1518>
LayerCount: 2
Fore
SplineSet
634 112 m 259xe4
 759 112 994 198 1054 540 c 256
 1060 576 1063 610 1063 642 c 0
 1063 836 954 961 783 961 c 259
 535 961 361 706 361 431 c 3
 361 253 447 112 634 112 c 259xe4
549 -311 m 3
 829 -311 937 -141 985 145 c 2
 992 187 l 1
 892 55 751 -12 591 -12 c 3
 354 -12 232 171 232 406 c 3
 232 790 479 1085 807 1085 c 3xe4
 970 1085 1066 1027 1123 932 c 1
 1146 1060 l 1
 1273 1060 l 1
 1109 133 l 2
 1053 -185 949 -435 540 -435 c 3
 230 -435 167 -266 167 -141 c 3
 167 -116 170 -94 173 -74 c 1
 300 -74 l 17
 299 -86 299 -96 299 -107 c 3xd8
 299 -249 380 -311 549 -311 c 3
EndSplineSet
EndChar

StartChar: h
Encoding: 104 104 76
Width: 1137
VWidth: 2045
Flags: W
HStem: 0 21G<134 264.533 873 1003.52> 961 124<602.391 927.802> 1445 20G<388.478 519>
VStem: 998 128<467.93 892.096>
DStem2: 134 0 261 0 0.173648 0.984808<22.0533 827.24 935.99 1487.54> 873 0 1000 0 0.173648 0.984808<22.0533 760.139>
LayerCount: 2
Fore
SplineSet
990 666 m 2
 995 697 998 726 998 751 c 3
 998 916 889 961 764 961 c 3
 475 961 381 679 373 634 c 2
 261 0 l 1
 134 0 l 1
 392 1465 l 1
 519 1465 l 1
 420 900 l 1
 557 1070 737 1085 790 1085 c 3
 1053 1085 1126 925 1126 767 c 3
 1126 732 1123 698 1117 665 c 2
 1000 0 l 1
 873 0 l 1
 990 666 l 2
EndSplineSet
EndChar

StartChar: i
Encoding: 105 105 77
Width: 454
VWidth: 2045
Flags: W
HStem: 0 21G<159 289.528> 1040 20G<342.472 473> 1258 207<417 508>
VStem: 159 385
DStem2: 159 0 286 0 0.173648 0.984808<22.0533 1076.37 1299.49 1487.54>
LayerCount: 2
Fore
SplineSet
381 1258 m 1
 417 1465 l 1
 544 1465 l 1
 508 1258 l 1
 381 1258 l 1
159 0 m 1
 346 1060 l 1
 473 1060 l 1
 286 0 l 1
 159 0 l 1
EndSplineSet
EndChar

StartChar: j
Encoding: 106 106 78
Width: 454
VWidth: 2045
Flags: W
HStem: -429 124<-150.229 77.5933> 1040 20G<371.463 502> 1258 207<446 537>
DStem2: 111.877 -429 239.406 -429 0.173648 0.984808<183.677 1512.07 1735.19 1923.25>
LayerCount: 2
Fore
SplineSet
410 1258 m 1
 446 1465 l 1
 573 1465 l 1
 537 1258 l 1
 410 1258 l 1
305 -57 m 2
 271 -250 184 -429 -36 -429 c 3
 -77 -429 -120 -423 -167 -411 c 1
 -147 -296 l 1
 -91 -305 -71 -305 -51 -305 c 3
 5 -305 135 -298 178 -54 c 2
 375 1060 l 1
 502 1060 l 1
 305 -57 l 2
EndSplineSet
EndChar

StartChar: k
Encoding: 107 107 79
Width: 1022
VWidth: 2045
Flags: W
HStem: 0 21G<136 266.545 858.547 1015> 1040 20G<984.256 1161> 1445 20G<390.478 521>
DStem2: 136 0 263 0 0.173648 0.984808<22.0533 405.945 563.279 1487.54> 357 533 330 378 0.773003 0.634402<0 189.887 317.167 838.328> 668 654 569 574 0.468694 -0.88336<24.2681 671.925>
LayerCount: 2
Fore
SplineSet
136 0 m 1
 394 1465 l 1
 521 1465 l 1
 357 533 l 1
 1009 1060 l 1
 1161 1060 l 1
 668 654 l 1
 1015 0 l 1
 869 0 l 1
 569 574 l 1
 330 378 l 1
 263 0 l 1
 136 0 l 1
EndSplineSet
EndChar

StartChar: l
Encoding: 108 108 80
Width: 454
VWidth: 2045
Flags: W
HStem: 0 21G<162 292.522> 1445 20G<416.478 547>
VStem: 162 385
DStem2: 162 0 289 0 0.173648 0.984808<22.0533 1487.54>
LayerCount: 2
Fore
SplineSet
162 0 m 1
 420 1465 l 1
 547 1465 l 1
 289 0 l 1
 162 0 l 1
EndSplineSet
EndChar

StartChar: m
Encoding: 109 109 81
Width: 1702
VWidth: 2045
Flags: W
HStem: 0 21G<134 264.519 790 920.541 1446 1576.52> 961 124<609.953 879.886 1243.26 1528.64> 1042 20G<317.478 448>
VStem: 1575 136<652.372 915.112>
DStem2: 134 0 261 0 0.173648 0.984808<22.0533 830.27 905.404 1078.34> 790 0 917 0 0.173648 0.984808<22.0533 797.214> 1446 0 1573 0 0.173648 0.984808<22.0533 790.946>
LayerCount: 2
Fore
SplineSet
1372 961 m 3xd0
 1289 961 1075 892 1025 610 c 2
 917 0 l 1
 790 0 l 1
 910 683 l 2
 917 723 920 758 920 788 c 3
 920 926 848 961 744 961 c 3xd0
 618 961 415 875 362 574 c 2
 261 0 l 1
 134 0 l 1
 321 1062 l 1
 448 1062 l 1xb0
 414 870 l 1
 546 1033 657 1085 807 1085 c 3
 980 1085 1045 976 1059 876 c 1
 1194 1059 1333 1085 1434 1085 c 3
 1599 1085 1711 1014 1711 831 c 3
 1711 800 1708 766 1701 728 c 2
 1573 0 l 1
 1446 0 l 1
 1563 662 l 2
 1571 708 1575 748 1575 782 c 3
 1575 913 1514 961 1372 961 c 3xd0
EndSplineSet
EndChar

StartChar: n
Encoding: 110 110 82
Width: 1137
VWidth: 2045
Flags: W
HStem: 0 21G<134 264.534 873 1003.52> 961 124<590.665 922.746> 1043 20G<317.482 448>
VStem: 995 132<467.32 889.811>
DStem2: 134 0 261 0 0.173648 0.984808<22.0533 805.009 920.697 1079.32> 873 0 1000 0 0.173648 0.984808<22.0533 746.449>
LayerCount: 2
Fore
SplineSet
985 636 m 2xd0
 991 671 995 705 995 738 c 3
 995 864 940 961 764 961 c 3xd0
 498 961 387 711 355 532 c 2
 261 0 l 1
 134 0 l 1
 321 1063 l 1
 448 1063 l 1xb0
 417 885 l 1
 540 1062 676 1085 790 1085 c 3
 1063 1085 1127 921 1127 772 c 3
 1127 734 1123 698 1117 665 c 2
 1000 0 l 1
 873 0 l 1
 985 636 l 2xd0
EndSplineSet
EndChar

StartChar: o
Encoding: 111 111 83
Width: 1137
VWidth: 2045
Flags: W
HStem: -12 124<413.269 768.93> 961 124<548.481 903.293>
VStem: 148 130<246.121 663.305> 1038 129<411.631 826.445>
LayerCount: 2
Fore
SplineSet
278 430 m 3
 278 242 381 112 584 112 c 259
 847 112 1038 339 1038 641 c 3
 1038 830 936 961 733 961 c 259
 471 961 278 732 278 430 c 3
755 1085 m 3
 1016 1085 1167 934 1167 672 c 3
 1167 242 901 -12 562 -12 c 3
 300 -12 148 129 148 389 c 3
 148 818 418 1085 755 1085 c 3
EndSplineSet
EndChar

StartChar: p
Encoding: 112 112 84
Width: 1248
VWidth: 2045
Flags: W
HStem: -12 124<490.122 814.457> 961 124<615.203 936.906>
VStem: 1058 129<406.565 831.823>
DStem2: 93 -390 220 -390 0.173648 0.984808<22.0533 576.602 848.965 1216.62 1364.43 1487.72>
LayerCount: 2
Fore
SplineSet
788 961 m 259
 653 961 444 881 384 538 c 256
 377 496 373 457 373 421 c 0
 373 223 479 112 639 112 c 259
 941 112 1058 421 1058 651 c 3
 1058 870 923 961 788 961 c 259
629 -12 m 3
 478 -12 376 46 317 156 c 1
 220 -390 l 1
 93 -390 l 1
 352 1075 l 1
 479 1075 l 1
 453 932 l 1
 466 943 577 1085 792 1085 c 3
 1054 1085 1187 931 1187 681 c 3
 1187 299 962 -12 629 -12 c 3
EndSplineSet
EndChar

StartChar: q
Encoding: 113 113 85
Width: 1248
VWidth: 2045
Flags: W
HStem: -12 124<489.015 812.57> 961 124<638.04 949.666>
VStem: 244 131<232.193 663.224>
DStem2: 887 -390 1014 -390 0.173648 0.984808<22.0533 554.549 703.113 1065.85 1342.38 1487.72>
LayerCount: 2
Fore
SplineSet
794 961 m 259
 637 961 375 795 375 428 c 3
 375 280 431 112 645 112 c 259
 834 112 1003 266 1051 538 c 256
 1059 584 1063 626 1063 663 c 0
 1063 900 912 961 794 961 c 259
834 1085 m 3
 1049 1085 1111 943 1120 932 c 1
 1146 1075 l 1
 1273 1075 l 1
 1014 -390 l 1
 887 -390 l 1
 984 156 l 1
 887 46 762 -12 611 -12 c 3
 322 -12 244 202 244 395 c 3
 244 806 496 1085 834 1085 c 3
EndSplineSet
EndChar

StartChar: r
Encoding: 114 114 86
Width: 681
VWidth: 2045
Flags: W
HStem: 0 21G<133 263.525> 952 110<536.883 843.437>
DStem2: 133 0 260 0 0.173648 0.984808<22.0533 854.412 954.238 1078.34>
LayerCount: 2
Fore
SplineSet
422 918 m 1
 545 1054 649 1076 729 1076 c 3
 792 1076 845 1060 890 1027 c 1
 819 906 l 1
 762 937 718 952 686 952 c 3
 514 952 405 820 358 556 c 2
 260 0 l 1
 133 0 l 1
 320 1062 l 1
 447 1062 l 1
 422 918 l 1
EndSplineSet
EndChar

StartChar: s
Encoding: 115 115 87
Width: 1022
VWidth: 2045
Flags: W
HStem: -12 124<341.318 739.028> 492 124<427.293 792.009> 961 124<454.388 848.947>
VStem: 120 131<194.399 358> 224 134<679.203 880.15> 873 133<222.135 425.669> 914 129<764 899.462>
LayerCount: 2
Fore
SplineSet
661 1085 m 3xec
 989 1085 1043 916 1043 813 c 3
 1043 794 1041 777 1039 764 c 257
 912 764 l 257
 913 773 914 782 914 792 c 3
 914 863 869 961 674 961 c 259
 427 961 358 858 358 769 c 3xea
 358 700 410 624 626 616 c 256
 820 609 1006 558 1006 378 c 3
 1006 116 729 -12 532 -12 c 3
 357 -12 120 50 120 286 c 3
 120 308 122 332 127 358 c 257
 254 358 l 257
 252 345 251 331 251 319 c 3xf4
 251 189 354 112 516 112 c 3
 670 112 873 171 873 331 c 3
 873 428 769 486 608 492 c 256
 398 500 224 545 224 719 c 3
 224 965 466 1085 661 1085 c 3xec
EndSplineSet
EndChar

StartChar: t
Encoding: 116 116 88
Width: 568
VWidth: 2045
Flags: W
HStem: -12 124<347.573 552.974> 936 124<205 332 481 662>
VStem: 207 130<123.159 477.75>
DStem2: 165.046 -12 291.694 -12 0.173648 0.984808<246.785 962.589 1110.58 1466.33>
LayerCount: 2
Fore
SplineSet
410 -12 m 3
 269 -12 207 29 207 166 c 3
 207 206 212 254 222 311 c 2
 332 936 l 1
 183 936 l 1
 205 1060 l 1
 354 1060 l 1
 420 1432 l 1
 546 1432 l 1
 481 1060 l 1
 684 1060 l 1
 662 936 l 1
 459 936 l 1
 349 313 l 2
 341 269 337 234 337 207 c 3
 337 124 376 112 468 112 c 3
 495 112 525 118 559 124 c 1
 554 3 l 1
 505 -7 457 -12 410 -12 c 3
EndSplineSet
EndChar

StartChar: u
Encoding: 117 117 89
Width: 1137
VWidth: 2045
Flags: W
HStem: -12 124<391.475 729.711> 1040 20G<287.46 418 1025.48 1156>
VStem: 166 130<204.599 474.809>
DStem2: 101.53 -12 228.472 -12 0.173648 0.984808<380.362 1088.62> 839.884 -12 966.884 -12 0.173648 0.984808<34.2384 134.993 255.246 1088.55>
LayerCount: 2
Fore
SplineSet
863 121 m 1
 736 5 689 -12 535 -12 c 3
 246 -12 166 149 166 307 c 3
 166 338 169 369 174 399 c 2
 291 1060 l 1
 418 1060 l 1
 302 405 l 2
 298 381 296 359 296 339 c 3
 296 161 446 112 554 112 c 3
 755 112 888 259 913 400 c 2
 1029 1060 l 1
 1156 1060 l 1
 969 0 l 1
 842 0 l 1
 863 121 l 1
EndSplineSet
EndChar

StartChar: v
Encoding: 118 118 90
Width: 1022
VWidth: 2045
Flags: W
HStem: 0 21G<446.509 587.509> 1040 20G<213 353.415 1038.78 1186>
DStem2: 349 1060 213 1060 0.219074 -0.975708<0 918.587> 547 163 576 0 0.498778 0.86673<0 1028.34>
LayerCount: 2
Fore
SplineSet
451 0 m 1
 213 1060 l 1
 349 1060 l 1
 547 163 l 1
 1050 1060 l 1
 1186 1060 l 1
 576 0 l 1
 451 0 l 1
EndSplineSet
EndChar

StartChar: w
Encoding: 119 119 91
Width: 1477
VWidth: 2045
Flags: W
HStem: 0 21G<328.396 482.126 971.609 1125.06> 1040 20G<193 328.319 824.014 967.453 1465.1 1596>
DStem2: 326 1060 193 1060 0.129099 -0.991632<0 902.92> 430 163 473 0 0.409815 0.912169<0 825.222> 965 1060 870 870 0.121719 -0.992565<177.024 903.719> 1075 163 1116 0 0.412508 0.910954<0 981.716>
LayerCount: 2
Fore
SplineSet
870 870 m 17
 473 0 l 1
 331 0 l 1
 193 1060 l 1
 326 1060 l 1
 430 163 l 1
 833 1060 l 1
 965 1060 l 1
 1075 163 l 1
 1474 1060 l 1
 1596 1060 l 1
 1116 0 l 1
 974 0 l 9
 870 870 l 17
EndSplineSet
EndChar

StartChar: x
Encoding: 120 120 92
Width: 1022
VWidth: 2045
Flags: W
HStem: 0 21G<15 183.151 845.387 1007> 1040 20G<231 398.949 1001.15 1167>
DStem2: 15 0 165 0 0.68839 0.725341<103.258 103.258 882.403 1461.38> 388 1060 231 1060 0.50851 -0.861056<0 468.309 613.522 1151.21>
LayerCount: 2
Fore
SplineSet
15 0 m 1
 531 553 l 1
 231 1060 l 1
 388 1060 l 1
 613 649 l 1
 1021 1060 l 1
 1167 1060 l 1
 666 562 l 1
 1007 0 l 1
 857 0 l 1
 587 465 l 1
 165 0 l 1
 15 0 l 1
EndSplineSet
EndChar

StartChar: y
Encoding: 121 121 93
Width: 1022
VWidth: 2045
Flags: W
HStem: -435 124<60.293 306.873> 1040 20G<221 364.896 1054.31 1192>
DStem2: 361 1060 221 1060 0.196492 -0.980505<0 983.128> 549 95 575 -95 0.471183 0.882036<0 1094.29>
LayerCount: 2
Fore
SplineSet
53 -420 m 1
 61 -296 l 1
 94 -305 126 -311 158 -311 c 3
 287 -311 435 -214 435 -40 c 3
 435 -17 430 15 422 57 c 2
 221 1060 l 1
 361 1060 l 1
 549 95 l 1
 1065 1060 l 1
 1192 1060 l 1
 575 -95 l 2
 495 -245 367 -435 131 -435 c 3
 105 -435 80 -430 53 -420 c 1
EndSplineSet
EndChar

StartChar: z
Encoding: 122 122 94
Width: 1022
VWidth: 2045
Flags: W
HStem: 0 124<208 979> 936 124<248 956>
DStem2: 62 124 208 124 0.743949 0.668237<108.616 1207.7>
LayerCount: 2
Fore
SplineSet
40 0 m 1
 62 124 l 1
 956 936 l 1
 226 936 l 1
 248 1060 l 1
 1134 1060 l 1
 1112 936 l 1
 208 124 l 1
 1001 124 l 1
 979 0 l 1
 40 0 l 1
EndSplineSet
EndChar

StartChar: braceleft
Encoding: 123 123 95
Width: 681
VWidth: 2045
Flags: W
HStem: -430 124<382.902 558> 449 163<166 261.755> 1366 124<671.152 875>
VStem: 241 127<-289.228 130.094> 299 127<-66.2384 410.734>
LayerCount: 2
Fore
SplineSet
426 274 m 3xe8
 426 154 368 -104 368 -189 c 3
 368 -278 402 -306 498 -306 c 2
 580 -306 l 1
 558 -430 l 1
 503 -430 l 2
 300 -430 241 -359 241 -213 c 3xf0
 241 -94 299 149 299 274 c 3
 299 383 261 446 137 449 c 1
 166 612 l 1
 365 615 400 784 440 997 c 0
 493 1286 523 1490 823 1490 c 2
 897 1490 l 1
 875 1366 l 1
 793 1366 l 2
 637 1366 614 1268 581 1080 c 0
 526 768 500 629 277 530 c 1
 386 480 426 399 426 274 c 3xe8
EndSplineSet
EndChar

StartChar: bar
Encoding: 124 124 96
Width: 454
VWidth: 2045
Flags: W
HStem: -430 21G<85 215.533>
VStem: 85 466
DStem2: 85 -430 212 -430 0.173648 0.984808<22.0533 1948.71>
LayerCount: 2
Fore
SplineSet
85 -430 m 1
 424 1489 l 1
 551 1489 l 1
 212 -430 l 1
 85 -430 l 1
EndSplineSet
EndChar

StartChar: braceright
Encoding: 125 125 97
Width: 681
VWidth: 2045
Flags: W
HStem: -430 124<4 217.609> 449 163<618.597 713> 1366 124<321 495.021>
VStem: 452 128<651.384 1092.56> 512 127<944.813 1347.49>
LayerCount: 2
Fore
SplineSet
639 1272 m 3xe8
 639 1146 580 927 580 790 c 3
 580 684 616 614 742 612 c 1
 713 449 l 1
 517 444 482 295 436 48 c 0
 377 -275 337 -430 37 -430 c 2
 -18 -430 l 1
 4 -306 l 1
 86 -306 l 2
 246 -306 261 -227 315 80 c 0
 357 321 417 458 601 530 c 1
 489 589 452 662 452 777 c 3xf0
 452 879 512 1118 512 1246 c 3
 512 1325 482 1366 381 1366 c 2
 299 1366 l 1
 321 1490 l 1
 395 1490 l 2
 586 1490 639 1407 639 1272 c 3xe8
EndSplineSet
EndChar

StartChar: asciitilde
Encoding: 126 126 98
Width: 1350
VWidth: 2045
Flags: W
HStem: 565 124<896.124 1203.03> 698 124<401.631 723.677>
LayerCount: 2
Fore
SplineSet
554 698 m 3
 450 698 381 653 270 562 c 1
 295 704 l 1
 380 783 479 822 593 822 c 3
 786 822 921 689 1057 689 c 3
 1159 689 1277 771 1337 825 c 1
 1312 680 l 1
 1211 599 1125 565 1016 565 c 3
 815 565 722 698 554 698 c 3
EndSplineSet
EndChar

StartChar: exclamdown
Encoding: 161 161 100
Width: 681
VWidth: 2045
Flags: W
HStem: 0 21G<213 365.54> 1064 20G<435.348 516> 1257 193<462 591>
VStem: 440 76<1022.36 1084>
DStem2: 213 0 362 0 0.173648 0.984808<25.8736 821.464 1303.54 1471.21>
LayerCount: 2
Fore
SplineSet
442 452 m 1
 362 0 l 1
 213 0 l 1
 293 452 l 1
 440 1084 l 1
 516 1084 l 1
 442 452 l 1
591 1257 m 1
 428 1257 l 1
 462 1450 l 1
 625 1450 l 1
 591 1257 l 1
EndSplineSet
EndChar

StartChar: cent
Encoding: 162 162 101
Width: 1178
VWidth: 2045
Flags: W
HStem: -9 126<454.565 544 693 888.266> 976 125<592.998 718 868 1036.94> 1446 20G<800.493 931>
VStem: 196 130<248.398 668.755>
DStem2: 481 -369 608 -369 0.173648 0.984808<22.0533 365.471 512.476 1365.72 1517.82 1863.21>
LayerCount: 2
Fore
SplineSet
608 -369 m 1
 481 -369 l 1
 544 -9 l 1
 317 15 196 173 196 406 c 3
 196 784 445 1065 740 1101 c 1
 804 1466 l 1
 931 1466 l 1
 868 1104 l 1
 978 1100 1056 1082 1155 1024 c 1
 1126 863 l 1
 1116 863 l 1
 1075 931 975 970 846 979 c 1
 693 114 l 1
 821 124 925 164 1005 231 c 1
 1015 231 l 1
 987 71 l 1
 839 7 764 -8 671 -11 c 1
 608 -369 l 1
567 117 m 1
 718 976 l 1
 509 946 326 744 326 434 c 3
 326 257 414 141 567 117 c 1
EndSplineSet
EndChar

StartChar: sterling
Encoding: 163 163 102
Width: 1115
VWidth: 2045
Flags: W
HStem: 0 160<116 205.684> 0 124<250 1031> 620 124<261 431 580 955> 1305 165<1148.9 1230> 1392 124<801.449 1153.08>
DStem2: 321.677 0 449.491 0 0.173648 0.984808<365.648 629.565 777.554 1328.01>
LayerCount: 2
Fore
SplineSet
547 553 m 2x28
 517 371 381 204 252 134 c 1
 250 124 l 1
 1053 124 l 1
 1031 0 l 1
 88 0 l 1x68
 116 160 l 1
 288 209 393 403 431 620 c 1
 239 620 l 1
 261 744 l 1
 453 744 l 1
 511 1071 l 2
 559 1341 726 1516 974 1516 c 3xa8
 1062 1516 1109 1512 1259 1470 c 1
 1230 1305 l 1
 1221 1305 l 1x30
 1158 1352 1075 1392 971 1392 c 3
 873 1392 688 1355 642 1093 c 2
 580 744 l 1
 977 744 l 1
 955 620 l 1
 558 620 l 1
 547 553 l 2x28
EndSplineSet
EndChar

StartChar: currency
Encoding: 164 164 103
Width: 1115
VWidth: 2045
Flags: W
HStem: 326 124<518.572 778.053> 873 124<575.116 834.94>
VStem: 338 128<501.316 763.069> 888 128<561.59 821.711>
DStem2: 112 272 200 163 0.760494 0.649345<0 343.566 1022.53 1363.68> 375 1157 249 1051 0.636318 -0.771427<1.59515 288.131 862.822 1145.95>
LayerCount: 2
Fore
SplineSet
1016 718 m 3
 1016 617 976 547 929 486 c 1
 1103 272 l 1
 979 166 l 1
 801 378 l 1
 746 348 687 326 617 326 c 3
 547 326 498 349 453 379 c 1
 200 163 l 1
 112 272 l 1
 363 486 l 1
 348 522 338 561 338 606 c 3
 338 707 377 773 424 834 c 1
 249 1051 l 1
 375 1157 l 1
 552 942 l 1
 607 972 666 997 736 997 c 3
 806 997 856 976 901 946 c 1
 1151 1157 l 1
 1240 1051 l 1
 991 837 l 1
 1006 801 1016 763 1016 718 c 3
714 873 m 3
 587 873 466 766 466 621 c 3
 466 522 534 450 639 450 c 3
 766 450 888 557 888 702 c 3
 888 801 819 873 714 873 c 3
EndSplineSet
EndChar

StartChar: yen
Encoding: 165 165 104
Width: 1115
VWidth: 2045
Flags: W
HStem: 0 21G<495 625.535> 447 124<226 574 720 1070>
DStem2: 528 1489 350 1489 0.303487 -0.952836<0 665.049> 495 0 622 0 0.173648 0.984808<22.0533 453.927 601.396 667.856> 710 849 738 677 0.562199 0.827002<0 759.783>
LayerCount: 2
Fore
SplineSet
1290 1489 m 1
 738 677 l 1
 720 571 l 1
 1092 571 l 1
 1070 447 l 1
 701 447 l 1
 622 0 l 1
 495 0 l 1
 574 447 l 1
 204 447 l 1
 226 571 l 1
 600 571 l 1
 615 657 l 1
 350 1489 l 1
 528 1489 l 1
 710 849 l 1
 1120 1489 l 1
 1290 1489 l 1
EndSplineSet
EndChar

StartChar: brokenbar
Encoding: 166 166 105
Width: 780
VWidth: 2045
Flags: W
VStem: 259 470
DStem2: 259 -393 386 -393 0.173648 0.984808<22.0533 810.187 1190.82 1978.95>
LayerCount: 2
Fore
SplineSet
589 758 m 1
 462 758 l 1
 602 1556 l 1
 729 1556 l 1
 589 758 l 1
386 -393 m 1
 259 -393 l 1
 399 405 l 1
 526 405 l 1
 386 -393 l 1
EndSplineSet
EndChar

StartChar: section
Encoding: 167 167 106
Width: 1115
VWidth: 2045
Flags: W
HStem: -378 136<240.512 666.728> 1374 136<644.747 1083.62>
VStem: 228 155<411.186 644.901> 366 153<1025.27 1260.15> 798 152<-128.774 106.501> 933 155<486.579 718.46>
DStem2: 546 348 500 206 0.949224 -0.3146<-160.377 215.062> 684 966 595 842 0.953994 -0.299827<-84.4123 289.54>
LayerCount: 2
Fore
SplineSet
595 842 m 1xe4
 507 794 383 692 383 526 c 3
 383 419 456 378 546 348 c 2
 721 290 l 1
 878 389 933 479 933 606 c 3
 933 680 895 747 770 787 c 2
 595 842 l 1xe4
1088 665 m 3
 1088 429 891 322 806 266 c 1
 872 227 950 183 950 57 c 3
 950 -138 808 -378 422 -378 c 3
 307 -378 225 -360 135 -325 c 1
 163 -162 l 1
 311 -240 418 -242 461 -242 c 3
 593 -242 798 -190 798 6 c 3
 798 98 731 137 627 168 c 2
 500 206 l 2
 354 250 228 307 228 467 c 3xe8
 228 614 303 745 512 865 c 1
 450 905 366 953 366 1082 c 3
 366 1275 500 1510 894 1510 c 3
 983 1510 1077 1497 1182 1461 c 1
 1153 1297 l 1
 1063 1345 975 1374 849 1374 c 3
 726 1374 519 1327 519 1129 c 3xd0
 519 1040 576 997 684 966 c 2
 816 928 l 2
 981 880 1088 811 1088 665 c 3
EndSplineSet
EndChar

StartChar: dieresis
Encoding: 168 168 107
Width: 1115
VWidth: 2045
Flags: W
HStem: 1315 171<527 674 939 1086>
VStem: 497 619
LayerCount: 2
Fore
SplineSet
1086 1315 m 1
 909 1315 l 1
 939 1486 l 1
 1116 1486 l 1
 1086 1315 l 1
674 1315 m 1
 497 1315 l 1
 527 1486 l 1
 704 1486 l 1
 674 1315 l 1
EndSplineSet
EndChar

StartChar: copyright
Encoding: 169 169 108
Width: 1898
VWidth: 2045
Flags: W
HStem: -209 111<684.085 1185.5> 180 124<847.265 1219.12> 911 158<1365.14 1434> 1018 124<979.732 1332.28> 1408 111<945.316 1446.67>
VStem: 186 119<283.668 779.091> 635 128<387.347 783.164> 1824 119<531.546 1026.6>
LayerCount: 2
Fore
SplineSet
913 -209 m 3xcf
 479 -209 186 99 186 502 c 3
 186 1078 701 1519 1218 1519 c 3
 1652 1519 1943 1211 1943 809 c 3
 1943 233 1430 -209 913 -209 c 3xcf
1824 794 m 3
 1824 1158 1557 1408 1198 1408 c 3
 769 1408 305 1044 305 516 c 3
 305 152 574 -98 933 -98 c 3
 1362 -98 1824 267 1824 794 c 3
1039 304 m 3
 1169 304 1301 389 1328 411 c 1
 1345 411 l 1
 1318 255 l 1
 1177 200 1121 180 1014 180 c 3
 835 180 635 254 635 532 c 3
 635 903 874 1142 1183 1142 c 3xdf
 1299 1142 1397 1107 1461 1069 c 1
 1434 911 l 1
 1417 911 l 1xef
 1375 957 1273 1018 1165 1018 c 3xdf
 977 1018 763 905 763 546 c 3
 763 339 897 304 1039 304 c 3
EndSplineSet
EndChar

StartChar: ordfeminine
Encoding: 170 170 109
Width: 1007
VWidth: 2045
Flags: W
HStem: 541 124<415.979 739.945> 1395 124<491.247 931.771>
VStem: 255 130<700.124 949.431> 965 126<1184 1358.55>
DStem2: 841.768 541 968.768 541 0.173648 0.984808<46.4236 117.751 212.132 523.829 644.549 738.121>
LayerCount: 2
Fore
SplineSet
750 1519 m 3
 999 1519 1091 1425 1091 1274 c 3
 1091 1249 1088 1221 1083 1193 c 2
 973 565 l 1
 846 565 l 1
 862 657 l 1
 796 613 709 541 497 541 c 3
 358 541 255 631 255 779 c 3
 255 1112 542 1167 955 1184 c 1
 960 1215 965 1244 965 1270 c 3
 965 1345 923 1395 728 1395 c 3
 672 1395 585 1385 439 1333 c 1
 424 1333 l 1
 449 1474 l 1
 449 1474 635 1519 750 1519 c 3
577 665 m 3
 657 665 740 668 887 802 c 1
 932 1057 l 1
 740 1045 l 2
 430 1026 385 937 385 794 c 3
 385 716 427 665 577 665 c 3
EndSplineSet
EndChar

StartChar: guillemotleft
Encoding: 171 171 110
Width: 1170
VWidth: 2045
Flags: W
DStem2: 397 652 211 607 0.695717 -0.718316<0 405.29> 227 698 397 652 0.797548 0.603256<107.833 590.651> 841 652 663 610 0.702002 -0.712175<0 383.262> 678 695 841 652 0.802568 0.596561<105.166 560.368>
LayerCount: 2
Fore
SplineSet
1077 190 m 1
 663 610 l 1
 678 695 l 1
 1239 1112 l 1
 1206 924 l 1
 841 652 l 1
 1110 379 l 1
 1077 190 l 1
642 162 m 1
 211 607 l 1
 227 698 l 1
 814 1142 l 1
 780 946 l 1
 397 652 l 1
 676 358 l 1
 642 162 l 1
EndSplineSet
EndChar

StartChar: logicalnot
Encoding: 172 172 111
Width: 1486
VWidth: 2045
Flags: W
HStem: 625 136<291 1286>
DStem2: 1186 57 1332 57 0.173648 0.984808<25.3526 576.736>
LayerCount: 2
Fore
SplineSet
1332 57 m 1
 1186 57 l 1
 1286 625 l 1
 267 625 l 1
 291 761 l 1
 1456 761 l 1
 1332 57 l 1
EndSplineSet
EndChar

StartChar: registered
Encoding: 174 174 113
Width: 1898
VWidth: 2045
Flags: W
HStem: -209 111<684.085 1193.13> 569 124<898 1092> 1006 124<953 1308.57> 1408 111<945.669 1433.16>
VStem: 186 119<283.214 778.277> 1331 131<769.967 982.055> 1824 119<539.135 1023.31>
DStem2: 612.414 -209 739.414 -209 0.173648 0.984808<451.579 811.952 937.888 1255.68> 1209 615 1092 569 0.566965 -0.823742<0 389.852>
LayerCount: 2
Fore
SplineSet
913 -209 m 3
 479 -209 186 98 186 501 c 3
 186 1078 703 1519 1218 1519 c 3
 1659 1519 1943 1206 1943 808 c 3
 1943 208 1406 -209 913 -209 c 3
1824 792 m 3
 1824 1150 1563 1408 1198 1408 c 3
 769 1408 305 1041 305 516 c 3
 305 152 574 -98 933 -98 c 3
 1364 -98 1824 269 1824 792 c 3
1462 932 m 3
 1462 752 1328 659 1209 615 c 1
 1485 214 l 1
 1314 214 l 1
 1092 569 l 1
 876 569 l 1
 814 214 l 1
 687 214 l 1
 848 1130 l 1
 1158 1130 l 2
 1253 1130 1462 1119 1462 932 c 3
1090 693 m 2
 1256 693 1331 771 1331 901 c 3
 1331 1006 1225 1006 1163 1006 c 2
 953 1006 l 1
 898 693 l 1
 1090 693 l 2
EndSplineSet
EndChar

StartChar: macron
Encoding: 175 175 114
Width: 1115
VWidth: 2045
Flags: W
HStem: 1658 130<300 1425>
LayerCount: 2
Fore
SplineSet
1425 1658 m 1
 277 1658 l 1
 300 1788 l 1
 1448 1788 l 1
 1425 1658 l 1
EndSplineSet
EndChar

StartChar: degree
Encoding: 176 176 115
Width: 961
VWidth: 2045
Flags: W
HStem: 755 124<500.552 789.71> 1389 124<574.373 863.666>
VStem: 295 129<956.621 1240.42> 940 129<1026.89 1312.41>
LayerCount: 2
Fore
SplineSet
749 1513 m 3
 949 1513 1069 1379 1069 1205 c 3
 1069 951 853 755 615 755 c 3
 429 755 295 879 295 1063 c 3
 295 1319 507 1513 749 1513 c 3
637 879 m 3
 802 879 940 1019 940 1180 c 3
 940 1294 864 1389 727 1389 c 3
 552 1389 424 1244 424 1088 c 3
 424 971 506 879 637 879 c 3
EndSplineSet
EndChar

StartChar: plusminus
Encoding: 177 177 116
Width: 1486
VWidth: 2045
Flags: W
HStem: 159 136<214 724 870 1354> 739 136<316 802 972 1456>
DStem2: 700.02 159 846.02 159 0.173648 0.984808<163.451 588.897 752.351 1262.14>
LayerCount: 2
Fore
SplineSet
1354 159 m 1
 190 159 l 1
 214 295 l 1
 724 295 l 1
 802 739 l 1
 292 739 l 1
 316 875 l 1
 826 875 l 1
 919 1402 l 1
 1065 1402 l 1
 972 875 l 1
 1480 875 l 1
 1456 739 l 1
 948 739 l 1
 870 295 l 1
 1378 295 l 1
 1354 159 l 1
EndSplineSet
EndChar

StartChar: uni00B2
Encoding: 178 178 117
Width: 1007
Flags: W
HStem: 566 124<486 919> 1394 124<627.743 876.889>
VStem: 420 127<1210 1314.19> 912 129<1142.93 1357.34>
LayerCount: 2
Fore
SplineSet
762 1394 m 3
 688 1394 573 1358 547 1210 c 1
 420 1210 l 1
 453 1397 595 1518 786 1518 c 3
 935 1518 1041 1438 1041 1292 c 3
 1041 1069 849 966 694 851 c 0
 627 801 539 730 486 690 c 1
 941 690 l 1
 919 566 l 1
 285 566 l 1
 309 702 435 804 596 921 c 0
 757 1039 912 1125 912 1262 c 3
 912 1345 842 1394 762 1394 c 3
EndSplineSet
EndChar

StartChar: uni00B3
Encoding: 179 179 118
Width: 1007
Flags: W
HStem: 559 124<492.859 753.781> 1015 104<602.656 776.862> 1394 124<610.769 848.339>
VStem: 330 129<717.122 863.157> 840 130<767.25 985.774> 867 128<1199.45 1371.04>
LayerCount: 2
Fore
SplineSet
644 1119 m 3xf8
 716 1119 867 1188 867 1291 c 3
 867 1350 825 1394 734 1394 c 3
 623 1394 570 1328 539 1230 c 1
 412 1230 l 1
 441 1395 585 1518 753 1518 c 3
 888 1518 995 1435 995 1308 c 3xf4
 995 1201 930 1125 857 1079 c 1
 930 1049 970 995 970 914 c 3
 970 702 779 559 589 559 c 3
 432 559 330 655 330 802 c 3
 330 822 332 843 336 864 c 1
 463 864 l 1
 460 849 459 835 459 822 c 3
 459 740 507 683 610 683 c 3
 742 683 840 772 840 894 c 3
 840 969 790 1015 684 1015 c 3
 652 1015 612 1007 580 998 c 1
 602 1122 l 1
 616 1121 630 1119 644 1119 c 3xf8
EndSplineSet
EndChar

StartChar: acute
Encoding: 180 180 119
Width: 1115
VWidth: 2045
Flags: W
HStem: 1302 373
VStem: 702 438
LayerCount: 2
Fore
SplineSet
1140 1675 m 1
 804 1302 l 1
 702 1302 l 1
 947 1675 l 1
 1140 1675 l 1
EndSplineSet
EndChar

StartChar: mu
Encoding: 181 181 120
Width: 1160
VWidth: 2045
Flags: W
HStem: -12 124<448.699 759.975> 1040 20G<319.479 450 1081.46 1212>
DStem2: 64 -411 191 -411 0.173648 0.984808<22.0533 556.038 682.19 1493.63> 825.53 -411 952.53 -411 0.173648 0.984808<439.394 522.886 646.682 1493.71>
LayerCount: 2
Fore
SplineSet
596 112 m 3
 686 112 842 183 946 275 c 1
 1085 1060 l 1
 1212 1060 l 1
 1025 0 l 1
 898 0 l 1
 916 104 l 1
 779 -8 644 -12 574 -12 c 3
 477 -12 360 8 283 115 c 1
 191 -411 l 1
 64 -411 l 1
 323 1060 l 1
 450 1060 l 1
 311 275 l 1
 363 199 489 112 596 112 c 3
EndSplineSet
EndChar

StartChar: paragraph
Encoding: 182 182 121
Width: 1115
VWidth: 2045
Flags: W
HStem: 1365 124<895 1094>
DStem2: 462 -362 590 -362 0.173648 0.984808<22.227 968.68> 789 -362 916 -362 0.173648 0.984808<22.0533 1753.73>
LayerCount: 2
Fore
SplineSet
834 1489 m 2
 1243 1489 l 1
 916 -362 l 1
 789 -362 l 1
 1094 1365 l 1
 895 1365 l 1
 590 -362 l 1
 462 -362 l 1
 630 592 l 1
 385 599 234 730 234 951 c 3
 234 1310 493 1489 834 1489 c 2
EndSplineSet
EndChar

StartChar: periodcentered
Encoding: 183 183 122
Width: 722
VWidth: 2045
Flags: W
HStem: 831 285<439 629>
VStem: 389 290
LayerCount: 2
Fore
SplineSet
629 831 m 1
 389 831 l 1
 439 1116 l 1
 679 1116 l 1
 629 831 l 1
EndSplineSet
EndChar

StartChar: cedilla
Encoding: 184 184 123
Width: 1115
VWidth: 2045
Flags: W
HStem: -435 124<239.703 547.076> -411 133<241 381.064>
VStem: 645 124<-190.358 20>
LayerCount: 2
Fore
SplineSet
384 -311 m 3xa0
 523 -311 597 -266 625 -107 c 0
 646 11 632 -56 645 20 c 1
 769 20 l 1
 769 6 759 -66 755 -89 c 0
 708 -356 515 -435 390 -435 c 3xa0
 319 -435 250 -421 218 -411 c 1
 241 -278 l 1
 250 -278 l 1x60
 281 -295 321 -311 384 -311 c 3xa0
EndSplineSet
EndChar

StartChar: uni0E01
Encoding: 3585 3585 124
Width: 1248
VWidth: 2045
Flags: W
HStem: 0 21G<250 366.531 985 1101.53> 776 112<500 613> 1154 112<618.815 975.426>
VStem: 1128 114<569.875 1005.39>
DStem2: 250 0 363 0 0.173648 0.984808<19.6222 788.001> 985 0 1098 0 0.173648 0.984808<19.6222 853.069>
LayerCount: 2
Fore
SplineSet
1122 776 m 2
 1126 798 1128 821 1128 842 c 0
 1128 1022 991 1154 807 1154 c 256
 690 1154 506 1098 396 888 c 9
 633 888 l 1
 613 776 l 1
 500 776 l 17
 363 0 l 17
 250 0 l 9
 387 776 l 9
 247 776 l 1
 295 1051 558 1266 827 1266 c 256
 1068 1266 1242 1093 1242 861 c 0
 1242 833 1240 805 1235 776 c 2
 1098 0 l 1
 985 0 l 1
 1122 776 l 2
EndSplineSet
EndChar

StartChar: uni0E02
Encoding: 3586 3586 125
Width: 1173
VWidth: 2045
Flags: W
HStem: 0 112<368 480 593 932> 761 112<388.432 536.481> 1154 112<553.586 731.362>
VStem: 268 115<877.747 1020.39> 555 115<435.9 637.411 893.034 1037> 782 114<849.688 1105.31>
DStem2: 460.251 0 573.251 0 0.173648 0.984808<133.35 719.11> 912.251 0 1025 0 0.173648 0.984808<113.728 1273.28>
LayerCount: 2
Fore
SplineSet
670 990 m 0
 670 861 552 761 434 761 c 0
 333 761 268 832 268 922 c 0
 268 1114 462 1266 635 1266 c 0
 792 1266 896 1155 896 1010 c 0
 896 766 702 731 663 510 c 2
 593 112 l 17
 932 112 l 25
 1133 1254 l 1
 1246 1254 l 1
 1025 0 l 9
 348 0 l 1
 368 112 l 1
 480 112 l 25
 550 510 l 2
 598 779 782 794 782 993 c 0
 782 1085 714 1154 615 1154 c 0
 594 1154 574 1151 553 1145 c 1
 603 1133 670 1079 670 990 c 0
455 873 m 0
 501 873 555 913 555 972 c 0
 555 1010 529 1042 485 1042 c 0
 433 1042 383 998 383 944 c 0
 383 905 411 873 455 873 c 0
EndSplineSet
EndChar

StartChar: uni0E03
Encoding: 3587 3587 126
Width: 1248
VWidth: 2045
Flags: W
HStem: 0 112<441 554 667 1005> 644 112<391.848 540.573> 924 112<404.293 552.883> 1246 8G<486 592.398 797.337 870.5 1202.48 1319>
VStem: 242 144<761.239 976.647> 558 115<773.055 919.342> 864 114<858.98 1132.02>
DStem2: 534.251 0 647.251 0 0.173648 0.984808<133.35 714.41> 985.251 0 1098 0 0.173648 0.984808<113.728 1273.28>
LayerCount: 2
Fore
SplineSet
673 874 m 0
 673 743 555 644 439 644 c 0
 355 644 242 688 242 854 c 0
 242 1093 409 1228 563 1266 c 1
 685 1183 l 1
 833 1266 l 1
 908 1238 978 1144 978 1021 c 0
 978 770 776 733 737 510 c 2
 667 112 l 1
 1005 112 l 1
 1206 1254 l 25
 1319 1254 l 17
 1098 0 l 1
 421 0 l 1
 441 112 l 1
 554 112 l 1
 624 510 l 2
 674 794 864 786 864 1013 c 0
 864 1095 827 1131 813 1136 c 1
 661 1051 l 1
 527 1142 l 17
 507 1138 413 1088 372 988 c 1
 427 1020 472 1036 508 1036 c 0
 607 1036 673 966 673 874 c 0
458 756 m 0
 510 756 558 798 558 854 c 0
 558 895 528 924 488 924 c 0
 435 924 386 879 386 824 c 0
 386 782 419 756 458 756 c 0
EndSplineSet
EndChar

StartChar: uni0E04
Encoding: 3588 3588 127
Width: 1301
VWidth: 2045
Flags: W
HStem: 0 21G<171 294.504 1018 1134.53> 549 112<698.935 846.38> 827 112<711.798 859.579> 1154 112<672.66 1019.79>
VStem: 865 115<679.169 821.089> 1163 114<710.625 1010.83>
DStem2: 171 0 283.865 0 0.173648 0.984808<19.6222 102.535 314.073 1001.51> 1018 0 1131 0 0.173648 0.984808<19.6222 866.218>
LayerCount: 2
Fore
SplineSet
980 778 m 0
 980 642 857 549 745 549 c 0
 656 549 616 601 607 615 c 9
 284 0 l 9
 171 0 l 17
 310 788 l 2
 357 1056 611 1266 874 1266 c 0
 1109 1266 1277 1098 1277 872 c 0
 1277 845 1275 817 1270 788 c 2
 1131 0 l 1
 1018 0 l 1
 1157 788 l 2
 1161 811 1163 834 1163 855 c 0
 1163 1033 1028 1154 854 1154 c 0
 659 1154 461 1002 423 788 c 2
 335 290 l 17
 607 816 l 18
 627 855 703 939 814 939 c 0
 913 939 980 870 980 778 c 0
765 661 m 0
 812 661 865 699 865 758 c 0
 865 797 838 827 794 827 c 0
 743 827 694 784 694 729 c 0
 694 691 722 661 765 661 c 0
EndSplineSet
EndChar

StartChar: uni0E05
Encoding: 3589 3589 128
Width: 1301
VWidth: 2045
Flags: W
HStem: 0 21G<175 298.709 1018 1134.54> 521 112<697.386 845.624> 803 112<711.62 857.915> 1246 20G<589.5 669.55 1073.83 1148>
VStem: 864 115<651.48 798.519> 1187 115<860.278 1104.57>
DStem2: 175 0 287.865 0 0.173648 0.984808<19.6222 100.297 314.073 1119.37> 642 1266 610 1142 0.810187 -0.586172<27.1508 257.031> 850 1115 827 985 0.864475 0.502676<0 245.479> 1018 0 1131 0 0.173648 0.984808<19.6222 995.826>
LayerCount: 2
Fore
SplineSet
979 753 m 0
 979 622 860 521 744 521 c 0
 650 521 620 581 605 592 c 9
 288 0 l 1
 175 0 l 9
 341 939 l 2
 376 1135 537 1238 642 1266 c 9
 850 1115 l 1
 1108 1266 l 17
 1188 1242 1302 1157 1302 1001 c 0
 1302 981 1301 961 1297 939 c 2
 1131 0 l 1
 1018 0 l 1
 1184 939 l 2
 1187 954 1187 969 1187 982 c 0
 1187 1076 1128 1125 1097 1142 c 9
 827 985 l 1
 610 1142 l 17
 563 1121 475 1060 454 939 c 2
 339 290 l 17
 606 791 l 18
 628 831 702 915 813 915 c 0
 909 915 979 846 979 753 c 0
764 633 m 0
 817 633 864 679 864 733 c 0
 864 774 834 803 794 803 c 0
 741 803 693 757 693 703 c 0
 693 662 724 633 764 633 c 0
EndSplineSet
EndChar

StartChar: uni0E06
Encoding: 3590 3590 129
Width: 1519
VWidth: 2045
Flags: W
HStem: -12 112<447.399 595.9> 268 112<461.266 611.837> 645 113<440.803 589.174> 926 110<453.599 601.307> 1246 8G<534.5 641.157 846.096 919 1452.48 1569>
VStem: 291 144<765.129 976.703> 328 115<104.964 248.187> 607 114<776.186 920.523> 913 115<854.787 1132.75>
DStem2: 580.23 -12 692.988 -12 0.173648 0.984808<378.754 727.919> 751 317 731 206 0.92562 -0.378455<23.4961 544.096> 1233.14 -12 1345.88 -12 0.173648 0.984808<125.913 1285.47>
LayerCount: 2
Fore
SplineSet
508 758 m 0xfd80
 560 758 607 801 607 857 c 0
 607 895 581 926 537 926 c 0
 481 926 435 879 435 826 c 0
 435 785 467 758 508 758 c 0xfd80
328 150 m 0xfb80
 328 280 447 380 564 380 c 0
 595 380 622 373 646 361 c 9
 672 510 l 2
 722 794 913 780 913 1012 c 0
 913 1096 876 1131 862 1136 c 1
 709 1051 l 1
 576 1142 l 17
 556 1138 462 1088 421 988 c 1
 476 1020 521 1036 557 1036 c 0
 653 1036 721 966 721 874 c 0
 721 743 602 645 488 645 c 0
 404 645 291 688 291 854 c 0xfd80
 291 1090 457 1228 612 1266 c 1
 733 1183 l 1
 882 1266 l 1
 956 1237 1028 1147 1028 1022 c 0
 1028 774 824 734 785 510 c 2
 751 317 l 25
 1255 112 l 9
 1456 1254 l 1
 1569 1254 l 1
 1348 0 l 1
 1235 0 l 1
 731 206 l 17
 697 15 550 -12 496 -12 c 0
 396 -12 328 58 328 150 c 0xfb80
515 100 m 0
 567 100 616 145 616 200 c 0
 616 241 584 268 544 268 c 0
 493 268 443 226 443 170 c 0xfb80
 443 129 475 100 515 100 c 0
EndSplineSet
EndChar

StartChar: uni0E07
Encoding: 3591 3591 130
Width: 977
VWidth: 2045
Flags: W
HStem: 0 21G<674.128 806.517> 873 112<714.502 845.897> 1154 112<726.998 875.655>
VStem: 593 115<990.843 1133.73> 880 115<1011.2 1148.53>
DStem2: 290 704 194 625 0.621633 -0.783308<2.20454 692.179> 689.788 0 803 0 0.173648 0.984808<162.468 904.763>
LayerCount: 2
Fore
SplineSet
593 1034 m 0
 593 1167 712 1266 829 1266 c 0
 924 1266 995 1200 995 1105 c 0
 995 1093 993 1081 991 1069 c 2
 803 0 l 1
 690 0 l 9
 194 625 l 1
 290 704 l 1
 718 160 l 17
 847 891 l 1
 819 879 790 873 759 873 c 0
 664 873 593 939 593 1034 c 0
810 1154 m 0
 758 1154 708 1110 708 1056 c 0
 708 1017 737 985 781 985 c 0
 832 985 880 1030 880 1085 c 0
 880 1123 853 1154 810 1154 c 0
EndSplineSet
EndChar

StartChar: uni0E08
Encoding: 3592 3592 131
Width: 1202
VWidth: 2045
Flags: W
HStem: 0 21G<800.502 921.639> 522 112<613.844 763.56> 801 112<625.985 776.759> 1154 112<588.753 942.778>
VStem: 211 113<776 893.58> 495 114<638.778 781.891> 801 113<281 562> 1092 115<654.484 1005.9>
DStem2: 909 281 914 0 0.356813 0.934176<0 587.076>
LayerCount: 2
Fore
SplineSet
495 684 m 0
 495 816 617 913 732 913 c 0
 833 913 893 837 896 755 c 2
 909 281 l 25
 1064 686 l 2
 1077 720 1092 790 1092 842 c 0
 1092 1020 959 1154 771 1154 c 256
 561 1154 361 985 324 776 c 9
 211 776 l 17
 256 1032 507 1266 791 1266 c 256
 1044 1266 1207 1093 1207 865 c 0
 1207 791 1191 723 1168 665 c 10
 914 0 l 1
 801 0 l 1
 787 562 l 17
 748 536 707 522 662 522 c 0
 564 522 495 592 495 684 c 0
680 634 m 0
 732 634 781 677 781 733 c 0
 781 771 754 801 711 801 c 0
 658 801 609 758 609 703 c 0
 609 665 637 634 680 634 c 0
EndSplineSet
EndChar

StartChar: uni0E09
Encoding: 3593 3593 132
Width: 1293
VWidth: 2045
Flags: W
HStem: -12 112<996.579 1142.35> 268 104<1008.39 1054> 396 112<396.42 528.693> 674 112<408.991 557.98> 1154 112<622.948 980.914>
VStem: 276 115<514.386 654.431> 562 115<441.595 668.793> 876 115<105.365 171.621> 1131 114<561.375 1006.92> 1162 115<118.682 262.537>
DStem2: 454.884 -12 567.491 -12 0.173648 0.984808<160.698 432.572> 592 127 570 0 0.873279 0.48722<0 270.81> 986.29 -12 1099.29 -12 0.173648 0.984808<396.504 865.184>
LayerCount: 2
Fore
SplineSet
276 557 m 0xff40
 276 687 395 786 511 786 c 0
 618 786 677 710 677 624 c 0
 677 613 676 602 674 591 c 2
 592 127 l 1
 1015 363 l 2
 1027 369 1040 372 1054 372 c 9
 1125 776 l 2
 1129 799 1131 821 1131 842 c 0
 1131 1021 996 1154 808 1154 c 264
 619 1154 454 1019 392 876 c 9
 290 908 l 17
 371 1092 583 1266 828 1266 c 272
 1085 1266 1245 1081 1245 859 c 0xff80
 1245 832 1243 804 1238 776 c 2
 1167 372 l 17
 1193 364 1277 325 1277 222 c 0
 1277 89 1162 -12 1044 -12 c 0
 939 -12 876 64 876 149 c 0
 876 157 876 164 877 172 c 1
 570 0 l 1
 457 0 l 1
 530 414 l 17
 503 402 473 396 442 396 c 0
 343 396 276 466 276 557 c 0xff40
464 508 m 0
 515 508 562 550 562 605 c 0
 562 644 536 674 493 674 c 0
 440 674 391 631 391 575 c 0
 391 534 423 508 464 508 c 0
1062 100 m 0
 1115 100 1162 145 1162 199 c 0xff40
 1162 238 1134 268 1091 268 c 0
 1039 268 991 225 991 169 c 0
 991 128 1022 100 1062 100 c 0
EndSplineSet
EndChar

StartChar: uni0E0A
Encoding: 3594 3594 133
Width: 1192
VWidth: 2045
Flags: W
HStem: 0 112<368 480 593 932> 761 112<388.356 535.269> 1154 112<553.586 730.844>
VStem: 268 115<877.376 1020.22> 553 115<592.051 672.723 893.447 1037.46> 782 115<865.199 1105.72> 1061 115<606.016 935.175> 1280 113<1314.46 1447>
DStem2: 460.251 0 573.251 0 0.173648 0.984808<133.35 750.979> 912.251 0 1025 0 0.173648 0.984808<113.728 868.548>
LayerCount: 2
Fore
SplineSet
668 991 m 0
 668 862 552 761 434 761 c 0
 333 761 268 832 268 922 c 0
 268 1114 462 1266 635 1266 c 0
 792 1266 897 1154 897 1011 c 0
 897 766 705 752 679 601 c 2
 593 112 l 1
 932 112 l 1
 1060 837 l 2
 1061 844 1061 850 1061 856 c 0
 1061 907 1024 949 966 949 c 1
 986 1060 l 1
 1122 1132 1247 1268 1280 1447 c 9
 1393 1447 l 17
 1348 1190 1157 1047 1113 1018 c 1
 1128 1003 1176 960 1176 877 c 0
 1176 865 1176 851 1173 837 c 2
 1025 0 l 1
 348 0 l 1
 368 112 l 1
 480 112 l 1
 566 601 l 2
 604 818 782 812 782 993 c 0
 782 1087 711 1154 615 1154 c 0
 594 1154 574 1151 553 1145 c 1
 603 1133 668 1080 668 991 c 0
453 873 m 0
 499 873 553 913 553 972 c 0
 553 1010 527 1042 483 1042 c 0
 431 1042 383 997 383 943 c 0
 383 904 410 873 453 873 c 0
EndSplineSet
EndChar

StartChar: uni0E0B
Encoding: 3595 3595 134
Width: 1192
VWidth: 2045
Flags: W
HStem: 0 112<383 496 609 947> 644 112<333.842 483.187> 924 112<348.148 495.183> 1246 20G<436.5 535.916 739.337 802.5>
VStem: 189 141<761.837 977.406> 500 115<773.677 917.852> 818 115<858.91 1116.1> 1076 115<606.016 935.628> 1295 113<1314.46 1447>
DStem2: 476.251 0 589.251 0 0.173648 0.984808<133.35 725.529> 927.251 0 1040 0 0.173648 0.984808<113.728 868.548>
LayerCount: 2
Fore
SplineSet
615 875 m 0
 615 745 499 644 382 644 c 0
 261 644 189 753 189 879 c 0
 189 1094 366 1233 507 1266 c 1
 627 1183 l 1
 775 1266 l 1
 830 1240 933 1164 933 1018 c 0
 933 752 720 742 688 560 c 2
 609 112 l 1
 947 112 l 1
 1075 837 l 2
 1076 844 1076 850 1076 856 c 0
 1076 907 1039 949 981 949 c 1
 1001 1060 l 1
 1137 1132 1263 1268 1295 1447 c 9
 1408 1447 l 17
 1363 1190 1172 1047 1128 1018 c 1
 1170 975 1191 930 1191 877 c 0
 1191 864 1190 851 1188 837 c 2
 1040 0 l 1
 363 0 l 1
 383 112 l 1
 496 112 l 1
 575 560 l 2
 619 804 818 788 818 998 c 0
 818 1078 773 1120 755 1136 c 1
 603 1051 l 1
 469 1142 l 17
 413 1118 352 1063 324 997 c 1
 364 1023 406 1036 451 1036 c 0
 549 1036 615 967 615 875 c 0
400 756 m 0
 452 756 500 798 500 854 c 0
 500 895 470 924 430 924 c 0
 377 924 330 878 330 824 c 0
 330 785 357 756 400 756 c 0
EndSplineSet
EndChar

StartChar: uni0E0C
Encoding: 3596 3596 135
Width: 1863
VWidth: 2045
Flags: W
HStem: -12 112<398.478 549.964 910.705 1058.89> 267 112<427.782 561.794 923.979 1055.75> 776 112<500 613> 1154 112<619.409 975.826>
VStem: 279 115<105.801 248.677> 568 115<120.756 260.329> 790 115<104.645 247.61> 1128 114<701.959 1001.91>
DStem2: 247.44 -12 361.23 -12 0.173648 0.984808<398.514 800.263> 983.232 -12 1095.46 -12 0.173648 0.984808<392.228 865.193> 1157 337 1189 187 0.895676 -0.444706<95.3676 478.968> 1562.02 -12 1674.88 -12 0.173648 0.984808<138.098 1285.49>
LayerCount: 2
Fore
SplineSet
683 218 m 0
 683 89 566 -12 446 -12 c 0
 350 -12 279 55 279 149 c 0
 279 160 280 172 282 184 c 10
 387 776 l 9
 247 776 l 1
 296 1052 559 1266 827 1266 c 256
 1070 1266 1242 1090 1242 860 c 0
 1242 833 1240 805 1235 776 c 2
 1157 337 l 17
 1586 124 l 25
 1785 1254 l 9
 1898 1254 l 17
 1677 0 l 17
 1564 0 l 1
 1189 187 l 17
 1168 66 1062 -12 956 -12 c 0
 858 -12 790 58 790 150 c 0
 790 282 911 379 1024 379 c 0
 1035 379 1044 379 1052 378 c 9
 1122 776 l 2
 1126 798 1128 821 1128 842 c 0
 1128 1022 991 1154 807 1154 c 256
 689 1154 509 1099 396 888 c 9
 633 888 l 1
 613 776 l 1
 500 776 l 17
 427 361 l 17
 455 373 484 379 515 379 c 0
 617 379 683 308 683 218 c 0
1006 267 m 0
 960 267 905 227 905 168 c 0
 905 129 934 100 977 100 c 0
 1029 100 1077 142 1077 198 c 0
 1077 236 1049 267 1006 267 c 0
495 267 m 0
 449 267 394 227 394 168 c 0
 394 129 423 100 466 100 c 0
 512 100 568 138 568 197 c 0
 568 235 540 267 495 267 c 0
EndSplineSet
EndChar

StartChar: uni0E0D
Encoding: 3597 3597 136
Width: 1864
VWidth: 2045
Flags: W
HStem: -548 149<971.191 1230.79> -231 112<983.71 1132.47> -12 112<400.082 549.674 1118 1585> 267 112<429.475 561.904> 776 112<501 613> 1154 112<624.605 976.114>
VStem: 280 115<104.7 248.788> 568 114<119.598 260.528> 849 116<-393.762 -250.503> 1137 115<-380.692 -235.83 619.375 986.174>
DStem2: 153.929 -548 267.719 -548 0.173648 0.984808<942.782 1344.53> 888.373 -548 1001.62 -548 0.173648 0.984808<689.847 1409.52> 1468.18 -548 1581.18 -548 0.173648 0.984808<280.176 453.896 670.258 1829.81>
LayerCount: 2
Fore
SplineSet
1252 -287 m 0
 1252 -363 1221 -406 1153 -450 c 1
 1317 -438 1512 -301 1547 -101 c 9
 1660 -101 l 17
 1617 -347 1378 -548 1129 -548 c 0
 911 -548 849 -441 849 -356 c 0
 849 -209 982 -119 1085 -119 c 0
 1182 -119 1252 -191 1252 -287 c 0
1036 -399 m 0
 1088 -399 1137 -355 1137 -301 c 0
 1137 -262 1109 -231 1065 -231 c 0
 1018 -231 965 -271 965 -331 c 0
 965 -372 997 -399 1036 -399 c 0
682 218 m 0
 682 87 565 -12 446 -12 c 0
 345 -12 280 59 280 149 c 0
 280 160 281 172 283 184 c 2
 388 776 l 1
 247 776 l 1
 295 1046 555 1266 827 1266 c 256
 1067 1266 1242 1095 1242 862 c 0
 1242 834 1240 805 1235 776 c 2
 1118 112 l 1
 1585 112 l 1
 1786 1254 l 1
 1899 1254 l 1
 1678 0 l 17
 985 0 l 1
 1122 776 l 2
 1126 798 1128 821 1128 842 c 0
 1128 1020 995 1154 807 1154 c 256
 689 1154 510 1099 397 888 c 1
 633 888 l 1
 613 776 l 1
 501 776 l 1
 428 361 l 1
 457 373 486 379 516 379 c 0
 616 379 682 309 682 218 c 0
467 100 m 0
 518 100 568 142 568 198 c 0
 568 240 535 267 496 267 c 0
 444 267 395 223 395 168 c 0
 395 127 427 100 467 100 c 0
EndSplineSet
Substitution2: "'ccmp' Pali-Sanskrit Descender Removal" uni0E0D.descless
Substitution2: "Thai Descender Removal Single Substitution" uni0E0D.descless
EndChar

StartChar: uni0E0E
Encoding: 3598 3598 137
Width: 1373
VWidth: 2045
Flags: W
HStem: -541 112<507.666 657.816> -261 112<522.007 669.816> -12 112<245.716 395.246> 267 112<258.446 407.81> 776 112<495 515 628 741> 1154 112<722.786 1074.43>
VStem: 125 115<106.297 246.879> 387 115<-424.016 -280.495> 1227 114<697.316 1003.59>
DStem2: 273.079 -597 385.289 -597 0.173648 0.984808<972.779 1394.15> 978.561 -597 1091.85 -597 0.173648 0.984808<221.363 1459.31>
AnchorPoint: "BelowBase" 1034 -625 basechar 0
LayerCount: 2
Fore
SplineSet
125 149 m 0
 125 279 243 379 360 379 c 0
 391 379 419 373 442 361 c 9
 515 776 l 9
 346 776 l 1
 394 1046 654 1266 926 1266 c 256
 1167 1266 1341 1093 1341 861 c 0
 1341 833 1339 805 1334 776 c 2
 1122 -426 l 17
 919 -597 l 17
 774 -424 l 17
 705 -483 l 2
 658 -522 608 -541 554 -541 c 0
 454 -541 387 -470 387 -379 c 0
 387 -244 509 -149 624 -149 c 0
 678 -149 722 -169 754 -207 c 2
 802 -266 l 9
 895 -187 l 1
 962 -266 l 1
 869 -344 l 25
 947 -438 l 9
 1017 -379 l 9
 1221 776 l 2
 1225 798 1227 821 1227 842 c 0
 1227 1022 1090 1154 906 1154 c 256
 790 1154 602 1097 495 888 c 9
 761 888 l 1
 741 776 l 1
 628 776 l 17
 523 184 l 2
 504 75 402 -12 292 -12 c 0
 192 -12 125 57 125 149 c 0
574 -429 m 0
 625 -429 675 -388 675 -332 c 0
 675 -295 649 -261 604 -261 c 0
 548 -261 502 -308 502 -361 c 0
 502 -402 533 -429 574 -429 c 0
312 100 m 0
 364 100 412 142 412 198 c 0
 412 239 381 267 341 267 c 0
 289 267 240 223 240 168 c 0
 240 127 272 100 312 100 c 0
EndSplineSet
EndChar

StartChar: uni0E0F
Encoding: 3599 3599 138
Width: 1373
VWidth: 2045
Flags: W
HStem: -571 112<259.615 409.044> -292 112<272.93 421.99> -12 112<245.716 395.246> 267 112<258.446 407.81> 776 112<495 515 628 741> 1154 112<722.786 1074.43>
VStem: 125 115<106.297 246.879> 140 114<-452.703 -311.907> 1227 114<572.242 1005.39>
DStem2: 271.844 -604 384.054 -604 0.173648 0.984808<979.887 1401.26> 977.737 -604 1090.67 -604 0.173648 0.984808<220.348 1466.34>
AnchorPoint: "BelowBase" 995 -625 basechar 0
LayerCount: 2
Fore
SplineSet
140 -410 m 0xfd80
 140 -279 258 -180 374 -180 c 0
 429 -180 472 -199 504 -237 c 2
 555 -296 l 9
 648 -218 l 1
 713 -296 l 1
 620 -375 l 25
 679 -447 l 1
 835 -314 l 25
 945 -447 l 9
 1016 -387 l 9
 1221 776 l 2
 1225 798 1227 821 1227 842 c 0
 1227 1022 1090 1154 906 1154 c 256
 790 1154 602 1097 495 888 c 9
 761 888 l 1
 741 776 l 1
 628 776 l 17
 523 184 l 2
 504 75 402 -12 292 -12 c 0
 192 -12 125 57 125 149 c 0xfe80
 125 279 243 379 360 379 c 0
 391 379 419 373 442 361 c 9
 515 776 l 9
 346 776 l 1
 394 1046 654 1266 926 1266 c 256
 1167 1266 1341 1093 1341 861 c 0
 1341 833 1339 805 1334 776 c 2
 1121 -432 l 17
 917 -604 l 17
 807 -473 l 25
 651 -604 l 1
 527 -455 l 17
 455 -514 l 2
 409 -552 360 -571 305 -571 c 0
 207 -571 140 -502 140 -410 c 0xfd80
326 -459 m 0
 378 -459 426 -417 426 -361 c 0
 426 -320 396 -292 356 -292 c 0
 304 -292 254 -336 254 -391 c 0xfd80
 254 -432 286 -459 326 -459 c 0
312 100 m 0
 364 100 412 142 412 198 c 0
 412 239 381 267 341 267 c 0
 289 267 240 223 240 168 c 0xfe80
 240 127 272 100 312 100 c 0
EndSplineSet
EndChar

StartChar: uni0E10
Encoding: 3600 3600 139
Width: 1192
VWidth: 2045
Flags: W
HStem: -733 112<61.7584 211.086> -453 112<73.3902 225.387 700.245 837.971> -187 112<716.968 866.299> 0 21G<705.225 820.888> 296 112<494.707 645.575> 574 112<508.953 658.125> 776 112<404 942.198> 1154 112<628.858 985.477>
VStem: -59 115<-615.799 -472.913> 377 114<412.419 555.297> 583 115<-350.341 -206.877> 872 114<-333.997 -191.955> 955 115<539.734 763.226>
DStem2: 805 266 813 0 0.366887 0.930266<0 440.431>
LayerCount: 2
Fore
SplineSet
799 -187 m 0xfff0
 747 -187 698 -231 698 -285 c 0
 698 -324 725 -355 769 -355 c 0
 826 -355 872 -306 872 -256 c 0
 872 -218 843 -187 799 -187 c 0xfff0
329 -616 m 0
129 -621 m 0
 181 -621 230 -576 230 -521 c 0
 230 -480 198 -453 158 -453 c 0
 112 -453 56 -491 56 -550 c 0
 56 -588 84 -621 129 -621 c 0
583 -305 m 0
 583 -174 701 -75 821 -75 c 0
 921 -75 986 -146 986 -237 c 0
 986 -248 985 -260 983 -272 c 2
 926 -595 l 1
 722 -766 l 17
 611 -634 l 25
 457 -766 l 1
 330 -616 l 17
 259 -675 l 2
 213 -714 164 -733 110 -733 c 0
 13 -733 -59 -663 -59 -570 c 0
 -59 -439 65 -341 180 -341 c 0
 233 -341 276 -360 308 -399 c 2
 358 -459 l 9
 451 -379 l 1
 517 -459 l 1
 423 -538 l 25
 485 -607 l 1
 640 -476 l 25
 750 -607 l 9
 821 -548 l 1
 839 -449 l 17
 810 -461 781 -467 750 -467 c 0
 650 -467 583 -396 583 -305 c 0
377 458 m 0
 377 587 495 686 612 686 c 0
 686 686 766 646 778 529 c 2
 805 266 l 17
 946 631 l 18
 950 641 955 666 955 681 c 0
 955 734 921 776 861 776 c 2
 254 776 l 1
 299 1031 548 1266 834 1266 c 256
 1033 1266 1164 1155 1220 1018 c 9
 1113 961 l 17
 1044 1134 884 1154 814 1154 c 256
 630 1154 472 1027 404 888 c 1
 881 888 l 2
 989 888 1070 808 1070 702 c 0xffe8
 1070 669 1062 630 1052 606 c 10
 813 0 l 1
 707 0 l 1
 677 338 l 17
 645 310 600 296 543 296 c 0
 444 296 377 367 377 458 c 0
561 408 m 0
 608 408 663 446 663 506 c 0
 663 548 629 574 590 574 c 0
 538 574 491 531 491 475 c 0
 491 435 520 408 561 408 c 0
EndSplineSet
Substitution2: "'ccmp' Pali-Sanskrit Descender Removal" uni0E10.descless
Substitution2: "Thai Descender Removal Single Substitution" uni0E10.descless
EndChar

StartChar: uni0E11
Encoding: 3601 3601 140
Width: 1573
VWidth: 2045
Flags: W
HStem: 0 21G<534 658.304 1287 1403.53> 644 112<391.848 540.573> 924 112<404.293 552.549> 1154 112<1281.22 1457.4>
VStem: 242 144<761.239 976.647> 558 115<773.055 919.519> 864 114<860.554 1132.02> 1472 115<962.117 1140.88>
DStem2: 534.073 0 646.691 0 0.173648 0.984808<332.307 714.758> 701 308 647 0 0.492057 0.870563<0 1049.52> 1287 0 1400 0 0.173648 0.984808<19.6222 1075.7>
LayerCount: 2
Fore
SplineSet
458 756 m 0
 510 756 558 798 558 854 c 0
 558 895 528 924 488 924 c 0
 435 924 386 879 386 824 c 0
 386 782 419 756 458 756 c 0
673 874 m 0
 673 743 555 644 439 644 c 0
 355 644 242 688 242 854 c 0
 242 1093 409 1228 563 1266 c 1
 685 1183 l 1
 833 1266 l 1
 908 1238 978 1144 978 1021 c 0
 978 776 776 731 737 510 c 2
 701 308 l 17
 1163 1127 l 2
 1188 1170 1271 1266 1396 1266 c 0
 1510 1266 1587 1185 1587 1081 c 0
 1587 1068 1586 1055 1584 1042 c 2
 1400 0 l 1
 1287 0 l 1
 1470 1039 l 18
 1471 1046 1472 1053 1472 1060 c 0
 1472 1114 1432 1154 1377 1154 c 0
 1313 1154 1274 1108 1258 1081 c 2
 647 0 l 1
 534 0 l 1
 624 510 l 2
 674 794 864 788 864 1013 c 0
 864 1095 827 1131 813 1136 c 1
 661 1051 l 1
 527 1142 l 17
 507 1138 413 1088 372 988 c 1
 427 1020 472 1036 508 1036 c 0
 605 1036 673 967 673 874 c 0
EndSplineSet
EndChar

StartChar: uni0E12
Encoding: 3602 3602 141
Width: 1916
VWidth: 2045
Flags: W
HStem: -12 112<948.421 1096.62> 267 112<961.33 1093.5> 820 112<704.475 852.171> 1246 8G<565 645.669 1076.84 1153.5 1835.48 1952>
VStem: 572 114<656.347 799.785> 828 115<103.894 249.388> 858 115<670.795 815.568> 1193 115<864.372 1100.43>
DStem2: 146.884 -12 259.672 -12 0.173648 0.984808<194.239 1131.66> 290 160 262 0 0.722541 0.691328<0 559.451> 616 1266 585 1142 0.828186 -0.560453<22.3114 270.142> 840 1115 817 985 0.875891 0.482509<0 261.906> 1021.23 -12 1133.46 -12 0.173648 0.984808<392.552 1009.11> 1195 337 1227 187 0.901997 -0.431742<93.6253 493.35> 1616.02 -12 1728.88 -12 0.173648 0.984808<138.098 1285.49>
LayerCount: 2
Fore
SplineSet
757 652 m 0xfb
 809 652 858 696 858 750 c 0
 858 788 831 820 787 820 c 0
 740 820 686 779 686 720 c 0
 686 678 718 652 757 652 c 0xfb
572 703 m 0
 572 832 689 932 806 932 c 0
 907 932 973 861 973 771 c 0xfb
 973 698 941 650 887 598 c 2
 262 0 l 17
 149 0 l 9
 315 939 l 2
 350 1135 514 1238 616 1266 c 9
 840 1115 l 1
 1113 1266 l 17
 1194 1242 1308 1158 1308 1003 c 0
 1308 984 1306 963 1302 941 c 2
 1195 337 l 17
 1640 124 l 25
 1839 1254 l 9
 1952 1254 l 17
 1731 0 l 17
 1618 0 l 1
 1227 187 l 17
 1206 66 1100 -12 994 -12 c 0
 895 -12 828 57 828 149 c 0xfd
 828 279 946 379 1064 379 c 0
 1072 379 1081 379 1090 378 c 9
 1189 941 l 2
 1192 956 1193 970 1193 983 c 0
 1193 1077 1132 1125 1102 1142 c 9
 817 985 l 1
 585 1142 l 17
 536 1120 450 1061 428 939 c 2
 290 160 l 25
 694 547 l 1
 614 564 572 630 572 703 c 0
1014 100 m 0
 1065 100 1115 142 1115 198 c 0
 1115 237 1086 267 1043 267 c 0
 990 267 943 223 943 167 c 0xfd
 943 129 970 100 1014 100 c 0
EndSplineSet
EndChar

StartChar: uni0E13
Encoding: 3603 3603 142
Width: 1898
VWidth: 2045
Flags: W
HStem: -12 112<399.549 549.389 1525.52 1675.01> 267 112<428.475 561.005> 776 112<500 613> 1154 112<618.913 975.426>
VStem: 279 115<105.161 248.788> 567 114<119.657 262.323> 1128 114<567.117 1005.39> 1406 114<106.333 160> 1693 115<117.055 261.512>
DStem2: 247.44 -12 361.23 -12 0.173648 0.984808<398.514 800.263> 982.884 -12 1095.79 -12 0.173648 0.984808<164.811 865.254> 1121 131 1098 0 0.883944 0.467593<0 265.484> 1515.64 -12 1628.64 -12 0.173648 0.984808<395.178 1285.55>
LayerCount: 2
Fore
SplineSet
1808 218 m 0
 1808 87 1689 -12 1572 -12 c 0
 1470 -12 1406 60 1406 145 c 0
 1406 150 1406 155 1406 160 c 9
 1098 0 l 1
 985 0 l 9
 1122 776 l 2
 1126 798 1128 821 1128 842 c 0
 1128 1022 991 1154 807 1154 c 256
 688 1154 509 1099 396 888 c 9
 633 888 l 1
 613 776 l 1
 500 776 l 17
 427 361 l 17
 456 373 485 379 515 379 c 0
 616 379 681 308 681 218 c 0
 681 87 566 -12 446 -12 c 0
 345 -12 279 60 279 150 c 0
 279 161 280 172 282 184 c 10
 387 776 l 9
 247 776 l 1
 295 1051 558 1266 827 1266 c 256
 1068 1266 1242 1093 1242 861 c 0
 1242 833 1240 805 1235 776 c 2
 1121 131 l 25
 1535 350 l 2
 1551 359 1566 365 1583 370 c 9
 1739 1254 l 9
 1852 1254 l 17
 1696 370 l 17
 1741 357 1808 307 1808 218 c 0
1622 267 m 0
 1569 267 1520 222 1520 168 c 0
 1520 126 1554 100 1593 100 c 0
 1645 100 1693 142 1693 198 c 0
 1693 239 1662 267 1622 267 c 0
466 100 m 0
 512 100 567 138 567 197 c 0
 567 236 538 267 495 267 c 0
 443 267 394 223 394 168 c 0
 394 127 426 100 466 100 c 0
EndSplineSet
EndChar

StartChar: uni0E14
Encoding: 3604 3604 143
Width: 1301
VWidth: 2045
Flags: W
HStem: 0 21G<165 298.334 1012 1128.53> 820 112<704.695 852.37> 1154 112<671.796 1013.01>
VStem: 572 114<656.918 799.802> 858 116<670.273 815.145> 1157 115<711.151 1012.51>
DStem2: 165 0 277.788 0 0.173648 0.984808<182.054 1001.57> 306 160 278 0 0.712946 0.701219<0 547.995> 1012 0 1125 0 0.173648 0.984808<19.6222 866.218>
LayerCount: 2
Fore
SplineSet
572 702 m 0
 572 833 690 932 806 932 c 0
 908 932 974 857 974 772 c 0
 974 701 939 651 886 598 c 2
 278 0 l 1
 165 0 l 1
 304 788 l 2
 351 1052 601 1266 867 1266 c 0
 1100 1266 1272 1101 1272 873 c 0
 1272 846 1269 817 1264 788 c 2
 1125 0 l 1
 1012 0 l 1
 1151 788 l 2
 1155 811 1157 834 1157 855 c 0
 1157 1033 1022 1154 848 1154 c 0
 655 1154 455 1002 417 788 c 2
 306 160 l 1
 694 547 l 1
 618 564 572 626 572 702 c 0
757 652 m 0
 809 652 858 696 858 750 c 0
 858 788 831 820 787 820 c 0
 740 820 686 779 686 720 c 0
 686 678 718 652 757 652 c 0
EndSplineSet
EndChar

StartChar: uni0E15
Encoding: 3605 3605 144
Width: 1301
VWidth: 2045
Flags: W
HStem: 0 21G<165 298.368 1008 1124.54> 820 112<704.475 852.171> 1246 20G<579.5 659.55 1063.83 1138>
VStem: 572 114<656.347 799.785> 858 115<670.795 815.568> 1177 115<860.278 1104.57>
DStem2: 165 0 277.788 0 0.173648 0.984808<182.054 1119.37> 306 160 278 0 0.713521 0.700633<0 547.991> 632 1266 600 1142 0.810187 -0.586172<27.1508 257.031> 840 1115 817 985 0.864475 0.502676<0 245.479> 1008 0 1121 0 0.173648 0.984808<19.6222 995.826>
LayerCount: 2
Fore
SplineSet
572 703 m 0
 572 832 689 932 806 932 c 0
 907 932 973 861 973 771 c 0
 973 698 942 650 887 598 c 1
 278 0 l 17
 165 0 l 9
 331 939 l 2
 366 1135 527 1238 632 1266 c 9
 840 1115 l 1
 1098 1266 l 17
 1178 1242 1292 1157 1292 1001 c 0
 1292 981 1291 961 1287 939 c 2
 1121 0 l 1
 1008 0 l 1
 1174 939 l 2
 1177 954 1177 969 1177 982 c 0
 1177 1076 1118 1125 1087 1142 c 9
 817 985 l 1
 600 1142 l 17
 553 1121 465 1060 444 939 c 2
 306 160 l 25
 694 547 l 1
 614 564 572 630 572 703 c 0
757 652 m 0
 809 652 858 696 858 750 c 0
 858 788 831 820 787 820 c 0
 740 820 686 779 686 720 c 0
 686 678 718 652 757 652 c 0
EndSplineSet
EndChar

StartChar: uni0E16
Encoding: 3606 3606 145
Width: 1248
VWidth: 2045
Flags: W
HStem: -12 112<399.549 549.752> 267 112<428.475 561.436> 776 112<500 613> 1154 112<618.815 975.426>
VStem: 279 115<105.161 248.788> 568 113<120.326 260.072> 1128 114<698.745 1003.59>
DStem2: 247.44 -12 361.23 -12 0.173648 0.984808<398.514 800.263> 982.884 -12 1095.88 -12 0.173648 0.984808<31.8074 865.254>
LayerCount: 2
Fore
SplineSet
495 267 m 0
 443 267 394 223 394 168 c 0
 394 127 426 100 466 100 c 0
 512 100 568 138 568 197 c 0
 568 236 538 267 495 267 c 0
681 218 m 0
 681 87 566 -12 446 -12 c 0
 345 -12 279 60 279 150 c 0
 279 161 280 172 282 184 c 10
 387 776 l 9
 247 776 l 1
 295 1051 558 1266 827 1266 c 256
 1068 1266 1242 1093 1242 861 c 0
 1242 833 1240 805 1235 776 c 2
 1098 0 l 1
 985 0 l 1
 1122 776 l 2
 1126 798 1128 821 1128 842 c 0
 1128 1022 991 1154 807 1154 c 256
 690 1154 506 1098 396 888 c 9
 633 888 l 1
 613 776 l 1
 500 776 l 17
 427 361 l 17
 456 373 485 379 515 379 c 0
 616 379 681 308 681 218 c 0
EndSplineSet
EndChar

StartChar: uni0E17
Encoding: 3607 3607 146
Width: 1338
VWidth: 2045
Flags: W
HStem: 0 21G<343 467.027 1079 1195.53> 873 112<365.641 498.571> 1154 112<379.508 528.119 1074.61 1251.38>
VStem: 246 115<990.514 1133.39> 533 115<923.266 1148.16> 1264 115<812.891 1141.27>
DStem2: 343 0 455.691 0 0.173648 0.984808<332.32 904.726> 510 308 456 0 0.48282 0.875719<0 1040.2> 1079 0 1192 0 0.173648 0.984808<19.6222 1077.67>
LayerCount: 2
Fore
SplineSet
246 1034 m 0
 246 1167 365 1266 481 1266 c 0
 576 1266 648 1200 648 1105 c 0
 648 1093 646 1081 644 1069 c 2
 510 308 l 1
 957 1127 l 2
 978 1167 1065 1266 1190 1266 c 0
 1306 1266 1379 1184 1379 1081 c 0
 1379 1068 1378 1055 1376 1042 c 2
 1192 0 l 1
 1079 0 l 1
 1262 1039 l 18
 1263 1047 1264 1055 1264 1062 c 0
 1264 1118 1225 1154 1171 1154 c 0
 1118 1154 1073 1120 1052 1081 c 2
 456 0 l 1
 343 0 l 1
 500 891 l 1
 473 879 444 873 413 873 c 0
 317 873 246 939 246 1034 c 0
461 1154 m 0
 409 1154 361 1108 361 1054 c 0
 361 1012 393 985 432 985 c 0
 484 985 533 1030 533 1084 c 0
 533 1122 505 1154 461 1154 c 0
EndSplineSet
EndChar

StartChar: uni0E18
Encoding: 3608 3608 147
Width: 1120
VWidth: 2045
Flags: W
HStem: 0 112<224 337 450 840> 776 112<389 454 567 924.981> 1154 112<615.976 969.324>
VStem: 939 115<433.438 763.389>
DStem2: 317.251 0 430.251 0 0.173648 0.984808<133.35 787.957> 820.251 0 933 0 0.173648 0.984808<113.728 694.891>
LayerCount: 2
Fore
SplineSet
937 664 m 2
 938 671 939 678 939 685 c 0
 939 737 902 776 844 776 c 2
 567 776 l 17
 450 112 l 17
 840 112 l 25
 937 664 l 2
239 776 m 1
 287 1046 547 1266 819 1266 c 256
 1015 1266 1148 1155 1204 1021 c 9
 1097 965 l 17
 1053 1067 952 1154 799 1154 c 256
 636 1154 469 1053 389 888 c 9
 864 888 l 2
 981 888 1054 807 1054 704 c 0
 1054 691 1052 678 1050 664 c 2
 933 0 l 9
 204 0 l 1
 224 112 l 1
 337 112 l 25
 454 776 l 25
 239 776 l 1
EndSplineSet
EndChar

StartChar: uni0E19
Encoding: 3609 3609 148
Width: 1338
VWidth: 2045
Flags: W
HStem: -12 112<1015 1165.39> 873 112<374.498 506.535> 1154 112<387.772 536.542>
VStem: 255 114<989.784 1134.19> 541 115<1006.67 1148.31> 896 115<106.359 183.179> 1184 115<119.366 261.972>
DStem2: 348.884 -12 462.02 -12 0.173648 0.984808<157.744 916.912> 486 124 464 0 0.922519 0.385952<0 404.157> 1006.64 -12 1119.64 -12 0.173648 0.984808<395.52 1285.55>
LayerCount: 2
Fore
SplineSet
1299 219 m 0
 1299 85 1178 -12 1062 -12 c 16
 966 -12 896 56 896 149 c 0
 896 160 897 172 899 184 c 9
 464 0 l 17
 351 0 l 1
 508 891 l 1
 479 879 450 873 419 873 c 0
 321 873 255 943 255 1035 c 0
 255 1169 373 1266 489 1266 c 0
 586 1266 656 1199 656 1105 c 0
 656 1094 654 1081 652 1069 c 2
 486 124 l 9
 1026 350 l 2
 1052 361 1068 368 1074 370 c 9
 1230 1254 l 9
 1343 1254 l 17
 1187 370 l 17
 1234 357 1299 308 1299 219 c 0
1113 267 m 0
 1060 267 1011 222 1011 168 c 0
 1011 126 1045 100 1084 100 c 0
 1136 100 1184 142 1184 198 c 0
 1184 239 1153 267 1113 267 c 0
441 985 m 0
 487 985 541 1025 541 1084 c 0
 541 1122 514 1154 470 1154 c 0
 418 1154 369 1109 369 1055 c 0
 369 1016 397 985 441 985 c 0
EndSplineSet
EndChar

StartChar: uni0E1A
Encoding: 3610 3610 149
Width: 1391
VWidth: 2045
Flags: W
HStem: 0 112<297 410 523 1121> 873 112<412.421 546.219> 1154 112<427.501 573.907>
VStem: 293 115<990.773 1134.34> 580 115<1005.66 1149.4>
DStem2: 390.251 0 503.251 0 0.173648 0.984808<133.35 904.683> 1101.25 0 1214 0 0.173648 0.984808<113.728 1273.28>
LayerCount: 2
Fore
SplineSet
293 1034 m 0
 293 1170 415 1266 529 1266 c 0
 626 1266 695 1197 695 1104 c 0
 695 1093 693 1081 691 1069 c 2
 523 112 l 1
 1121 112 l 25
 1322 1254 l 25
 1435 1254 l 25
 1214 0 l 9
 277 0 l 1
 297 112 l 1
 410 112 l 17
 547 891 l 1
 519 879 490 873 459 873 c 0
 364 873 293 939 293 1034 c 0
480 985 m 0
 534 985 580 1030 580 1085 c 0
 580 1123 552 1154 509 1154 c 0
 457 1154 408 1110 408 1055 c 0
 408 1016 436 985 480 985 c 0
EndSplineSet
EndChar

StartChar: uni0E1B
Encoding: 3611 3611 150
Width: 1391
VWidth: 2045
Flags: W
HStem: 0 112<297 410 523 1121> 873 112<412.421 546.219> 1154 112<427.501 573.907>
VStem: 293 115<990.773 1134.34> 580 115<1005.66 1149.4>
DStem2: 390.251 0 503.251 0 0.173648 0.984808<133.35 904.683> 1101.25 0 1214 0 0.173648 0.984808<113.728 1860.21>
AnchorPoint: "AboveBase" 1229 1370 basechar 0
LayerCount: 2
Fore
SplineSet
293 1034 m 0
 293 1170 415 1266 529 1266 c 0
 626 1266 695 1197 695 1104 c 0
 695 1093 693 1081 691 1069 c 2
 523 112 l 1
 1121 112 l 25
 1424 1832 l 25
 1537 1832 l 25
 1214 0 l 9
 277 0 l 1
 297 112 l 1
 410 112 l 17
 547 891 l 1
 519 879 490 873 459 873 c 0
 364 873 293 939 293 1034 c 0
480 985 m 0
 534 985 580 1030 580 1085 c 0
 580 1123 552 1154 509 1154 c 0
 457 1154 408 1110 408 1055 c 0
 408 1016 436 985 480 985 c 0
EndSplineSet
EndChar

StartChar: uni0E1C
Encoding: 3612 3612 151
Width: 1290
VWidth: 2045
Flags: W
HStem: 0 21G<162 292.828 1020.2 1148.52> 873 112<467.837 615.5> 1154 112<480.453 628.601>
VStem: 635 115<1004.38 1149.15>
DStem2: 162 0 274.672 0 0.173648 0.984808<194.219 926.318> 305 172 274 0 0.685456 0.728114<0 533.354> 770 665 740 495 0.508084 -0.861307<131.18 572.985> 1031.67 0 1145 0 0.173648 0.984808<174.653 1273.38>
LayerCount: 2
Fore
SplineSet
750 1104 m 0
 750 968 628 873 514 873 c 0
 483 873 457 880 432 893 c 1
 305 172 l 25
 770 665 l 1
 1062 172 l 25
 1253 1254 l 9
 1366 1254 l 25
 1145 0 l 9
 1032 0 l 17
 740 495 l 25
 274 0 l 9
 162 0 l 25
 350 1066 l 18
 370 1178 474 1266 583 1266 c 0
 681 1266 750 1196 750 1104 c 0
563 1154 m 0
 516 1154 463 1114 463 1055 c 0
 463 1016 491 985 534 985 c 0
 586 985 635 1030 635 1084 c 0
 635 1122 607 1154 563 1154 c 0
EndSplineSet
EndChar

StartChar: uni0E1D
Encoding: 3613 3613 152
Width: 1290
VWidth: 2045
Flags: W
HStem: 0 21G<162 292.793 1020.29 1148.53> 873 112<467.837 615.5> 1154 112<480.453 628.601>
VStem: 635 115<1004.38 1149.15>
DStem2: 162 0 274.906 0 0.173648 0.984808<187.151 926.318> 304 165 274 0 0.679669 0.733519<0 540.544> 771 669 741 497 0.497246 -0.867609<134.311 583.212> 1032.26 0 1145 0 0.173648 0.984808<165.515 1860.21>
AnchorPoint: "AboveBase" 1172 1370 basechar 0
LayerCount: 2
Fore
SplineSet
750 1104 m 0
 750 968 628 873 514 873 c 0
 483 873 457 880 432 893 c 1
 304 165 l 25
 771 669 l 1
 1061 163 l 25
 1355 1832 l 9
 1468 1832 l 25
 1145 0 l 9
 1032 0 l 17
 741 497 l 25
 274 0 l 9
 162 0 l 25
 350 1066 l 18
 370 1178 474 1266 583 1266 c 0
 681 1266 750 1196 750 1104 c 0
563 1154 m 0
 516 1154 463 1114 463 1055 c 0
 463 1016 491 985 534 985 c 0
 586 985 635 1030 635 1084 c 0
 635 1122 607 1154 563 1154 c 0
EndSplineSet
EndChar

StartChar: uni0E1E
Encoding: 3614 3614 153
Width: 1470
VWidth: 2045
Flags: W
HStem: 0 21G<345 468.302 1173.74 1293.52> 873 112<367.092 500.839> 1154 112<380.495 526.203>
VStem: 247 114<989.784 1134.62> 532 117<917.23 1149.07>
DStem2: 345 0 458.286 0 0.173648 0.984808<19.6222 104.513 375.071 906.696> 520 350 458 0 0.457916 0.888995<0 852.818> 1092 1254 1004 1060 0.161076 -0.986942<177.292 915.874> 1177.29 0 1290 0 0.173648 0.984808<355.399 1273.28>
LayerCount: 2
Fore
SplineSet
247 1035 m 0
 247 1171 369 1266 481 1266 c 0
 579 1266 649 1197 649 1102 c 0
 649 1090 648 1078 646 1066 c 2
 520 350 l 25
 985 1254 l 9
 1092 1254 l 17
 1239 350 l 25
 1398 1254 l 9
 1511 1254 l 25
 1290 0 l 9
 1177 0 l 17
 1004 1060 l 25
 458 0 l 9
 345 0 l 25
 502 893 l 1
 473 880 444 873 413 873 c 0
 313 873 247 943 247 1035 c 0
432 985 m 0
 478 985 532 1025 532 1084 c 0
 532 1122 505 1154 461 1154 c 0
 409 1154 361 1109 361 1055 c 0
 361 1016 389 985 432 985 c 0
EndSplineSet
EndChar

StartChar: uni0E1F
Encoding: 3615 3615 154
Width: 1470
VWidth: 2045
Flags: W
HStem: 0 21G<345 468.302 1173.74 1293.53> 873 112<367.092 500.839> 1154 112<380.495 526.203>
VStem: 247 114<989.784 1134.62> 532 117<917.23 1149.07>
DStem2: 345 0 458.286 0 0.173648 0.984808<19.6222 104.513 375.071 906.696> 520 350 458 0 0.457916 0.888995<0 852.818> 1092 1254 1004 1060 0.161076 -0.986942<177.292 915.874> 1177.29 0 1290 0 0.173648 0.984808<355.399 1860.21>
AnchorPoint: "AboveBase" 1277 1370 basechar 0
LayerCount: 2
Fore
SplineSet
247 1035 m 0
 247 1171 369 1266 481 1266 c 0
 579 1266 649 1197 649 1102 c 0
 649 1090 648 1078 646 1066 c 2
 520 350 l 25
 985 1254 l 9
 1092 1254 l 17
 1239 350 l 25
 1500 1832 l 9
 1613 1832 l 25
 1290 0 l 9
 1177 0 l 17
 1004 1060 l 25
 458 0 l 9
 345 0 l 25
 502 893 l 1
 473 880 444 873 413 873 c 0
 313 873 247 943 247 1035 c 0
432 985 m 0
 478 985 532 1025 532 1084 c 0
 532 1122 505 1154 461 1154 c 0
 409 1154 361 1109 361 1055 c 0
 361 1016 389 985 432 985 c 0
EndSplineSet
EndChar

StartChar: uni0E20
Encoding: 3616 3616 155
Width: 1373
VWidth: 2045
Flags: W
HStem: -12 112<243.947 395.468> 267 112<258.713 407.754> 776 112<495 515 628 741> 1154 112<717.727 1074.83>
VStem: 125 115<104.645 247.395> 1227 114<698.745 1001.91>
DStem2: 376.23 -12 488.44 -12 0.173648 0.984808<378.754 800.126> 1081.88 -12 1194.88 -12 0.173648 0.984808<31.8074 865.254>
LayerCount: 2
Fore
SplineSet
341 267 m 0
 295 267 240 227 240 168 c 0
 240 129 269 100 312 100 c 0
 364 100 412 142 412 198 c 0
 412 236 384 267 341 267 c 0
125 150 m 0
 125 281 244 379 360 379 c 0
 390 379 417 373 442 361 c 1
 515 776 l 25
 346 776 l 1
 394 1050 658 1266 926 1266 c 256
 1169 1266 1341 1090 1341 860 c 0
 1341 833 1339 805 1334 776 c 2
 1197 0 l 1
 1084 0 l 1
 1221 776 l 2
 1225 798 1227 821 1227 842 c 0
 1227 1022 1090 1154 906 1154 c 256
 790 1154 602 1097 495 888 c 9
 761 888 l 1
 741 776 l 1
 628 776 l 25
 523 184 l 2
 504 76 403 -12 292 -12 c 0
 193 -12 125 58 125 150 c 0
EndSplineSet
EndChar

StartChar: uni0E21
Encoding: 3617 3617 156
Width: 1355
VWidth: 2045
Flags: W
HStem: -12 112<279.576 430.778> 268 112<293.927 444.953> 875 112<435.266 571.17> 1154 112<450.12 599.986>
VStem: 160 115<104.964 248.402> 317 114<993.227 1133.88> 605 115<925.263 1147.44>
DStem2: 413.23 -12 525.988 -12 0.173648 0.984808<378.754 918.821> 584 317 564 206 0.925401 -0.378988<23.5597 543.17> 1065.14 -12 1177.88 -12 0.173648 0.984808<125.913 1284.48>
LayerCount: 2
Fore
SplineSet
317 1036 m 0
 317 1166 435 1266 553 1266 c 0
 648 1266 720 1199 720 1104 c 0
 720 1093 718 1081 716 1069 c 2
 584 317 l 25
 1087 112 l 9
 1288 1253 l 1
 1401 1253 l 1
 1180 0 l 1
 1067 0 l 1
 564 206 l 17
 560 184 l 2
 541 74 437 -12 328 -12 c 0
 229 -12 160 58 160 150 c 0
 160 281 282 380 396 380 c 0
 427 380 454 373 479 361 c 9
 572 893 l 1
 543 880 514 875 483 875 c 0
 386 875 317 944 317 1036 c 0
503 987 m 0
 555 987 605 1030 605 1084 c 0
 605 1123 575 1154 532 1154 c 0
 480 1154 431 1110 431 1055 c 0
 431 1013 464 987 503 987 c 0
347 100 m 0
 400 100 449 145 449 200 c 0
 449 242 415 268 376 268 c 0
 325 268 275 226 275 170 c 0
 275 129 307 100 347 100 c 0
EndSplineSet
EndChar

StartChar: uni0E22
Encoding: 3618 3618 157
Width: 1248
VWidth: 2045
Flags: W
HStem: 0 112<365 974> 634 112<473.413 793> 873 112<472.508 619.214> 1154 112<489.131 633.649>
VStem: 278 121<795.68 912> 638 115<1004.55 1148.31>
DStem2: 232 0 345.251 0 0.173648 0.984808<133.394 648.77> 954.251 0 1067 0 0.173648 0.984808<113.728 1273.28>
LayerCount: 2
Fore
SplineSet
753 1105 m 0
 753 968 633 873 518 873 c 16
 469 873 429 886 399 912 c 1
 399 865 418 746 589 746 c 10
 813 746 l 17
 793 634 l 1
 569 634 l 18
 504 634 447 582 437 523 c 10
 365 112 l 25
 974 112 l 25
 1175 1254 l 25
 1288 1254 l 25
 1067 0 l 9
 232 0 l 9
 324 523 l 2
 334 582 363 634 412 677 c 1
 352 702 278 767 278 904 c 0
 278 1097 409 1266 587 1266 c 0
 682 1266 753 1199 753 1105 c 0
567 1154 m 0
 516 1154 468 1109 468 1055 c 0
 468 1017 495 985 538 985 c 0
 584 985 638 1025 638 1084 c 0
 638 1122 611 1154 567 1154 c 0
EndSplineSet
EndChar

StartChar: uni0E23
Encoding: 3619 3619 158
Width: 1002
VWidth: 2045
Flags: W
HStem: -12 112<452.415 602.094> 267 112<465.446 614.868> 846 112<380 701.609> 1154 112<541.605 859.864>
VStem: 332 115<106.297 246.879> 716 115<504.336 830.889> 967 112<950.928 1042.82>
DStem2: 583.23 -12 695.44 -12 0.173648 0.984808<378.754 775.171>
LayerCount: 2
Fore
SplineSet
332 149 m 0
 332 279 450 379 567 379 c 0
 597 379 624 373 649 361 c 1
 714 734 l 18
 715 740 716 746 716 752 c 0
 716 803 678 846 621 846 c 2
 228 846 l 1
 268 1072 485 1266 725 1266 c 0
 936 1266 1065 1122 1079 954 c 9
 967 930 l 17
 958 1015 886 1154 706 1154 c 0
 531 1154 417 1022 380 958 c 9
 641 958 l 2
 757 958 831 878 831 774 c 0
 831 761 829 748 827 734 c 10
 730 184 l 2
 711 75 609 -12 498 -12 c 0
 399 -12 332 57 332 149 c 0
519 100 m 0
 571 100 619 142 619 198 c 0
 619 239 588 267 548 267 c 0
 496 267 447 223 447 168 c 0
 447 127 479 100 519 100 c 0
EndSplineSet
EndChar

StartChar: uni0E24
Encoding: 3620 3620 159
Width: 1248
VWidth: 2045
Flags: W
HStem: -12 112<379.549 529.389> 267 112<408.475 541.005> 776 112<480 593> 1154 112<598.913 955.426>
VStem: 259 115<105.161 248.788> 547 114<119.657 262.323> 1108 114<697.241 1003.59>
DStem2: 132.929 -548 246.719 -548 0.173648 0.984808<942.782 1344.53> 868 -548 981 -548 0.173648 0.984808<19.6222 1409.59>
LayerCount: 2
Fore
SplineSet
475 267 m 0
 423 267 374 223 374 168 c 0
 374 127 406 100 446 100 c 0
 492 100 547 138 547 197 c 0
 547 236 518 267 475 267 c 0
661 218 m 0
 661 87 546 -12 426 -12 c 0
 325 -12 259 60 259 150 c 0
 259 161 260 172 262 184 c 10
 367 776 l 9
 227 776 l 1
 275 1051 538 1266 807 1266 c 256
 1048 1266 1222 1093 1222 861 c 0
 1222 833 1220 805 1215 776 c 2
 981 -548 l 1
 868 -548 l 1
 1102 776 l 2
 1106 798 1108 821 1108 842 c 0
 1108 1022 971 1154 787 1154 c 256
 668 1154 489 1099 376 888 c 9
 613 888 l 1
 593 776 l 1
 480 776 l 17
 407 361 l 17
 436 373 465 379 495 379 c 0
 596 379 661 308 661 218 c 0
EndSplineSet
EndChar

StartChar: uni0E25
Encoding: 3621 3621 160
Width: 1263
VWidth: 2045
Flags: W
HStem: -12 112<402.759 554.848> 267 112<432.83 566.995> 752 112<593.062 895.787> 1154 112<617.815 965.426>
VStem: 237 113<776 896.553> 284 115<105.161 330.658> 573 114<119.598 262.392> 1118 114<689.266 1005.39>
DStem2: 972.884 -12 1085.88 -12 0.173648 0.984808<31.8074 456.987 708.775 865.254>
LayerCount: 2
Fore
SplineSet
501 267 m 0xf7
 449 267 399 224 399 168 c 0
 399 127 431 100 472 100 c 0
 523 100 573 142 573 198 c 0
 573 237 544 267 501 267 c 0xf7
687 218 m 0
 687 87 570 -12 452 -12 c 0
 350 -12 284 60 284 150 c 0xf7
 284 161 285 172 287 184 c 10
 321 375 l 2
 393 782 610 864 746 864 c 256
 928 864 1041 770 1096 686 c 1
 1112 776 l 2
 1116 798 1118 821 1118 842 c 0
 1118 1022 981 1154 797 1154 c 256
 586 1154 386 983 350 776 c 9
 237 776 l 17xfb
 285 1051 548 1266 817 1266 c 256
 1058 1266 1232 1093 1232 861 c 0
 1232 833 1230 805 1225 776 c 2
 1088 0 l 1
 975 0 l 1
 1041 372 l 2
 1045 395 1047 418 1047 440 c 0
 1047 624 908 752 727 752 c 256
 522 752 462 529 432 361 c 1
 461 373 490 379 520 379 c 0
 622 379 687 308 687 218 c 0
EndSplineSet
EndChar

StartChar: uni0E26
Encoding: 3622 3622 161
Width: 1373
VWidth: 2045
Flags: W
HStem: -12 112<243.947 395.468> 267 112<258.713 407.754> 776 112<495 515 628 741> 1154 112<717.727 1074.83>
VStem: 125 115<104.645 247.395> 1227 114<697.241 1001.91>
DStem2: 281.719 -548 393.929 -548 0.173648 0.984808<923.023 1344.39> 987 -548 1100 -548 0.173648 0.984808<19.6222 1409.59>
LayerCount: 2
Fore
SplineSet
341 267 m 0
 295 267 240 227 240 168 c 0
 240 129 269 100 312 100 c 0
 364 100 412 142 412 198 c 0
 412 236 384 267 341 267 c 0
125 150 m 0
 125 281 244 379 360 379 c 0
 390 379 417 373 442 361 c 1
 515 776 l 25
 346 776 l 1
 394 1050 658 1266 926 1266 c 256
 1169 1266 1341 1090 1341 860 c 0
 1341 833 1339 805 1334 776 c 2
 1100 -548 l 1
 987 -548 l 1
 1221 776 l 2
 1225 798 1227 821 1227 842 c 0
 1227 1022 1090 1154 906 1154 c 256
 790 1154 602 1097 495 888 c 9
 761 888 l 1
 741 776 l 1
 628 776 l 25
 523 184 l 2
 504 76 403 -12 292 -12 c 0
 193 -12 125 58 125 150 c 0
EndSplineSet
EndChar

StartChar: uni0E27
Encoding: 3623 3623 162
Width: 1122
VWidth: 2045
Flags: W
HStem: -12 112<704.477 853.823> 267 112<717.462 866.282> 1154 112<561.026 883.202>
VStem: 251 113<846 960.994> 584 115<106.135 246.879> 991 114<626.289 1047.24>
DStem2: 835.23 -12 947.44 -12 0.173648 0.984808<378.754 925.347>
LayerCount: 2
Fore
SplineSet
770 100 m 0
 821 100 871 142 871 198 c 0
 871 240 838 267 799 267 c 0
 747 267 699 223 699 168 c 0
 699 129 727 100 770 100 c 0
584 149 m 0
 584 279 702 379 820 379 c 0
 851 379 878 373 901 361 c 1
 986 844 l 2
 989 864 991 883 991 901 c 0
 991 1050 880 1154 729 1154 c 0
 549 1154 393 1013 364 846 c 9
 251 846 l 17
 292 1078 517 1266 749 1266 c 0
 954 1266 1105 1117 1105 917 c 0
 1105 893 1103 869 1099 844 c 2
 982 184 l 2
 963 75 861 -12 750 -12 c 0
 651 -12 584 57 584 149 c 0
EndSplineSet
EndChar

StartChar: uni0E28
Encoding: 3624 3624 163
Width: 1301
VWidth: 2045
Flags: W
HStem: 0 21G<171 294.504 1018 1134.53> 549 112<698.935 847.921> 827 112<712.792 860.754> 1154 112<672.66 1011.84>
VStem: 865 115<680.442 822.661> 1161 114<566.375 944.685>
DStem2: 171 0 283.865 0 0.173648 0.984808<19.6222 102.368 314.073 1001.51> 335 290 284 0 0.464975 0.885324<0 414.203> 1018 0 1131 0 0.173648 0.984808<19.6222 850.255 1136.56 1356.91>
LayerCount: 2
Fore
SplineSet
854 1154 m 0
 659 1154 461 1002 423 788 c 2
 335 290 l 1
 607 816 l 2
 627 855 703 939 814 939 c 0
 915 939 1008 971 1092 1036 c 1
 1062 1081 983 1154 854 1154 c 0
980 779 m 0
 980 647 864 549 745 549 c 0
 656 549 616 601 607 615 c 1
 284 0 l 1
 171 0 l 1
 310 788 l 2
 357 1056 611 1266 874 1266 c 0
 1040 1266 1137 1179 1180 1121 c 1
 1232 1183 1264 1253 1278 1332 c 1
 1391 1332 l 1
 1370 1212 1306 1103 1239 1033 c 1
 1239 1033 1275 943 1275 846 c 0
 1275 827 1273 807 1270 788 c 2
 1131 0 l 1
 1018 0 l 1
 1157 788 l 2
 1160 804 1161 821 1161 839 c 0
 1161 874 1155 912 1143 947 c 1
 1048 879 981 863 962 855 c 1
 974 832 980 807 980 779 c 0
765 661 m 0
 812 661 865 699 865 758 c 0
 865 797 838 827 794 827 c 0
 743 827 694 784 694 729 c 0
 694 691 722 661 765 661 c 0
EndSplineSet
EndChar

StartChar: uni0E29
Encoding: 3625 3625 164
Width: 1483
VWidth: 2045
Flags: W
HStem: 0 112<297 410 523 1142> 432 150<814.544 1074.35> 749 112<826.044 976.418> 873 112<412.421 546.219> 1154 112<427.501 573.907>
VStem: 293 115<990.773 1134.34> 580 115<1005.66 1149.4> 692 116<587.095 730.148> 982 114<599.778 743.839>
DStem2: 390.251 0 503.251 0 0.173648 0.984808<133.35 904.683> 1122.25 0 1235 0 0.173648 0.984808<113.728 499.589 598.799 676.944 912.14 1273.28>
LayerCount: 2
Fore
SplineSet
1096 699 m 0xfd80
 1096 633 1070 587 1029 547 c 1
 1100 553 1168 581 1233 630 c 9
 1343 1254 l 9
 1456 1254 l 17
 1390 879 l 9
 1503 879 l 17
 1477 731 1392 632 1338 583 c 9
 1235 0 l 9
 277 0 l 1
 297 112 l 1
 410 112 l 17
 547 891 l 1
 519 879 490 873 459 873 c 0
 364 873 293 939 293 1034 c 0
 293 1170 415 1266 529 1266 c 0
 626 1266 695 1197 695 1104 c 0xfe80
 695 1093 693 1081 691 1069 c 2
 523 112 l 1
 1142 112 l 17
 1209 492 l 17
 1133 452 1053 432 972 432 c 0
 755 432 692 538 692 625 c 0
 692 771 822 861 930 861 c 0
 1031 861 1096 789 1096 699 c 0xfd80
480 985 m 0
 534 985 580 1030 580 1085 c 0
 580 1123 552 1154 509 1154 c 0
 457 1154 408 1110 408 1055 c 0
 408 1016 436 985 480 985 c 0
881 582 m 0
 932 582 982 625 982 681 c 0
 982 722 950 749 910 749 c 0
 858 749 808 707 808 651 c 0xfd80
 808 612 837 582 881 582 c 0
EndSplineSet
EndChar

StartChar: uni0E2A
Encoding: 3626 3626 165
Width: 1263
VWidth: 2045
Flags: W
HStem: -12 112<412.759 564.848> 267 112<442.83 576.995> 752 112<603.946 904.672> 1154 112<627.815 971.367>
VStem: 247 113<776 896.553> 294 115<105.161 330.658> 583 114<119.598 262.392> 1126 115<711.488 881.157> 1286 113<1185.42 1311>
DStem2: 982.884 -12 1095.88 -12 0.173648 0.984808<31.8074 456.987 708.775 853.138>
LayerCount: 2
Fore
SplineSet
511 267 m 0xf780
 459 267 409 224 409 168 c 0
 409 127 441 100 482 100 c 0
 533 100 583 142 583 198 c 0
 583 237 554 267 511 267 c 0xf780
697 218 m 0
 697 87 580 -12 462 -12 c 0
 360 -12 294 60 294 150 c 0xf780
 294 161 295 172 297 184 c 10
 331 375 l 2
 403 782 620 864 756 864 c 0
 862 864 978 899 1087 985 c 1
 1039 1081 941 1154 807 1154 c 256
 596 1154 396 983 360 776 c 9
 247 776 l 17xfb80
 295 1051 558 1266 827 1266 c 256
 988 1266 1111 1182 1175 1072 c 9
 1175 1072 1266 1197 1286 1311 c 9
 1399 1311 l 17
 1374 1167 1302 1056 1223 970 c 1
 1235 931 1241 890 1241 849 c 0
 1241 824 1239 800 1235 776 c 2
 1098 0 l 1
 985 0 l 1
 1051 372 l 2
 1055 395 1057 418 1057 440 c 0
 1057 624 918 752 737 752 c 256
 532 752 472 529 442 361 c 1
 471 373 500 379 530 379 c 0
 632 379 697 308 697 218 c 0
1123 882 m 1
 1093 861 1034 823 984 804 c 9
 984 804 1060 756 1106 686 c 1
 1122 776 l 2
 1125 792 1126 810 1126 830 c 0
 1126 847 1125 864 1123 882 c 1
EndSplineSet
EndChar

StartChar: uni0E2B
Encoding: 3627 3627 166
Width: 1338
VWidth: 2045
Flags: W
HStem: 0 21G<343 470.052 1079 1195.53> 843 142<1102.97 1196.51> 873 112<367.092 498.571> 1154 112<380.428 526.601 1117.9 1263.11>
VStem: 247 114<989.784 1134.64> 533 115<923.203 1147.36> 984 115<989.655 1136.72> 1209 116<501.875 830.821> 1269 115<1002.74 1148.2>
DStem2: 343 0 455.561 0 0.173648 0.984808<240.909 904.726> 494 218 456 0 0.574888 0.818232<0 860.477> 1079 0 1192 0 0.173648 0.984808<19.6222 757.904>
LayerCount: 2
Fore
SplineSet
1384 1105 m 0xbe80
 1384 1010 1326 943 1267 908 c 1
 1284 890 1325 851 1325 774 c 0
 1325 761 1324 747 1321 731 c 2
 1192 0 l 1
 1079 0 l 1
 1208 729 l 18
 1209 735 1209 740 1209 747 c 0
 1209 787 1189 843 1116 843 c 0xdf
 1068 843 1039 829 997 770 c 2
 456 0 l 1
 343 0 l 1
 500 891 l 1
 473 879 444 873 413 873 c 0
 313 873 247 943 247 1035 c 0
 247 1171 369 1266 481 1266 c 0
 579 1266 648 1197 648 1104 c 0
 648 1093 646 1081 644 1069 c 2
 494 218 l 1
 902 816 l 2
 941 872 969 901 1023 927 c 1
 997 959 984 992 984 1032 c 0
 984 1169 1106 1266 1219 1266 c 0
 1314 1266 1384 1198 1384 1105 c 0xbe80
1170 985 m 0
 1223 985 1269 1030 1269 1085 c 0xde80
 1269 1123 1242 1154 1199 1154 c 0
 1145 1154 1099 1108 1099 1054 c 0
 1099 1015 1127 985 1170 985 c 0
432 985 m 0xbe
 484 985 533 1030 533 1084 c 0
 533 1122 505 1154 461 1154 c 0
 414 1154 361 1114 361 1055 c 0
 361 1016 389 985 432 985 c 0xbe
EndSplineSet
EndChar

StartChar: uni0E2C
Encoding: 3628 3628 167
Width: 1445
VWidth: 2045
Flags: W
HStem: 0 21G<345 468.302 1173.74 1293.52> 873 112<367.092 500.839> 1154 112<380.495 526.203> 1229 112<1260.28 1395.93> 1509 112<1274.96 1423.24>
VStem: 247 114<989.784 1134.62> 532 117<917.23 1149.07> 1141 115<1347.43 1488.05> 1429 116<1441 1504.44>
DStem2: 345 0 458.286 0 0.173648 0.984808<19.6222 105.419 375.071 906.696> 1092 1254 1004 1060 0.161076 -0.986942<177.292 915.874> 1177.29 0 1290 0 0.173648 0.984808<355.399 1267.19>
AnchorPoint: "AboveBase" 1071 1370 basechar 0
LayerCount: 2
Fore
SplineSet
1328 1341 m 0xdf80
 1380 1341 1429 1385 1429 1439 c 0
 1429 1478 1402 1509 1358 1509 c 0
 1307 1509 1256 1464 1256 1410 c 0
 1256 1372 1284 1341 1328 1341 c 0xdf80
1141 1390 m 0
 1141 1522 1260 1621 1376 1621 c 0
 1480 1621 1545 1544 1545 1457 c 0
 1545 1452 1544 1446 1544 1441 c 9
 1644 1494 l 9
 1684 1397 l 17
 1521 1311 l 25
 1290 0 l 9
 1177 0 l 17
 1004 1060 l 25
 458 0 l 9
 345 0 l 25
 502 893 l 1
 473 880 444 873 413 873 c 0
 313 873 247 943 247 1035 c 0
 247 1171 369 1266 481 1266 c 0xef80
 579 1266 649 1197 649 1102 c 0
 649 1090 648 1078 646 1066 c 2
 520 350 l 25
 985 1254 l 9
 1092 1254 l 17
 1239 350 l 17
 1397 1248 l 1
 1368 1235 1339 1229 1309 1229 c 0
 1208 1229 1141 1299 1141 1390 c 0
432 985 m 0
 478 985 532 1025 532 1084 c 0
 532 1122 505 1154 461 1154 c 0
 409 1154 361 1109 361 1055 c 0
 361 1016 389 985 432 985 c 0
EndSplineSet
EndChar

StartChar: uni0E2D
Encoding: 3629 3629 168
Width: 1230
VWidth: 2045
Flags: W
HStem: 0 112<447 990> 468 112<550.697 696.724> 749 112<563.769 710.444> 1154 112<612.762 962.092>
VStem: 232 113<776 896.94> 716 115<599.356 744.694> 1113 114<569.188 1003.58>
DStem2: 314 0 427.251 0 0.173648 0.984808<133.394 515.142> 970.251 0 1083 0 0.173648 0.984808<113.728 852.041>
LayerCount: 2
Fore
SplineSet
831 699 m 0
 831 563 709 468 595 468 c 0
 566 468 538 475 513 488 c 1
 447 112 l 25
 990 112 l 17
 1107 776 l 2
 1111 798 1113 820 1113 841 c 0
 1113 1019 978 1154 791 1154 c 256
 584 1154 382 984 345 776 c 9
 232 776 l 17
 280 1049 541 1266 811 1266 c 256
 1061 1266 1227 1088 1227 861 c 0
 1227 833 1225 805 1220 776 c 2
 1083 0 l 9
 314 0 l 9
 431 662 l 18
 451 776 559 861 666 861 c 0
 763 861 831 792 831 699 c 0
646 749 m 0
 600 749 546 709 546 650 c 0
 546 612 572 580 616 580 c 0
 663 580 716 620 716 679 c 0
 716 718 689 749 646 749 c 0
EndSplineSet
EndChar

StartChar: uni0E2E
Encoding: 3630 3630 169
Width: 1192
VWidth: 2045
Flags: W
HStem: 0 112<319 900> 402 112<409.906 560.348> 680 112<424.146 572.057> 885 112<470.357 884.206> 1154 112<494.711 872.364>
VStem: 336 123<1021.75 1117.26> 577 114<532.127 675.014> 1023 117<580.438 984.724>
DStem2: 186 0 299.251 0 0.173648 0.984808<133.394 446.091> 880.251 0 993 0 0.173648 0.984808<113.728 854.95> 1039 1154 1099 1072 0.694693 0.719306<0 161.319>
LayerCount: 2
Fore
SplineSet
506 680 m 0
 455 680 406 637 406 582 c 0
 406 544 434 514 477 514 c 0
 529 514 577 556 577 612 c 0
 577 654 545 680 506 680 c 0
691 630 m 0
 691 496 569 402 455 402 c 0
 426 402 398 408 373 420 c 1
 319 112 l 1
 900 112 l 1
 1017 776 l 2
 1021 800 1023 822 1023 844 c 0
 1023 897 1011 945 991 986 c 1
 894 922 781 885 626 885 c 0
 495 885 336 944 336 1051 c 0
 336 1185 557 1266 714 1266 c 0
 858 1266 968 1225 1039 1154 c 1
 1074 1188 1109 1228 1148 1273 c 1
 1236 1217 l 1
 1190 1164 1145 1115 1099 1072 c 1
 1126 1019 1140 956 1140 886 c 0
 1140 851 1137 815 1130 776 c 2
 993 0 l 1
 186 0 l 1
 291 594 l 2
 312 711 423 792 526 792 c 0
 628 792 691 719 691 630 c 0
694 1154 m 0
 570 1154 459 1121 459 1064 c 0
 459 1006 622 997 676 997 c 0
 783 997 861 1021 932 1066 c 1
 872 1123 787 1154 694 1154 c 0
EndSplineSet
EndChar

StartChar: uni0E2F
Encoding: 3631 3631 170
Width: 1120
VWidth: 2045
Flags: W
HStem: 0 21G<848 964.525> 776 112<544.648 813.26> 1154 112<414.347 561.801>
VStem: 279 116<991.535 1135.12> 568 115<1004.34 1148.98>
DStem2: 848 0 961 0 0.173648 0.984808<19.6222 968.68 1098.34 1273.33>
LayerCount: 2
Fore
SplineSet
683 1104 m 0
 683 981 584 916 541 894 c 1
 565 890 593 888 624 888 c 256
 835 888 1034 1055 1069 1254 c 9
 1182 1254 l 25
 961 0 l 1
 848 0 l 1
 1016 954 l 17
 931 870 786 776 604 776 c 256
 347 776 279 907 279 1020 c 0
 279 1162 391 1266 515 1266 c 0
 617 1266 683 1195 683 1104 c 0
467 985 m 0
 519 985 568 1030 568 1084 c 0
 568 1122 540 1154 496 1154 c 0
 444 1154 395 1109 395 1055 c 0
 395 1016 423 985 467 985 c 0
EndSplineSet
EndChar

StartChar: uni0E30
Encoding: 3632 3632 171
Width: 1120
VWidth: 2045
Flags: W
HStem: 42 148<297.646 557.445> 359 112<309.776 458.396> 683 151<410.478 669.791> 1000 112<422.311 571.606>
VStem: 175 116<196.195 340.269> 288 116<838.682 981.578> 463 113<209.007 352.588> 576 114<851.841 994.871>
LayerCount: 2
Fore
SplineSet
690 947 m 0xf5
 690 870 659 826 592 782 c 1
 757 796 951 931 986 1130 c 9
 1099 1130 l 17
 1056 884 817 683 568 683 c 0
 351 683 288 790 288 876 c 0
 288 1024 422 1112 524 1112 c 0
 620 1112 690 1045 690 947 c 0xf5
475 834 m 0
 526 834 576 876 576 932 c 0
 576 973 544 1000 504 1000 c 0
 452 1000 404 958 404 902 c 0
 404 863 432 834 475 834 c 0
576 304 m 0xfa
 576 227 546 184 479 139 c 1
 645 154 838 290 873 489 c 9
 986 489 l 17
 943 246 707 42 455 42 c 0
 238 42 175 149 175 235 c 0
 175 383 308 471 411 471 c 0
 508 471 576 400 576 304 c 0xfa
362 190 m 0
 414 190 463 235 463 290 c 0
 463 332 430 359 391 359 c 0
 339 359 291 315 291 260 c 0
 291 219 322 190 362 190 c 0
EndSplineSet
EndChar

StartChar: uni0E31
Encoding: 3633 3633 172
Width: 0
VWidth: 2045
Flags: W
HStem: 1384 150<-367.921 -107.215> 1701 112<-355.382 -208.034>
VStem: -490 116<1538.21 1683.05> -202 113<1553.64 1696.26> 207 113<1710.35 1831>
AnchorPoint: "AboveMark" 38 2040 basemark 0
AnchorPoint: "AboveBase" 198 1370 mark 0
LayerCount: 2
Fore
SplineSet
-89 1646 m 0
 -89 1569 -120 1526 -187 1482 c 1
 -22 1494 172 1631 207 1831 c 9
 320 1831 l 17
 277 1589 44 1384 -210 1384 c 0
 -428 1384 -490 1490 -490 1576 c 0
 -490 1727 -357 1813 -254 1813 c 0
 -153 1813 -89 1740 -89 1646 c 0
-305 1534 m 0
 -255 1534 -202 1577 -202 1632 c 0
 -202 1670 -231 1701 -275 1701 c 0
 -327 1701 -374 1656 -374 1602 c 0
 -374 1564 -349 1534 -305 1534 c 0
EndSplineSet
EndChar

StartChar: uni0E32
Encoding: 3634 3634 173
Width: 1082
VWidth: 2045
Flags: W
HStem: 0 21G<837 953.531> 1154 112<561.026 883.202>
VStem: 251 113<846 960.994> 991 114<765.938 1046.53>
DStem2: 837 0 950 0 0.173648 0.984808<19.6222 913.222>
LayerCount: 2
Fore
SplineSet
729 1154 m 0
 549 1154 393 1013 364 846 c 9
 251 846 l 17
 292 1078 517 1266 749 1266 c 0
 954 1266 1105 1117 1105 917 c 0
 1105 893 1103 869 1099 844 c 10
 950 0 l 1
 837 0 l 1
 986 844 l 2
 989 864 991 883 991 901 c 0
 991 1050 880 1154 729 1154 c 0
EndSplineSet
EndChar

StartChar: uni0E34
Encoding: 3636 3636 175
Width: 0
VWidth: 2045
Flags: W
HStem: 1767 112<-537.496 -177.343>
DStem2: -674 1621 -867 1527 0.995353 -0.0962907<0 629.768>
AnchorPoint: "AboveMark" 134 2040 basemark 0
AnchorPoint: "AboveBase" 79 1370 mark 0
LayerCount: 2
Fore
SplineSet
-47 1562 m 17
 -117 1743 -267 1767 -350 1767 c 256
 -469 1767 -585 1715 -674 1621 c 1
 -47 1562 l 17
-867 1527 m 1
 -780 1710 -576 1879 -331 1879 c 256
 -74 1879 86 1695 86 1477 c 0
 86 1463 85 1449 84 1435 c 9
 -867 1527 l 1
EndSplineSet
EndChar

StartChar: uni0E35
Encoding: 3637 3637 176
Width: 0
VWidth: 2045
Flags: W
HStem: 1764 112<-537.996 -179.523>
DStem2: -675 1618 -867 1524 0.995353 -0.0962907<0 630.763> -29.432 1432 83.3075 1432 0.173648 0.984808<273.15 510.714>
AnchorPoint: "AboveBase" 83 1370 mark 0
AnchorPoint: "AboveMark" 134 2040 basemark 0
LayerCount: 2
Fore
SplineSet
-331 1876 m 256
 -171 1876 -52 1806 18 1701 c 9
 59 1935 l 1
 172 1935 l 9
 84 1432 l 9
 -867 1524 l 1
 -780 1707 -576 1876 -331 1876 c 256
-47 1559 m 17
 -117 1740 -268 1764 -351 1764 c 256
 -470 1764 -586 1712 -675 1618 c 1
 -47 1559 l 17
EndSplineSet
EndChar

StartChar: uni0E36
Encoding: 3638 3638 177
Width: 0
VWidth: 2045
Flags: W
HStem: 1762 112<-538.496 -236.401> 1966 112<-107.872 40.0038>
VStem: -240 113<1866 1946.58> 46 115<1815.45 1961.52>
DStem2: -675 1616 -868 1522 0.995353 -0.0962907<0 630.763>
AnchorPoint: "AboveBase" 68 1370 mark 0
AnchorPoint: "AboveMark" -12 2040 basemark 0
LayerCount: 2
Fore
SplineSet
161 1916 m 0
 161 1791 56 1724 13 1703 c 1
 53 1650 85 1570 85 1472 c 0
 85 1458 84 1444 83 1430 c 9
 -868 1522 l 1
 -781 1705 -577 1874 -332 1874 c 256
 -299 1874 -268 1871 -240 1866 c 1
 -240 1870 -239 1875 -238 1881 c 0
 -218 1996 -112 2078 -6 2078 c 0
 94 2078 161 2008 161 1916 c 0
-55 1797 m 0
 -3 1797 46 1842 46 1896 c 0
 46 1935 19 1966 -25 1966 c 0
 -77 1966 -127 1921 -127 1867 c 0
 -127 1829 -99 1797 -55 1797 c 0
-47 1557 m 17
 -117 1738 -268 1762 -351 1762 c 256
 -470 1762 -586 1710 -675 1616 c 1
 -47 1557 l 17
EndSplineSet
EndChar

StartChar: uni0E37
Encoding: 3639 3639 178
Width: 0
VWidth: 2045
Flags: W
HStem: 1764 112<-537.996 -180.673>
DStem2: -675 1618 -867 1524 0.995353 -0.0962907<0 630.763> -29.432 1432 83.3075 1432 0.173648 0.984808<273.15 510.714>
AnchorPoint: "AboveMark" 21 2040 basemark 0
AnchorPoint: "AboveBase" 67 1370 mark 0
LayerCount: 2
Fore
SplineSet
-867 1524 m 1
 -780 1707 -576 1876 -331 1876 c 256
 -277 1876 -227 1868 -181 1852 c 9
 -167 1935 l 1
 -54 1935 l 1
 -78 1799 l 17
 -39 1772 -6 1739 18 1701 c 9
 59 1935 l 1
 172 1935 l 9
 84 1432 l 9
 -867 1524 l 1
-47 1559 m 17
 -117 1740 -268 1764 -351 1764 c 256
 -470 1764 -586 1712 -675 1618 c 1
 -47 1559 l 17
EndSplineSet
EndChar

StartChar: uni0E38
Encoding: 3640 3640 179
Width: 0
VWidth: 2045
Flags: W
HStem: -474 112<-492.075 -357.071> -196 112<-478.966 -327.961>
VStem: -610 114<-357.576 -213.616> -324 115<-431.1 -202.204>
DStem2: -394 -671 -281 -671 0.173648 0.984808<19.6222 218.332>
AnchorPoint: "BelowMark" -175 -88 mark 0
AnchorPoint: "BelowMark" -286 -723 basemark 0
AnchorPoint: "BelowBase" -175 -88 mark 0
LayerCount: 2
Fore
SplineSet
-610 -313 m 0
 -610 -186 -497 -84 -375 -84 c 0
 -279 -84 -209 -153 -209 -245 c 0
 -209 -256 -210 -267 -212 -279 c 2
 -281 -671 l 1
 -394 -671 l 1
 -356 -456 l 1
 -383 -468 -413 -474 -444 -474 c 0
 -543 -474 -610 -404 -610 -313 c 0
-396 -196 m 0
 -442 -196 -496 -234 -496 -294 c 0
 -496 -332 -468 -362 -425 -362 c 0
 -378 -362 -324 -324 -324 -265 c 0
 -324 -226 -352 -196 -396 -196 c 0
EndSplineSet
Substitution2: "Thai Sara U Mai Ek Reordering" uni0E48.low
Substitution2: "Thai Sara U Mai Tho Reordering" uni0E49.low
Substitution2: "Thai Sara U Mai Tri Reordering" uni0E4A.low
Substitution2: "Thai Sara U Mai Chattawa Reordering" uni0E4B.low
Substitution2: "Thai Sara U Thanthakhat Reordering" uni0E4C.low
Substitution2: "Thai Sara U Nikhahit Reordering" uni0E4D
EndChar

StartChar: uni0E39
Encoding: 3641 3641 180
Width: 0
VWidth: 2045
Flags: W
HStem: -669 112<-543 -374> -474 112<-775.145 -639.307> -196 112<-762.139 -611.058>
VStem: -893 114<-357.399 -213.616> -606 115<-344.499 -202.574>
DStem2: -393.749 -669 -281 -669 0.173648 0.984808<113.728 593.955>
AnchorPoint: "BelowMark" -174 -85 mark 0
AnchorPoint: "BelowMark" -286 -723 basemark 0
AnchorPoint: "BelowBase" -174 -85 mark 0
LayerCount: 2
Fore
SplineSet
-893 -313 m 0
 -893 -186 -780 -84 -659 -84 c 0
 -562 -84 -491 -153 -491 -246 c 0
 -491 -257 -492 -268 -494 -279 c 2
 -543 -557 l 1
 -374 -557 l 25
 -291 -84 l 1
 -178 -84 l 1
 -281 -669 l 9
 -676 -669 l 1
 -638 -456 l 1
 -666 -468 -696 -474 -726 -474 c 0
 -828 -474 -893 -403 -893 -313 c 0
-679 -196 m 0
 -725 -196 -779 -234 -779 -294 c 0
 -779 -332 -751 -362 -708 -362 c 0
 -656 -362 -606 -321 -606 -266 c 0
 -606 -227 -635 -196 -679 -196 c 0
EndSplineSet
Substitution2: "Thai Sara UU Mai Ek Reordering" uni0E48.low
Substitution2: "Thai Sara UU Mai Tho Reordering" uni0E49.low
Substitution2: "Thai Sara UU Mai Tri Reordering" uni0E4A.low
Substitution2: "Thai Sara UU Mai Chattawa Reordering" uni0E4B.low
Substitution2: "Thai Sara UU Thanthakhat Reordering" uni0E4C.low
Substitution2: "Thai Sara UU Nikhahit Reordering" uni0E4D
EndChar

StartChar: uni0E3A
Encoding: 3642 3642 181
Width: 0
VWidth: 2045
Flags: W
HStem: -359 277<-444.108 -272.037>
VStem: -501 284<-304.575 -138.834>
AnchorPoint: "BelowMark" -201 -86 mark 0
AnchorPoint: "BelowMark" -258 -413 basemark 0
AnchorPoint: "BelowBase" -200 -86 mark 0
LayerCount: 2
Fore
SplineSet
-217 -196 m 0
 -217 -294 -304 -359 -383 -359 c 0
 -454 -359 -501 -309 -501 -245 c 0
 -501 -149 -413 -82 -334 -82 c 0
 -261 -82 -217 -133 -217 -196 c 0
EndSplineSet
Substitution2: "Thai Phinthu Maitaikhu Reordering" uni0E47
Substitution2: "Thai Phinthu Mai Ek Reordering" uni0E48.low
Substitution2: "Thai Phinthu Mai Tho Reordering" uni0E49.low
Substitution2: "Thai Phinthu Mai Tri Reordering" uni0E4A.low
Substitution2: "Thai Phinthu Mai Chattawa Reordering" uni0E4B.low
Substitution2: "Thai Phinthu Thanthakhat Reordering" uni0E4C.low
Substitution2: "Thai Phinthu Nikhahit Reordering" uni0E4D
EndChar

StartChar: uni0E3F
Encoding: 3647 3647 182
Width: 1364
VWidth: 2045
Flags: W
HStem: 0 136<308 518 678 990.917> 692 127<428 640 798 1058.94> 1314 136<516 750 910 1144.31>
VStem: 1179 150<314.441 590.811> 1232 141<968.794 1238.55>
DStem2: 132.549 -133 260.568 -133 0.173648 0.984808<295.38 859.951 988.842 1491.6> 495 -133 631 -133 0.173648 0.984808<23.6162 134.973 296.691 837.645 990.152 1469.3 1631.01 1754.54>
LayerCount: 2
Fore
SplineSet
1373 1143 m 0xe8
 1373 995 1281 850 1109 772 c 1
 1264 722 1329 609 1329 493 c 0xf0
 1329 394 1262 0 747 0 c 2
 654 0 l 25
 631 -133 l 1
 495 -133 l 1
 518 0 l 25
 156 0 l 1
 412 1450 l 1
 774 1450 l 25
 799 1595 l 9
 935 1595 l 17
 910 1450 l 25
 948 1450 l 2
 1308 1450 1373 1269 1373 1143 c 0xe8
865 819 m 2
 1008 819 1232 878 1232 1116 c 0xe8
 1232 1237 1150 1314 930 1314 c 2
 886 1314 l 17
 798 819 l 25
 865 819 l 2
792 136 m 2
 1098 136 1179 359 1179 466 c 0xf0
 1179 623 1024 692 866 692 c 2
 776 692 l 17
 678 136 l 25
 792 136 l 2
542 136 m 25
 640 692 l 9
 406 692 l 1
 308 136 l 1
 542 136 l 25
662 819 m 25
 750 1314 l 9
 516 1314 l 1
 428 819 l 1
 662 819 l 25
EndSplineSet
EndChar

StartChar: uni0E40
Encoding: 3648 3648 183
Width: 629
VWidth: 2045
Flags: W
HStem: -12 112<314.36 462.698> 267 112<343.01 474.935> 1234 20G<382.467 499>
VStem: 194 115<104.011 242.188> 481 115<120.326 260.406>
DStem2: 162.44 -12 276.23 -12 0.173648 0.984808<398.514 1285.59>
LayerCount: 2
Fore
SplineSet
408 267 m 0
 361 267 309 228 309 168 c 0
 309 131 335 100 379 100 c 0
 425 100 481 138 481 197 c 0
 481 236 451 267 408 267 c 0
596 218 m 0
 596 87 477 -12 360 -12 c 0
 261 -12 194 57 194 149 c 0
 194 160 195 172 197 184 c 10
 386 1254 l 9
 499 1254 l 17
 342 361 l 17
 371 373 400 379 430 379 c 0
 528 379 596 310 596 218 c 0
EndSplineSet
EndChar

StartChar: uni0E41
Encoding: 3649 3649 184
Width: 1173
VWidth: 2045
Flags: W
HStem: -12 112<314.36 462.698 878.259 1026.7> 267 112<343.01 474.935 907.523 1038.94> 1234 20G<382.467 499 946.467 1063>
VStem: 194 115<104.011 242.188> 481 115<120.326 260.406> 758 115<103.782 241.879> 1045 115<120.326 260.406>
DStem2: 162.44 -12 276.23 -12 0.173648 0.984808<398.514 1285.59> 726.44 -12 840.23 -12 0.173648 0.984808<398.514 1285.59>
LayerCount: 2
Fore
SplineSet
972 267 m 0
 923 267 873 226 873 167 c 0
 873 127 902 100 943 100 c 0
 989 100 1045 138 1045 197 c 0
 1045 236 1015 267 972 267 c 0
1160 218 m 0
 1160 87 1041 -12 924 -12 c 0
 825 -12 758 57 758 149 c 0
 758 160 759 172 761 184 c 10
 950 1254 l 9
 1063 1254 l 17
 906 361 l 17
 935 373 964 379 994 379 c 0
 1092 379 1160 310 1160 218 c 0
408 267 m 0
 361 267 309 228 309 168 c 0
 309 131 335 100 379 100 c 0
 425 100 481 138 481 197 c 0
 481 236 451 267 408 267 c 0
596 218 m 0
 596 87 477 -12 360 -12 c 0
 261 -12 194 57 194 149 c 0
 194 160 195 172 197 184 c 10
 386 1254 l 9
 499 1254 l 17
 342 361 l 17
 371 373 400 379 430 379 c 0
 528 379 596 310 596 218 c 0
EndSplineSet
EndChar

StartChar: uni0E42
Encoding: 3650 3650 185
Width: 757
VWidth: 2045
Flags: W
HStem: -12 112<483.716 632.073> 267 112<512.429 644.021> 1619 112<265 586.609> 1927 112<421.349 745.657>
VStem: 363 115<106.297 247.42> 601 115<1276.91 1604.03> 650 114<117.055 260.755> 852 115<1725.01 1817.36>
DStem2: 331.44 -12 445.23 -12 0.173648 0.984808<398.514 1561.17>
LayerCount: 2
Fore
SplineSet
579 267 m 0xfb
 527 267 478 223 478 168 c 0
 478 127 510 100 550 100 c 0
 602 100 650 142 650 198 c 0
 650 239 619 267 579 267 c 0xfb
764 218 m 0
 764 87 646 -12 530 -12 c 0
 430 -12 363 57 363 149 c 0
 363 160 364 172 366 184 c 2
 600 1507 l 2
 601 1513 601 1520 601 1526 c 0
 601 1577 563 1619 506 1619 c 2
 113 1619 l 1
 154 1851 378 2039 612 2039 c 0
 823 2039 945 1895 967 1728 c 9
 852 1704 l 17
 842 1791 772 1927 592 1927 c 0
 417 1927 304 1799 265 1731 c 9
 526 1731 l 2
 642 1731 716 1651 716 1547 c 0xfd
 716 1534 715 1521 713 1507 c 2
 511 361 l 1
 538 373 567 379 598 379 c 0
 698 379 764 309 764 218 c 0
EndSplineSet
EndChar

StartChar: uni0E43
Encoding: 3651 3651 186
Width: 867
VWidth: 2045
Flags: W
HStem: -12 112<559.716 708.073> 267 112<588.429 720.021> 1501 112<401.226 547.621> 1781 112<469.473 561.724> 1924 112<471.955 685.324>
VStem: 262 134<1616.99 1762.16> 439 115<106.297 326.874> 566 114<1633.43 1774.9> 722 115<115.763 263.236 1697.01 1887>
DStem2: 407.44 -12 521.23 -12 0.173648 0.984808<398.514 1824.85>
LayerCount: 2
Fore
SplineSet
840 218 m 0
 840 87 722 -12 606 -12 c 0
 506 -12 439 57 439 149 c 0
 439 160 440 172 442 184 c 2
 719 1755 l 2
 721 1766 722 1776 722 1786 c 0
 722 1866 663 1924 580 1924 c 0
 539 1924 502 1912 469 1888 c 1
 485 1891 500 1893 515 1893 c 0
 611 1893 680 1825 680 1732 c 0
 680 1601 564 1501 446 1501 c 0
 374 1501 262 1541 262 1690 c 0
 262 1887 425 2036 600 2036 c 0
 737 2036 837 1939 837 1805 c 0
 837 1789 835 1772 832 1755 c 2
 587 361 l 1
 614 373 643 379 674 379 c 0
 774 379 840 309 840 218 c 0
465 1613 m 0
 511 1613 566 1653 566 1712 c 0
 566 1750 538 1781 495 1781 c 0
 444 1781 396 1737 396 1683 c 0
 396 1645 422 1613 465 1613 c 0
655 267 m 0
 603 267 554 223 554 168 c 0
 554 127 586 100 626 100 c 0
 678 100 726 142 726 198 c 0
 726 239 695 267 655 267 c 0
EndSplineSet
EndChar

StartChar: uni0E44
Encoding: 3652 3652 187
Width: 811
VWidth: 2045
Flags: W
HStem: -12 112<506.259 654.698> 267 112<535.523 666.935>
VStem: 309 115<1774.41 2165.51> 386 115<103.782 335.208> 673 115<120.326 260.406>
DStem2: -48.3093 -12 64.7127 -12 0.173648 0.984808<1731.64 2075.42> 354.44 -12 468.23 -12 0.173648 0.984808<398.514 1909.01> 362 1674 344 1521 0.702117 0.712062<0 365.626>
LayerCount: 2
Fore
SplineSet
788 218 m 0xe8
 788 87 669 -12 552 -12 c 0
 453 -12 386 57 386 149 c 0xd8
 386 160 387 172 389 184 c 2
 686 1868 l 17
 344 1521 l 25
 222 1521 l 25
 306 1997 l 2
 308 2010 309 2021 309 2033 c 0
 309 2072 298 2106 273 2136 c 9
 366 2214 l 17
 405 2168 424 2115 424 2054 c 0
 424 2036 422 2017 419 1997 c 2
 362 1674 l 9
 715 2032 l 9
 828 2032 l 25
 534 361 l 1
 563 373 592 379 622 379 c 0
 720 379 788 310 788 218 c 0xe8
600 267 m 0
 551 267 501 226 501 167 c 0
 501 127 530 100 571 100 c 0
 617 100 673 138 673 197 c 0
 673 236 643 267 600 267 c 0
EndSplineSet
EndChar

StartChar: uni0E45
Encoding: 3653 3653 188
Width: 1082
VWidth: 2045
Flags: W
HStem: 1154 112<434.535 747.951>
VStem: 122 113<846 960.641> 861 114<764.811 1039.98>
DStem2: 610 -548 723 -548 0.173648 0.984808<19.6222 1467.77>
LayerCount: 2
Fore
SplineSet
599 1154 m 0
 430 1154 266 1021 235 846 c 9
 122 846 l 17
 163 1077 383 1266 619 1266 c 0
 829 1266 975 1116 975 918 c 0
 975 894 973 869 969 844 c 10
 723 -548 l 25
 610 -548 l 17
 856 844 l 18
 859 863 861 881 861 899 c 0
 861 1046 752 1154 599 1154 c 0
EndSplineSet
EndChar

StartChar: uni0E46
Encoding: 3654 3654 189
Width: 1173
VWidth: 2045
Flags: W
HStem: 629 112<433.591 583.303> 909 112<448.126 596.368> 1246 20G<571.5 683.398 888.337 947.5>
VStem: 279 150<746.645 961.251> 601 115<758.628 904.276> 1015 114<841.179 1104.07>
DStem2: 749 -548 862 -548 0.173648 0.984808<19.6222 1562.76>
LayerCount: 2
Fore
SplineSet
716 860 m 0
 716 729 597 629 481 629 c 0
 349 629 279 715 279 847 c 0
 279 1092 489 1246 654 1266 c 1
 776 1183 l 1
 924 1266 l 1
 971 1259 1129 1210 1129 1004 c 0
 1129 978 1126 951 1121 920 c 2
 862 -548 l 1
 749 -548 l 1
 1008 918 l 2
 1013 945 1015 971 1015 993 c 0
 1015 1068 985 1115 904 1136 c 1
 752 1051 l 1
 619 1142 l 17
 548 1132 439 1079 404 958 c 1
 444 999 493 1021 550 1021 c 0
 655 1021 716 948 716 860 c 0
501 741 m 0
 554 741 601 784 601 840 c 0
 601 878 575 909 530 909 c 0
 475 909 429 862 429 809 c 0
 429 768 461 741 501 741 c 0
EndSplineSet
EndChar

StartChar: uni0E47
Encoding: 3655 3655 190
Width: 0
VWidth: 2045
Flags: W
HStem: 1398 86<-268.819 -96.7747> 1502 110<-517.055 -375.319> 1596 83<-200.259 -92.3924> 1761 101<-565.289 -44.3863>
VStem: -743 113<1507.62 1699.54> -294 88<1511 1590.8> -91 84<1489.85 1594.44>
AnchorPoint: "AboveMark" -293 2040 basemark 0
AnchorPoint: "AboveBase" -39 1370 mark 0
LayerCount: 2
Fore
SplineSet
-630 1584 m 0xde
 -630 1543 -614 1515 -580 1504 c 1
 -572 1545 -532 1612 -464 1612 c 0xde
 -380 1612 -354 1516 -294 1510 c 1
 -275 1660 -162 1679 -125 1679 c 0xbe
 -54 1679 -7 1629 -7 1564 c 0
 -7 1493 -69 1398 -189 1398 c 8
 -366 1398 -368 1502 -453 1502 c 0
 -517 1502 -531 1423 -531 1398 c 1
 -628 1401 -743 1435 -743 1570 c 0
 -743 1691 -659 1862 -363 1862 c 0
 -341 1862 -297 1860 -254 1860 c 0
 -126 1860 -64 1865 35 1978 c 1
 98 1905 l 1
 -28 1772 -121 1759 -258 1759 c 0
 -296 1759 -314 1761 -351 1761 c 0
 -506 1761 -630 1732 -630 1584 c 0xde
-91 1550 m 0
 -91 1576 -110 1596 -139 1596 c 0xbe
 -177 1596 -206 1565 -206 1529 c 0
 -206 1503 -188 1484 -158 1484 c 0
 -119 1484 -91 1518 -91 1550 c 0
EndSplineSet
Substitution2: "Thai Mark High Variant" uni0E47.high
Substitution2: "Thai Phinthu Maitaikhu Reordering" uni0E3A
EndChar

StartChar: uni0E48
Encoding: 3656 3656 191
Width: 0
VWidth: 2045
Flags: W
HStem: 2117 305<145 204>
VStem: 91 167
DStem2: 91 2117 204 2117 0.173648 0.984808<19.6222 309.743>
AnchorPoint: "AboveMark" 217 2512 basemark 0
AnchorPoint: "AboveMark" 134 2040 mark 0
LayerCount: 2
Fore
SplineSet
145 2422 m 25
 258 2422 l 1
 204 2117 l 1
 91 2117 l 1
 145 2422 l 25
EndSplineSet
MultipleSubs2: "Thai Tone Nikhahit Attachment" uni0E4D uni0E48
Substitution2: "Thai Tone Low Variant" uni0E48.low
Substitution2: "Thai Sara U Mai Ek Reordering" uni0E38
Substitution2: "Thai Sara UU Mai Ek Reordering" uni0E39
Substitution2: "Thai Phinthu Mai Ek Reordering" uni0E3A
EndChar

StartChar: uni0E49
Encoding: 3657 3657 192
Width: 0
VWidth: 2045
Flags: W
HStem: 2067 89<74 232.246> 2212 57<24.3848 38> 2359 68<28.081 113.986>
VStem: -45 68<2270.1 2353.17> 115 69<2273.43 2358.64> 432 91<2344.68 2458>
AnchorPoint: "AboveMark" 217 2512 basemark 0
AnchorPoint: "AboveMark" 134 2040 mark 0
LayerCount: 2
Back
SplineSet
-294 2340 m 0
 -294 2425 -219 2507 -126 2507 c 0
 -54 2507 -8 2457 -8 2392 c 0
 -8 2365 -18 2317 -45 2285 c 2
 -145 2168 l 1
 66 2168 266 2338 303 2546 c 265
 417 2546 l 273
 371 2286 123 2057 -164 2057 c 10
 -277 2057 l 1
 -258 2168 l 1
 -190 2238 l 17
 -234 2238 -294 2269 -294 2340 c 0
-161 2310 m 0
 -124 2310 -94 2343 -94 2376 c 0
 -94 2402 -111 2422 -141 2422 c 0
 -175 2422 -209 2393 -209 2357 c 0
 -209 2332 -190 2310 -161 2310 c 0
EndSplineSet
Fore
SplineSet
-45 2293 m 0
 -45 2362 16 2427 90 2427 c 0
 148 2427 184 2387 184 2335 c 0
 184 2309 174 2272 155 2249 c 2
 74 2156 l 1
 243 2156 403 2292 432 2458 c 265
 523 2458 l 273
 487 2250 288 2067 58 2067 c 10
 -32 2067 l 1
 -16 2156 l 1
 38 2212 l 17
 3 2212 -45 2236 -45 2293 c 0
62 2269 m 0
 90 2269 115 2295 115 2322 c 0
 115 2343 102 2359 78 2359 c 0
 48 2359 23 2333 23 2307 c 0
 23 2287 38 2269 62 2269 c 0
EndSplineSet
MultipleSubs2: "Thai Tone Nikhahit Attachment" uni0E4D uni0E49
Substitution2: "Thai Tone Low Variant" uni0E49.low
Substitution2: "Thai Sara U Mai Tho Reordering" uni0E38
Substitution2: "Thai Sara UU Mai Tho Reordering" uni0E39
Substitution2: "Thai Phinthu Mai Tho Reordering" uni0E3A
EndChar

StartChar: uni0E4A
Encoding: 3658 3658 193
Width: 0
VWidth: 2045
Flags: W
HStem: 2067 89<246 328.117> 2067 67<-32.8358 53.0661> 2224 68<-29.3005 56.9294> 2335 90<-30.4886 128.757 190.68 346.786>
VStem: -142 108<2135.1 2273.38> 58 69<2138.28 2223.75> 353 93<2213.15 2329.24> 604 91<2347.05 2458>
AnchorPoint: "AboveMark" 217 2512 basemark 0
AnchorPoint: "AboveMark" 134 2040 mark 0
LayerCount: 2
Back
SplineSet
39 2178 m 1,0,-1
-447 2232 m 0,1,-1
 -447 2405 -310 2514 -176 2514 c 16,4,-1
 -123 2514 -80 2499 -47 2468 c 1,7,-1
 -2 2499 45 2514 98 2514 c 0,10,-1
 215 2514 288 2434 288 2330 c 0,13,-1
 288 2297 280 2263 274 2248 c 1,16,-1
 374 2313 463 2422 487 2556 c 265,19,-1
 601 2556 l 273,20,-1
 551 2272 282 2067 19 2067 c 9,23,-1
 39 2178 l 17,24,-1
 161 2201 174 2278 174 2308 c 0,27,-1
 174 2360 136 2402 79 2402 c 8,30,-1
 39 2402 3 2384 -33 2343 c 1,33,-1
 -106 2343 l 1,34,-1
 -114 2361 -136 2402 -198 2402 c 24,37,-1
 -270 2402 -328 2335 -336 2290 c 1,40,-1
 -312 2329 -273 2348 -219 2348 c 0,43,-1
 -156 2348 -109 2303 -109 2236 c 0,46,-1
 -109 2144 -188 2067 -278 2067 c 0,49,-1
 -357 2067 -447 2105 -447 2232 c 0,1,-1
-263 2151 m 0,52,-1
 -230 2151 -196 2181 -196 2218 c 0,55,-1
 -196 2245 -216 2263 -243 2263 c 0,58,-1
 -277 2263 -311 2233 -311 2197 c 0,61,-1
 -311 2171 -292 2151 -263 2151 c 0,52,-1
EndSplineSet
Fore
SplineSet
246 2156 m 1,0,-1
-142 2200 m 0,1,-1
 -142 2340 -30 2425 75 2425 c 16,4,-1
 117 2425 150 2413 177 2388 c 1,7,-1
 213 2413 252 2425 294 2425 c 0,10,-1
 388 2425 446 2361 446 2278 c 0,13,-1
 446 2254 441 2231 434 2212 c 1,16,-1
 514 2264 586 2351 604 2458 c 265,19,-1
 695 2458 l 273,20,-1
 655 2231 440 2067 230 2067 c 9,23,-1
 246 2156 l 17,24,-1
 344 2173 353 2236 353 2261 c 0,27,-1
 353 2302 323 2335 278 2335 c 8,30,-1
 246 2335 217 2321 188 2288 c 1,33,-1
 130 2288 l 1,34,-1
 124 2302 106 2335 56 2335 c 24,37,-1
 -1 2335 -48 2282 -54 2246 c 1,40,-1
 -35 2277 -4 2292 40 2292 c 0,43,-1
 90 2292 127 2256 127 2202 c 0,46,-1
 127 2129 65 2067 -8 2067 c 0,49,-1
 -71 2067 -142 2098 -142 2200 c 0,1,-1
4 2134 m 0,52,-1
 31 2134 58 2158 58 2188 c 0,55,-1
 58 2210 41 2224 20 2224 c 0,58,-1
 -10 2224 -34 2198 -34 2171 c 0,61,-1
 -34 2150 -19 2134 4 2134 c 0,52,-1
EndSplineSet
MultipleSubs2: "Thai Tone Nikhahit Attachment" uni0E4D uni0E4A
Substitution2: "Thai Tone Low Variant" uni0E4A.low
Substitution2: "Thai Sara U Mai Tri Reordering" uni0E38
Substitution2: "Thai Sara UU Mai Tri Reordering" uni0E39
Substitution2: "Thai Phinthu Mai Tri Reordering" uni0E3A
EndChar

StartChar: uni0E4B
Encoding: 3659 3659 194
Width: 0
VWidth: 2045
Flags: W
HStem: 2220 111<18 107 239 327>
VStem: -2 349
DStem2: 86 2097 198 2097 0.173648 0.984808<19.4486 124.778 257.013 363.501>
AnchorPoint: "AboveMark" 217 2512 basemark 0
AnchorPoint: "AboveMark" 134 2040 mark 0
LayerCount: 2
Back
SplineSet
210 2246 m 1
 61 2246 l 1
 35 2097 l 1
 -78 2097 l 1
 -52 2246 l 1
 -202 2246 l 1
 -182 2358 l 1
 -32 2358 l 1
 -6 2508 l 1
 107 2508 l 1
 81 2358 l 1
 230 2358 l 1
 210 2246 l 1
EndSplineSet
Fore
SplineSet
327 2220 m 1
 219 2220 l 1
 198 2097 l 1
 86 2097 l 1
 107 2220 l 1
 -2 2220 l 1
 18 2331 l 1
 127 2331 l 1
 149 2455 l 1
 261 2455 l 1
 239 2331 l 1
 347 2331 l 1
 327 2220 l 1
EndSplineSet
MultipleSubs2: "Thai Tone Nikhahit Attachment" uni0E4D uni0E4B
Substitution2: "Thai Tone Low Variant" uni0E4B.low
Substitution2: "Thai Sara U Mai Chattawa Reordering" uni0E38
Substitution2: "Thai Sara UU Mai Chattawa Reordering" uni0E39
Substitution2: "Thai Phinthu Mai Chattawa Reordering" uni0E3A
EndChar

StartChar: uni0E4C
Encoding: 3660 3660 195
Width: 0
VWidth: 2045
Flags: W
HStem: 2079 89<-14.5708 111.82> 2302 88<-4.68903 120.72 207 475.777>
VStem: -108 91<2170.72 2292.44> 122 91<2178.21 2300.87>
AnchorPoint: "AboveMark" 217 2512 basemark 0
AnchorPoint: "AboveMark" 134 2040 mark 0
LayerCount: 2
Back
SplineSet
-331 2240 m 0
 -331 2355 -226 2468 -96 2468 c 10
 255 2468 l 2
 310 2468 360 2487 405 2526 c 9
 471 2447 l 17
 400 2387 321 2357 236 2357 c 2
 64 2357 l 17
 69 2341 72 2324 72 2306 c 0
 72 2196 -32 2079 -163 2079 c 0
 -264 2079 -331 2150 -331 2240 c 0
-144 2190 m 0
 -88 2190 -43 2239 -43 2289 c 0
 -43 2327 -70 2357 -114 2357 c 0
 -170 2357 -216 2308 -216 2259 c 0
 -216 2220 -188 2190 -144 2190 c 0
EndSplineSet
Fore
SplineSet
-108 2208 m 0
 -108 2303 -21 2390 79 2390 c 10
 360 2390 l 2
 404 2390 444 2406 481 2437 c 9
 534 2374 l 17
 476 2326 413 2302 345 2302 c 2
 207 2302 l 17
 211 2290 213 2276 213 2262 c 0
 213 2170 129 2079 26 2079 c 0
 -55 2079 -108 2135 -108 2208 c 0
41 2168 m 0
 83 2168 122 2204 122 2246 c 0
 122 2277 100 2302 65 2302 c 0
 22 2302 -17 2267 -17 2224 c 0
 -17 2192 5 2168 41 2168 c 0
EndSplineSet
MultipleSubs2: "Thai Tone Nikhahit Attachment" uni0E4D uni0E4C
Substitution2: "Thai Tone Low Variant" uni0E4C.low
Substitution2: "Thai Sara U Thanthakhat Reordering" uni0E38
Substitution2: "Thai Sara UU Thanthakhat Reordering" uni0E39
Substitution2: "Thai Phinthu Thanthakhat Reordering" uni0E3A
EndChar

StartChar: uni0E4D
Encoding: 3661 3661 196
Width: 0
VWidth: 2045
Flags: W
HStem: 1401 112<-193.066 -44.5885> 1681 112<-177.715 -31.4124>
VStem: -313 114<1519.64 1661.28> -26 116<1531.05 1675.71>
AnchorPoint: "AboveMark" -34 2040 basemark 0
AnchorPoint: "AboveBase" 47 1370 mark 0
LayerCount: 2
Back
SplineSet
-317.812 1555 m 132
 -308.29 1609 -280.816 1655.17 -235.391 1693.5 c 132
 -189.965 1731.83 -139.752 1751 -84.752 1751 c 132
 -29.752 1751 13.7018 1731.83 45.6094 1693.5 c 132
 77.5169 1655.17 88.71 1609 79.1885 1555 c 132
 69.667 1501 42.1933 1454.83 -3.23242 1416.5 c 132
 -48.6589 1378.17 -98.8721 1359 -153.872 1359 c 132
 -208.872 1359 -252.325 1378.17 -284.232 1416.5 c 132
 -316.14 1454.83 -327.333 1501 -317.812 1555 c 132
-204.988 1554 m 132
 -209.102 1530.67 -204.07 1511 -189.892 1495 c 132
 -175.713 1479 -156.956 1471 -133.623 1471 c 132
 -110.29 1471 -88.8792 1479 -69.3916 1495 c 132
 -49.9033 1511 -38.1022 1530.67 -33.9883 1554 c 132
 -29.8737 1577.33 -34.6803 1597.33 -48.4082 1614 c 132
 -62.1361 1630.67 -80.6667 1639 -104 1639 c 132
 -127.333 1639 -148.969 1630.67 -168.908 1614 c 132
 -188.847 1597.33 -200.873 1577.33 -204.988 1554 c 132
EndSplineSet
Fore
SplineSet
90 1630 m 0
 90 1514 -19 1401 -147 1401 c 0
 -248 1401 -313 1472 -313 1562 c 0
 -313 1687 -198 1793 -78 1793 c 0
 25 1793 90 1721 90 1630 c 0
-126 1513 m 0
 -73 1513 -26 1559 -26 1612 c 0
 -26 1652 -57 1681 -97 1681 c 0
 -157 1681 -199 1627 -199 1582 c 0
 -199 1540 -166 1513 -126 1513 c 0
EndSplineSet
Substitution2: "Thai Mark High Variant" uni0E4D.high
Substitution2: "Thai Sara U Nikhahit Reordering" uni0E38
Substitution2: "Thai Sara UU Nikhahit Reordering" uni0E39
Substitution2: "Thai Phinthu Nikhahit Reordering" uni0E3A
EndChar

StartChar: uni0E4E
Encoding: 3662 3662 197
Width: 0
VWidth: 2045
Flags: W
HStem: 1420 112<-285.753 -227> 1756 112<-262.317 -128.402> 1993 112<17.0067 194.815>
VStem: -417 115<1545.97 1717.16> 209 114<1881 1979.53>
AnchorPoint: "AboveMark" 23 2162 basemark 0
AnchorPoint: "AboveBase" 102 1370 mark 0
LayerCount: 2
Fore
SplineSet
-134 1866 m 1
 -96 2056 51 2105 134 2105 c 0
 250 2105 323 2023 323 1920 c 0
 323 1907 322 1894 320 1881 c 1
 207 1881 l 1
 208 1887 209 1893 209 1899 c 0
 209 1951 171 1993 113 1993 c 0
 46 1993 -21 1932 -21 1860 c 0
 -21 1838 -14 1818 1 1802 c 1
 -13 1722 l 1
 -92 1722 l 1
 -111 1745 -136 1756 -166 1756 c 0
 -234 1756 -302 1694 -302 1624 c 0
 -302 1571 -262 1532 -207 1532 c 1
 -227 1420 l 1
 -338 1420 -417 1498 -417 1603 c 0
 -417 1745 -287 1867 -148 1868 c 0
 -143 1868 -139 1867 -134 1866 c 1
EndSplineSet
Substitution2: "Thai Mark High Variant" uni0E4E.high
EndChar

StartChar: uni0E4F
Encoding: 3663 3663 198
Width: 977
VWidth: 2045
Flags: W
HStem: 0 112<350.952 682.95> 225 112<466.046 645.678> 560 112<488.385 668.178> 782 112<451.164 783.101>
VStem: 109 114<234.671 557.062> 337 115<349.824 523.828> 682 114<376.067 546.477> 910 115<331.148 659.76>
LayerCount: 2
Fore
SplineSet
547 337 m 0
 613 337 682 393 682 468 c 0
 682 522 641 560 587 560 c 0
 522 560 452 505 452 429 c 0
 452 376 492 337 547 337 c 0
796 487 m 0
 796 339 665 225 528 225 c 0
 411 225 337 307 337 409 c 0
 337 558 469 672 606 672 c 0
 722 672 796 590 796 487 c 0
626 782 m 0
 425 782 223 612 223 387 c 0
 223 229 340 112 508 112 c 0
 710 112 910 281 910 507 c 0
 910 665 794 782 626 782 c 0
488 0 m 0
 265 0 109 162 109 371 c 0
 109 665 381 894 646 894 c 0
 870 894 1025 733 1025 524 c 0
 1025 230 753 0 488 0 c 0
EndSplineSet
EndChar

StartChar: uni0E50
Encoding: 3664 3664 199
Width: 1267
VWidth: 2045
Flags: W
HStem: -12 112<463.652 849.821> 782 112<570.283 956.005>
VStem: 194 114<244.735 553.357> 1111 115<328.736 633.512>
LayerCount: 2
Fore
SplineSet
770 782 m 0
 536 782 308 609 308 391 c 0
 308 232 445 100 650 100 c 0
 884 100 1111 274 1111 490 c 0
 1111 648 975 782 770 782 c 0
630 -12 m 0
 369 -12 194 164 194 374 c 0
 194 664 493 894 790 894 c 0
 1050 894 1226 722 1226 510 c 0
 1226 216 928 -12 630 -12 c 0
EndSplineSet
EndChar

StartChar: uni0E51
Encoding: 3665 3665 200
Width: 1318
VWidth: 2045
Flags: W
HStem: -12 112<399.746 600.929> 384 112<629.551 779.067> 782 112<586.087 977.149>
VStem: 189 115<196.981 517.833> 497 115<222.908 366.248> 783 113<238.618 378.323> 1148 117<244.15 613.826>
LayerCount: 2
Fore
SplineSet
497 263 m 0
 497 397 615 496 731 496 c 0
 819 496 896 441 896 328 c 0
 896 159 708 -12 518 -12 c 0
 300 -12 189 134 189 322 c 0
 189 599 449 894 812 894 c 0
 1032 894 1265 757 1265 469 c 0
 1265 108 971 -77 803 -137 c 1
 784 -50 l 1
 971 15 1148 186 1148 437 c 0
 1148 636 1010 782 792 782 c 0
 526 782 304 575 304 345 c 0
 304 160 449 100 537 100 c 0
 568 100 591 109 605 121 c 1
 577 124 497 161 497 263 c 0
682 218 m 0
 729 218 783 256 783 315 c 0
 783 354 756 384 712 384 c 0
 661 384 612 341 612 286 c 0
 612 248 639 218 682 218 c 0
EndSplineSet
EndChar

StartChar: uni0E52
Encoding: 3666 3666 201
Width: 1519
VWidth: 2045
Flags: W
HStem: 0 112<317 1216.57> 237 112<629.206 778.924> 517 112<641.672 792.166> 782 112<728.601 982.614 1151.02 1365.4> 1205 112<304 367.179>
VStem: 379 114<867.812 1191.15> 492 132<355.707 575.031> 798 113<369.951 512.153> 1404 111<352.235 742.515>
DStem2: 184 0 297.251 0 0.173648 0.984808<133.394 1132.58>
LayerCount: 2
Fore
SplineSet
911 468 m 0xfd80
 911 336 796 237 676 237 c 0
 635 237 492 257 492 448 c 0xfb80
 492 740 730 894 890 894 c 0
 974 894 1038 861 1082 794 c 1
 1153 861 1221 894 1286 894 c 0
 1385 894 1515 837 1515 602 c 0
 1515 279 1310 0 1082 0 c 10
 184 0 l 1
 377 1094 l 2
 378 1102 379 1109 379 1116 c 0
 379 1171 337 1205 284 1205 c 9
 304 1317 l 17
 415 1317 493 1239 493 1134 c 0
 493 1121 492 1108 490 1094 c 2
 317 112 l 1
 1104 112 l 18
 1227 112 1404 284 1404 598 c 0
 1404 753 1326 782 1266 782 c 0
 1161 782 1123 719 1109 637 c 2
 1093 547 l 1
 980 547 l 1
 996 637 l 2
 998 650 1000 663 1000 675 c 0
 1000 740 963 782 858 782 c 0
 712 782 612 653 594 553 c 1
 637 601 688 629 745 629 c 0
 850 629 911 557 911 468 c 0xfd80
696 349 m 0
 747 349 798 394 798 448 c 0
 798 486 769 517 725 517 c 0
 673 517 624 473 624 419 c 0
 624 380 652 349 696 349 c 0
EndSplineSet
EndChar

StartChar: uni0E53
Encoding: 3667 3667 202
Width: 1519
VWidth: 2045
Flags: W
HStem: -12 112<369.904 519.119> 267 112<383.807 530.741> 782 112<491.798 802.279 1060.39 1309.12>
VStem: 178 115<285.099 560.885> 537 114<117.055 260.566> 1359 115<508.214 732.885>
DStem2: 741.884 -12 854.884 -12 0.173648 0.984808<31.8074 642.762> 1250.88 -12 1363.88 -12 0.173648 0.984808<31.8074 641.649>
LayerCount: 2
Fore
SplineSet
651 218 m 0
 651 87 534 -12 416 -12 c 0
 312 -12 178 74 178 307 c 0
 178 655 387 894 705 894 c 0
 865 894 919 789 937 763 c 1
 960 788 1050 894 1213 894 c 0
 1369 894 1474 784 1474 640 c 0
 1474 622 1472 604 1469 586 c 2
 1366 0 l 1
 1253 0 l 1
 1356 586 l 2
 1358 598 1359 610 1359 621 c 0
 1359 712 1293 782 1193 782 c 0
 1087 782 980 701 960 586 c 2
 857 0 l 1
 744 0 l 1
 847 586 l 2
 849 598 851 610 851 622 c 0
 851 717 780 782 685 782 c 0
 402 782 293 572 293 337 c 0
 293 315 295 297 300 284 c 1
 321 313 384 379 485 379 c 0
 584 379 651 309 651 218 c 0
466 267 m 0
 420 267 365 227 365 168 c 0
 365 129 394 100 437 100 c 0
 489 100 537 142 537 198 c 0
 537 236 509 267 466 267 c 0
EndSplineSet
EndChar

StartChar: uni0E54
Encoding: 3668 3668 203
Width: 1519
VWidth: 2045
Flags: W
HStem: 0 112<425.607 785 913.875 1332> 275 112<820.646 969.568> 553 112<837.377 982.304> 782 112<523.873 1454.44>
VStem: 182 114<232.782 560.558> 665 152<204.336 279 297.65 534.471> 988 115<406.244 548.807> 1558 113<993.742 1091>
LayerCount: 2
Fore
SplineSet
1103 504 m 0
 1103 373 982 275 868 275 c 0
 847 275 829 276 817 279 c 1
 832 174 958 112 1124 112 c 10
 1352 112 l 1
 1332 0 l 1
 561 0 l 2
 339 0 182 161 182 370 c 0
 182 658 443 894 722 894 c 2
 1326 894 l 2
 1439 894 1539 984 1558 1091 c 9
 1671 1091 l 17
 1641 921 1480 782 1306 782 c 2
 702 782 l 2
 493 782 296 609 296 386 c 0
 296 223 419 112 581 112 c 2
 785 112 l 17
 701 178 665 283 665 379 c 0
 665 539 777 665 937 665 c 0
 1036 665 1103 595 1103 504 c 0
887 387 m 0
 933 387 988 425 988 484 c 0
 988 522 961 553 917 553 c 0
 866 553 817 509 817 455 c 0
 817 416 844 387 887 387 c 0
EndSplineSet
EndChar

StartChar: uni0E55
Encoding: 3669 3669 204
Width: 1519
VWidth: 2045
Flags: W
HStem: 0 112<425.607 785 913.875 1332> 275 112<820.646 969.568> 553 112<837.377 982.304> 782 135<765.46 915.754> 782 112<995 1454.44> 1084 112<778.215 930.157>
VStem: 182 114<232.782 558.011> 646 115<921.621 1066.08> 665 152<204.336 279 297.65 534.471> 934 114<935.344 1078.92> 988 115<406.244 548.807> 1558 113<993.742 1091>
LayerCount: 2
Fore
SplineSet
646 964 m 0xef10
 646 1095 762 1196 881 1196 c 0
 983 1196 1048 1124 1048 1034 c 0xef50
 1048 974 1028 932 995 894 c 9
 1326 894 l 2
 1439 894 1539 984 1558 1091 c 9
 1671 1091 l 17
 1641 921 1480 782 1306 782 c 2
 702 782 l 2
 493 782 296 609 296 386 c 0
 296 223 419 112 581 112 c 2
 785 112 l 17
 701 178 665 283 665 379 c 0
 665 539 777 665 937 665 c 0
 1036 665 1103 595 1103 504 c 0
 1103 373 982 275 868 275 c 0
 847 275 829 276 817 279 c 1xeeb0
 832 174 958 112 1124 112 c 10
 1352 112 l 1
 1332 0 l 1
 561 0 l 2
 339 0 182 161 182 370 c 0
 182 654 432 867 663 891 c 1
 652 913 646 938 646 964 c 0xef10
833 917 m 0xf750
 885 917 934 962 934 1017 c 0
 934 1058 901 1084 862 1084 c 0
 815 1084 761 1046 761 987 c 0
 761 948 789 917 833 917 c 0xf750
887 387 m 0
 933 387 988 425 988 484 c 0
 988 522 961 553 917 553 c 0
 866 553 817 509 817 455 c 0xe6b0
 817 416 844 387 887 387 c 0
EndSplineSet
EndChar

StartChar: uni0E56
Encoding: 3670 3670 205
Width: 1412
VWidth: 2045
Flags: W
HStem: -12 112<482.449 877.409> 384 112<380.102 528.084> 782 112<536.062 1066.1>
VStem: 241 120<220.545 363.821> 384 115<944.281 1336.3> 534 115<234.104 378.932> 1226 115<376.963 642.639>
DStem2: 173.209 -12 285.588 -12 0.173648 0.984808<851.149 1233.58>
LayerCount: 2
Fore
SplineSet
649 334 m 0
 649 204 537 135 482 115 c 1
 499 103 649 100 665 100 c 0
 1027.55 100 1226 373.3 1226 510 c 0
 1226 669 1063 782 880 782 c 0
 525 782 367 678 285 622 c 9
 381 1168 l 2
 383 1180 384 1192 384 1204 c 0
 384 1243 372 1277 347 1307 c 9
 441 1385 l 17
 480 1338 499 1283 499 1223 c 0
 499 1205 497 1187 494 1168 c 2
 430 807 l 1
 519 850 633 894 888 894 c 0
 1110 894 1341 762 1341 532 c 0
 1341 304.3 1055.8 -12 605 -12 c 0
 308 -12 241 131 241 236 c 0
 241 409 384 496 481 496 c 0
 583 496 649 424 649 334 c 0
432 216 m 0
 485 216 534 260 534 315 c 0
 534 354 506 384 462 384 c 0
 410 384 361 341 361 285 c 0
 361 246 388 216 432 216 c 0
EndSplineSet
EndChar

StartChar: uni0E57
Encoding: 3671 3671 206
Width: 1385
VWidth: 2045
Flags: W
HStem: -12 112<325.161 473.047 1029 1123.22> 267 112<337.209 487.313> 782 112<387.529 592.617 780.338 989.824>
VStem: 148 171<104.955 445.874> 491 114<116.556 262.924> 1012 114<564.521 758.315>
DStem2: 497.952 -12 610.952 -12 0.173648 0.984808<515.15 689.799> 893.884 -12 1007.14 -12 0.173648 0.984808<145.579 689.81> 1147.63 -12 1260.63 -12 0.173648 0.984808<159.662 1214.64>
LayerCount: 2
Fore
SplineSet
605 218 m 0
 605 87 487 -12 370 -12 c 0
 210 -12 148 134 148 305 c 0
 148 577 261 894 518 894 c 0
 597 894 653 865 699 801 c 1
 720 822 795 894 912 894 c 0
 1040 894 1126 804 1126 687 c 0
 1126 673 1125 658 1122 643 c 2
 1029 112 l 17
 1108 112 1181 177 1194 251 c 2
 1332 1033 l 2
 1348 1123 1391 1196 1462 1251 c 9
 1527 1172 l 17
 1481 1135 1455 1089 1445 1033 c 2
 1307 251 l 18
 1282 112 1149 0 1009 0 c 2
 896 0 l 1
 1009 643 l 2
 1011 652 1012 660 1012 668 c 0
 1012 733 965 782 892 782 c 0
 811 782 739 719 726 643 c 2
 697 476 l 1
 584 476 l 1
 613 643 l 2
 615 652 616 660 616 668 c 0
 616 735 566 782 498 782 c 0
 304 782 274 480 254 284 c 1
 275 313 338 379 439 379 c 0
 539 379 605 309 605 218 c 0
392 100 m 0
 444 100 491 143 491 199 c 0
 491 238 464 267 421 267 c 0
 369 267 319 224 319 168 c 0
 319 127 351 100 392 100 c 0
EndSplineSet
EndChar

StartChar: uni0E58
Encoding: 3672 3672 207
Width: 1519
VWidth: 2045
Flags: W
HStem: -12 112<923.856 1010> 308 112<500.155 642.326 1090.26 1240.13> 782 112<472.724 1457.92>
VStem: 163 112<215.741 579.707> 959 113<147.186 288.684> 1245 114<161.436 302.099> 1558 113<991.375 1091>
LayerCount: 2
Fore
SplineSet
959 200 m 0
 959 325 1076 420 1193 420 c 0
 1287 420 1359 356 1359 257 c 0
 1359 120 1229 -12 1055 -12 c 0
 800 -12 667 308 569 308 c 0
 494 308 465 222 415 0 c 1
 216 66 163 241 163 384 c 0
 163 659 382 894 652 894 c 2
 1326 894 l 2
 1432 894 1538 976 1558 1091 c 9
 1671 1091 l 17
 1641 919 1477 782 1306 782 c 2
 632 782 l 2
 455 782 275 636 275 385 c 0
 275 306 297 233 359 159 c 1
 374 244 416 420 584 420 c 0
 760 420 881 100 1010 100 c 1
 976 121 959 156 959 200 c 0
1144 142 m 0
 1191 142 1245 180 1245 240 c 0
 1245 279 1216 308 1173 308 c 0
 1126 308 1072 270 1072 210 c 0
 1072 171 1101 142 1144 142 c 0
EndSplineSet
EndChar

StartChar: uni0E59
Encoding: 3673 3673 208
Width: 1519
VWidth: 2045
Flags: W
HStem: -12 151<432.096 667.608> 307 112<548.28 697.104> 782 112<540.761 933.7 1147.21 1406.06>
VStem: 182 114<164.933 540.787> 414 115<143.879 288.789> 702 116<158.891 300.927> 1075 114<329.05 644.807>
DStem2: 994.884 -12 1107.88 -12 0.173648 0.984808<31.8074 499.251> 1317.71 -12 1430.81 -12 0.173648 0.984808<871.236 1353.73>
LayerCount: 2
Fore
SplineSet
414 183 m 0
 414 322 535 419 650 419 c 0
 746 419 818 352 818 258 c 0
 818 114 693 -12 452 -12 c 0
 334 -12 182 79 182 320 c 0
 182 576 355 894 763 894 c 0
 870 894 955 885 1055 794 c 1
 1138 861 1218 894 1295 894 c 0
 1378 894 1436 878 1469 846 c 9
 1526 1168 l 2
 1541 1251 1584 1324 1656 1385 c 9
 1721 1307 l 17
 1676 1272 1649 1225 1639 1168 c 2
 1556 698 l 25
 1434 646 l 17
 1434 740 1382 782 1275 782 c 0
 1224 782 1175 762 1127 723 c 1
 1152 695 1189 607 1189 494 c 0
 1189 465 1187 434 1181 402 c 2
 1110 0 l 1
 997 0 l 1
 1068 402 l 2
 1073 430 1075 457 1075 482 c 0
 1075 664 953 782 743 782 c 0
 424 782 296 543 296 332 c 0
 296 145 404 100 444 94 c 1
 424 118 414 147 414 183 c 0
601 139 m 0
 647 139 702 177 702 236 c 0
 702 274 675 307 630 307 c 0
 578 307 529 262 529 207 c 0
 529 166 561 139 601 139 c 0
EndSplineSet
EndChar

StartChar: uni0E5A
Encoding: 3674 3674 209
Width: 1276
VWidth: 2045
Flags: W
HStem: 0 21G<825 941.525 1031 1147.52> 776 112<521.657 790.451> 1154 112<392.558 539.649>
VStem: 257 116<991.243 1135.42> 544 115<1004.03 1148.31>
DStem2: 825 0 938 0 0.173648 0.984808<19.6222 968.68 1098.34 1273.33> 1031 0 1144 0 0.173648 0.984808<19.6222 1268.23>
LayerCount: 2
Fore
SplineSet
1251 1249 m 25
 1365 1254 l 25
 1144 0 l 1
 1031 0 l 1
 1251 1249 l 25
659 1105 m 0
 659 1004 599 935 518 894 c 1
 542 890 570 888 601 888 c 256
 812 888 1011 1055 1046 1254 c 9
 1159 1254 l 25
 938 0 l 1
 825 0 l 1
 993 954 l 17
 897 862 756 776 581 776 c 256
 324 776 257 908 257 1019 c 0
 257 1164 371 1266 493 1266 c 0
 588 1266 659 1199 659 1105 c 0
444 985 m 0
 490 985 544 1025 544 1084 c 0
 544 1122 517 1154 473 1154 c 0
 426 1154 373 1114 373 1055 c 0
 373 1016 401 985 444 985 c 0
EndSplineSet
EndChar

StartChar: uni0E5B
Encoding: 3675 3675 210
Width: 2472
VWidth: 2045
Flags: W
HStem: 0 112<448.004 821.914> 345 113<671.475 818.444> 432 112<2293.17 2471> 625 112<684.505 833.333> 946 112<564.842 876.973>
VStem: 166 116<279.955 649.365> 552 115<464.029 607.711> 981 115<603.385 846.801>
DStem2: 1095 394 1178 361 0.486508 0.873676<-206.337 290.99> 1392 737 1316 604 0.164837 -0.986321<118.653 370.062> 1453 372 1483 239 0.45982 0.888012<0 306.26> 1749 737 1671 604 0.164837 -0.986321<118.323 370.062> 1810 372 1838 239 0.461735 0.887018<0 306.446> 2104 737 2028 604 0.164837 -0.986321<118.653 370.062>
LayerCount: 2
Fore
SplineSet
713 946 m 0xdf
 557 946 282 754 282 460 c 0
 282 290 385 112 632 112 c 0
 817 112 1006 233 1095 394 c 10
 1286 737 l 9
 1392 737 l 17
 1453 372 l 25
 1642 737 l 9
 1749 737 l 17
 1810 372 l 25
 1998 737 l 9
 2104 737 l 17
 2165 372 l 17
 2238 487 2306 544 2370 544 c 2
 2491 544 l 1
 2471 432 l 1
 2358 432 l 18xbf
 2319 432 2265 368 2195 239 c 9
 2088 239 l 17
 2028 604 l 25
 1838 239 l 9
 1731 239 l 17
 1671 604 l 25
 1483 239 l 9
 1376 239 l 17
 1316 604 l 25
 1178 361 l 2
 1111 241 909 0 602 0 c 0
 322 0 166 200 166 435 c 0
 166 781 481 1058 744 1058 c 0
 915 1058 1096 963 1096 744 c 0
 1096 519 898 345 741 345 c 0
 614 345 552 417 552 506 c 0
 552 637 669 737 787 737 c 0
 922 737 945 630 945 601 c 1
 965 618 981 664 981 710 c 0
 981 821 901 946 713 946 c 0xdf
738 458 m 0xdf
 785 458 838 498 838 557 c 0
 838 596 810 625 767 625 c 0
 716 625 667 584 667 528 c 0
 667 490 694 458 738 458 c 0xdf
EndSplineSet
EndChar

StartChar: zerowidthjoiner
Encoding: 8205 8205 211
Width: 0
VWidth: 2045
Flags: W
LayerCount: 2
Back
SplineSet
-11.4902 -275 m 1
 -85.4902 -275 l 1
 159.252 1113 l 1
 1.27148 977 l 1
 -38.9121 1027 l 1
 161.887 1196 l 1
 20.1572 1362 l 1
 77.9736 1412 l 1
 218.998 1242 l 1
 419.974 1412 l 1
 460.157 1362 l 1
 259.887 1196 l 1
 401.088 1027 l 1
 343.271 977 l 1
 233.252 1113 l 1
 -11.4902 -275 l 1
EndSplineSet
EndChar

StartChar: afii299
Encoding: 8206 8206 212
Width: 0
VWidth: 2045
Flags: W
LayerCount: 2
Back
SplineSet
641.24 1198 m 1
 386.329 983 l 1
 347.146 1033 l 1
 505.068 1163 l 1
 240.068 1163 l 1
 -13.4902 -275 l 1
 -85.4902 -275 l 1
 180.234 1232 l 1
 517.234 1232 l 1
 405.157 1362 l 1
 461.974 1412 l 1
 641.24 1198 l 1
EndSplineSet
EndChar

StartChar: afii300
Encoding: 8207 8207 213
Width: 0
VWidth: 2045
Flags: W
LayerCount: 2
Back
SplineSet
-13.4902 -275 m 1
 -85.4902 -275 l 1
 168.068 1163 l 1
 -96.9316 1163 l 1
 17.1455 1033 l 1
 -39.6709 983 l 1
 -218.761 1198 l 1
 35.9736 1412 l 1
 75.1572 1362 l 1
 -84.7656 1232 l 1
 252.234 1232 l 1
 -13.4902 -275 l 1
EndSplineSet
EndChar

StartChar: uni2010
Encoding: 8208 8208 214
Width: 971
VWidth: 2045
Flags: W
HStem: 594 136<318 919>
VStem: 294 649
LayerCount: 2
Fore
SplineSet
318 730 m 1
 943 730 l 1
 919 594 l 1
 294 594 l 1
 318 730 l 1
EndSplineSet
EndChar

StartChar: endash
Encoding: 8211 8211 215
Width: 1123
VWidth: 2045
Flags: W
HStem: 594 136<126 1226>
LayerCount: 2
Fore
SplineSet
1226 594 m 1
 102 594 l 1
 126 730 l 1
 1250 730 l 1
 1226 594 l 1
EndSplineSet
EndChar

StartChar: emdash
Encoding: 8212 8212 216
Width: 1882
VWidth: 2045
Flags: W
HStem: 594 136<126 1968>
LayerCount: 2
Fore
SplineSet
1968 594 m 1
 102 594 l 1
 126 730 l 1
 1992 730 l 1
 1968 594 l 1
EndSplineSet
EndChar

StartChar: horizontalbar
Encoding: 8213 8213 217
Width: 1858
VWidth: 2045
Flags: W
HStem: 594 136<239 1855>
LayerCount: 2
Fore
SplineSet
1855 594 m 1
 215 594 l 1
 239 730 l 1
 1879 730 l 1
 1855 594 l 1
EndSplineSet
EndChar

StartChar: underscoredbl
Encoding: 8215 8215 218
Width: 1115
VWidth: 2045
Flags: W
HStem: -423 130<-67 1058> -211 130<-29 1096>
LayerCount: 2
Fore
SplineSet
1096 -211 m 1
 -52 -211 l 1
 -29 -81 l 1
 1119 -81 l 1
 1096 -211 l 1
1058 -423 m 1
 -90 -423 l 1
 -67 -293 l 1
 1081 -293 l 1
 1058 -423 l 1
EndSplineSet
EndChar

StartChar: quoteleft
Encoding: 8216 8216 219
Width: 448
VWidth: 2045
Flags: W
HStem: 997 559<373 451>
VStem: 210 301
LayerCount: 2
Fore
SplineSet
511 997 m 1
 373 997 l 1
 210 1556 l 1
 451 1556 l 1
 511 997 l 1
EndSplineSet
EndChar

StartChar: quoteright
Encoding: 8217 8217 220
Width: 577
VWidth: 2045
Flags: W
HStem: 997 559
VStem: 274 495
LayerCount: 2
Fore
SplineSet
769 1556 m 1
 411 997 l 1
 274 997 l 1
 527 1556 l 1
 769 1556 l 1
EndSplineSet
EndChar

StartChar: quotesinglbase
Encoding: 8218 8218 221
Width: 429
VWidth: 2045
Flags: W
HStem: -275 559
VStem: -60 496
LayerCount: 2
Fore
SplineSet
436 284 m 1
 77 -275 l 1
 -60 -275 l 1
 193 284 l 1
 436 284 l 1
EndSplineSet
EndChar

StartChar: quotereversed
Encoding: 8219 8219 222
Width: 429
VWidth: 2045
Flags: W
HStem: 997 559
VStem: 112 497
LayerCount: 2
Fore
SplineSet
609 1556 m 1
 353 997 l 1
 112 997 l 1
 471 1556 l 1
 609 1556 l 1
EndSplineSet
EndChar

StartChar: quotedblleft
Encoding: 8220 8220 223
Width: 847
VWidth: 2045
Flags: W
HStem: 997 559<373 448 768 841>
LayerCount: 2
Fore
SplineSet
900 997 m 1
 768 997 l 1
 603 1556 l 1
 841 1556 l 1
 900 997 l 1
507 997 m 1
 373 997 l 1
 210 1556 l 1
 448 1556 l 1
 507 997 l 1
EndSplineSet
EndChar

StartChar: quotedblright
Encoding: 8221 8221 224
Width: 998
VWidth: 2045
Flags: W
HStem: 997 559
LayerCount: 2
Fore
SplineSet
1169 1556 m 1
 810 997 l 1
 676 997 l 1
 931 1556 l 1
 1169 1556 l 1
776 1556 m 1
 417 997 l 1
 283 997 l 1
 538 1556 l 1
 776 1556 l 1
EndSplineSet
EndChar

StartChar: quotedblbase
Encoding: 8222 8222 225
Width: 812
VWidth: 2045
Flags: W
HStem: -275 559
LayerCount: 2
Fore
SplineSet
831 284 m 1
 470 -275 l 1
 338 -275 l 1
 593 284 l 1
 831 284 l 1
437 284 m 1
 77 -275 l 1
 -56 -275 l 1
 199 284 l 1
 437 284 l 1
EndSplineSet
EndChar

StartChar: dagger
Encoding: 8224 8224 226
Width: 1115
VWidth: 2045
Flags: W
HStem: 1030 136<340 673 830 1164>
DStem2: 509 136 655 136 0.173648 0.984808<25.3526 914.805 1064.18 1441.84>
LayerCount: 2
Fore
SplineSet
1164 1030 m 1
 808 1036 l 1
 655 136 l 1
 509 136 l 1
 673 1036 l 1
 316 1030 l 1
 340 1166 l 1
 695 1160 l 1
 759 1556 l 1
 905 1556 l 1
 830 1160 l 1
 1188 1166 l 1
 1164 1030 l 1
EndSplineSet
EndChar

StartChar: daggerdbl
Encoding: 8225 8225 227
Width: 1115
VWidth: 2045
Flags: W
HStem: 504 136<247 575 743 1071> 1035 136<341 667 837 1164>
DStem2: 502 124 659 124 0.173648 0.984808<27.2628 390.842 545.086 925.812 1089.27 1454>
LayerCount: 2
Fore
SplineSet
1071 504 m 1
 721 508 l 1
 659 124 l 1
 502 124 l 1
 575 508 l 1
 223 504 l 1
 247 640 l 1
 597 635 l 1
 667 1035 l 1
 316 1031 l 1
 341 1176 l 1
 691 1171 l 1
 754 1556 l 1
 911 1556 l 1
 837 1171 l 1
 1189 1176 l 1
 1164 1031 l 1
 813 1035 l 1
 743 635 l 1
 1095 640 l 1
 1071 504 l 1
EndSplineSet
EndChar

StartChar: bullet
Encoding: 8226 8226 228
Width: 948
VWidth: 2045
Flags: W
HStem: 311 701<466.165 696.203>
VStem: 224 715<553.335 773.282>
LayerCount: 2
Fore
SplineSet
224 598 m 0
 224 817 424 1012 641 1012 c 0
 815 1012 939 890 939 723 c 0
 939 516 747 311 520 311 c 0
 351 311 224 430 224 598 c 0
EndSplineSet
EndChar

StartChar: ellipsis
Encoding: 8230 8230 229
Width: 1648
VWidth: 2045
Flags: W
HStem: 0 224<216 381 774 938 1330 1494>
LayerCount: 2
Fore
SplineSet
1494 0 m 1
 1291 0 l 1
 1330 224 l 1
 1533 224 l 1
 1494 0 l 1
938 0 m 1
 735 0 l 1
 774 224 l 1
 977 224 l 1
 938 0 l 1
381 0 m 1
 177 0 l 1
 216 224 l 1
 420 224 l 1
 381 0 l 1
EndSplineSet
EndChar

StartChar: perthousand
Encoding: 8240 8240 230
Width: 2570
VWidth: 2045
Flags: W
HStem: -48 136<1308.58 1492.03 2060.58 2244.03> -9 21G<476 635.662> 588 136<1383.97 1567.42 2135.97 2319.42> 718 136<496.577 680.026> 1354 136<571.974 755.423>
VStem: 306 148<897.063 1215.17> 798 148<992.83 1310.94> 1118 148<131.064 449.17> 1610 148<226.83 544.937> 1870 148<131.064 449.17> 2362 148<226.83 544.937>
DStem2: 476 -9 622 -9 0.564072 0.825726<82.3545 1815.37>
LayerCount: 2
Back
SplineSet
721 1517 m 1x2fe0
 897 1517 1009 1433 1009 1219 c 0
 1009 1056 946 634 566 634 c 0
 390 634 278 718 278 930 c 0
 278 1107 345 1514 721 1517 c 1x2fe0
1734 1489 m 1
 692 0 l 1
 527 0 l 1x4fe0
 1570 1489 l 1
 1734 1489 l 1
1693 853 m 0x9fe0
 1869 853 1982 767 1982 555 c 0
 1982 374 1908 -29 1538 -29 c 0
 1362 -29 1250 58 1250 271 c 0
 1250 484 1338 853 1693 853 c 0x9fe0
589 767 m 0x2fe0
 811 767 833 1151 833 1221 c 0
 833 1353 779 1384 698 1384 c 0
 480 1384 455 1004 455 924 c 0
 455 793 509 767 589 767 c 0x2fe0
1561 104 m 0x9fe0
 1785 104 1806 501 1806 562 c 0
 1806 692 1751 720 1671 720 c 0
 1451 720 1426 339 1426 264 c 0
 1426 132 1481 104 1561 104 c 0x9fe0
2537 853 m 0
 2757 853 2825 723 2825 557 c 0
 2825 347 2738 -29 2382 -29 c 0
 2205 -29 2093 58 2093 271 c 0
 2093 481 2180 853 2537 853 c 0
2405 104 m 0
 2623 104 2649 480 2649 557 c 0
 2649 688 2594 720 2514 720 c 0
 2292 720 2268 337 2268 265 c 0
 2268 134 2323 104 2405 104 c 0
EndSplineSet
Fore
SplineSet
2510 422 m 3xafe0
 2510 159 2311 -48 2122 -48 c 259
 1973 -48 1870 79 1870 254 c 3
 1870 517 2069 724 2258 724 c 259
 2407 724 2510 597 2510 422 c 3xafe0
2234 588 m 259
 2149 588 2018 465 2018 268 c 3
 2018 145 2085 88 2146 88 c 259
 2231 88 2362 211 2362 408 c 3
 2362 531 2295 588 2234 588 c 259
1758 422 m 3
 1758 159 1559 -48 1370 -48 c 259
 1221 -48 1118 79 1118 254 c 3
 1118 517 1317 724 1506 724 c 259
 1655 724 1758 597 1758 422 c 3
1482 588 m 259
 1397 588 1266 465 1266 268 c 3
 1266 145 1333 88 1394 88 c 259
 1479 88 1610 211 1610 408 c 3
 1610 531 1543 588 1482 588 c 259
946 1188 m 3
 946 925 747 718 558 718 c 259x1fe0
 409 718 306 845 306 1020 c 3
 306 1283 505 1490 694 1490 c 259
 843 1490 946 1363 946 1188 c 3
670 1354 m 259
 585 1354 454 1231 454 1034 c 3
 454 911 521 854 582 854 c 259
 667 854 798 977 798 1174 c 3
 798 1297 731 1354 670 1354 c 259
1500 1490 m 1
 1646 1490 l 1
 622 -9 l 1
 476 -9 l 1x4fe0
 1500 1490 l 1
EndSplineSet
EndChar

StartChar: minute
Encoding: 8242 8242 231
Width: 600
VWidth: 2045
Flags: W
HStem: 870 619
VStem: 290 543
LayerCount: 2
Fore
SplineSet
833 1489 m 1
 426 870 l 1
 290 870 l 1
 594 1489 l 1
 833 1489 l 1
EndSplineSet
EndChar

StartChar: second
Encoding: 8243 8243 232
Width: 969
VWidth: 2045
Flags: W
HStem: 870 619
LayerCount: 2
Fore
SplineSet
830 1489 m 1
 421 870 l 1
 290 870 l 1
 594 1489 l 1
 830 1489 l 1
1223 1489 m 1
 815 870 l 1
 684 870 l 1
 987 1489 l 1
 1223 1489 l 1
EndSplineSet
EndChar

StartChar: guilsinglleft
Encoding: 8249 8249 233
Width: 782
VWidth: 2045
Flags: W
VStem: 229 603
DStem2: 417 652 229 607 0.706293 -0.70792<0 397.392> 245 698 417 652 0.804746 0.59362<111.11 584.525>
LayerCount: 2
Fore
SplineSet
663 172 m 1
 229 607 l 1
 245 698 l 1
 832 1131 l 1
 798 933 l 1
 417 652 l 1
 699 372 l 1
 663 172 l 1
EndSplineSet
EndChar

StartChar: guilsinglright
Encoding: 8250 8250 234
Width: 782
VWidth: 2045
Flags: W
VStem: 181 602
DStem2: 217 372 181 172 0.80295 0.596046<0 472.014> 350 1131 316 933 0.707107 -0.707107<115.966 513.359>
LayerCount: 2
Fore
SplineSet
767 607 m 1
 181 172 l 1
 217 372 l 1
 597 652 l 1
 316 933 l 1
 350 1131 l 1
 783 698 l 1
 767 607 l 1
EndSplineSet
EndChar

StartChar: uni203E
Encoding: 8254 8254 236
Width: 1115
VWidth: 2045
Flags: W
HStem: 1658 130<266 1408>
LayerCount: 2
Fore
SplineSet
1408 1658 m 1
 243 1658 l 1
 266 1788 l 1
 1431 1788 l 1
 1408 1658 l 1
EndSplineSet
EndChar

StartChar: fraction
Encoding: 8260 8260 237
Width: 884
VWidth: 2045
Flags: W
HStem: 0 21G<-29 149.996>
DStem2: -29 0 136 0 0.573352 0.819309<94.603 1817.38>
LayerCount: 2
Fore
SplineSet
1178 1489 m 1
 136 0 l 1
 -29 0 l 1
 1013 1489 l 1
 1178 1489 l 1
EndSplineSet
EndChar

StartChar: uni207F
Encoding: 8319 8319 238
Width: 1007
VWidth: 2045
Flags: W
HStem: 1395 124<636.61 944.141>
VStem: 976 130<976.812 1362.64>
DStem2: 225 565 352 565 0.173648 0.984808<22.0533 791.069 856.744 937.109> 862 565 989 565 0.173648 0.984808<22.0533 696.567>
LayerCount: 2
Fore
SplineSet
853 1519 m 3
 983 1519 1106 1490 1106 1288 c 3
 1106 1252 1102 1211 1094 1163 c 2
 989 565 l 1
 862 565 l 1
 959 1115 l 2
 969 1169 976 1216 976 1254 c 3
 976 1348 934 1395 786 1395 c 3
 693 1395 624 1381 478 1281 c 1
 352 565 l 1
 225 565 l 1
 387 1488 l 1
 514 1488 l 1
 497 1387 l 1
 665 1514 751 1519 853 1519 c 3
EndSplineSet
EndChar

StartChar: dottedcircle
Encoding: 9676 9676 239
Width: 1253
VWidth: 2045
Flags: W
HStem: 6 121<567.185 677.812> 68 121<872.854 982.617> 98 121<319.725 430.392> 234 121<1066.34 1178.62> 249 121<202.75 313.576> 444 121<115.451 227 1182.16 1291.57> 680 121<172.741 285.284 1205.48 1317.76> 867 121<311.756 420.94> 891 121<1136.89 1248.93> 1010 121<526.172 636.982> 1033 121<973.786 1083.54> 1078 121<763.891 873.811>
VStem: 109 124<450.592 558.422> 166 124<685.801 794.234> 197 122<254.695 364.359> 314 122<103.858 213.871 877.462 985.768> 520 123<1016.1 1125.11> 561 123<12.3698 121.974> 758 122<1084.34 1193.38> 867 121<73.5667 184.135> 968 122<1039.31 1148.39> 1060 124<240.149 349.043> 1131 124<897.422 1006.23> 1173 122<444.168 553.479> 1199 124<685.186 793.77>
LayerCount: 2
Fore
SplineSet
428 942 m 0x07
 428 903 396 867 356 867 c 0
 327 867 306 887 306 916 c 0
 306 937 320 988 377 988 c 0
 409 988 428 969 428 942 c 0x07
643 1082 m 0x064080
 643 1044 610 1010 570 1010 c 0
 539 1010 520 1028 520 1057 c 0
 520 1102 556 1131 591 1131 c 0
 621 1131 643 1111 643 1082 c 0x064080
880 1151 m 0x061020
 880 1115 850 1078 807 1078 c 0
 782 1078 758 1096 758 1127 c 0
 758 1167 792 1199 829 1199 c 0
 857 1199 880 1182 880 1151 c 0x061020
233 516 m 0x0608
 233 473 193 444 159 444 c 0
 128 444 109 469 109 495 c 0
 109 526 140 565 182 565 c 0
 209 565 233 548 233 516 c 0x0608
319 320 m 0x0e02
 319 281 285 249 247 249 c 0
 215 249 197 270 197 297 c 0
 197 338 230 370 268 370 c 0
 297 370 319 350 319 320 c 0x0e02
436 169 m 0x2601
 436 127 399 98 363 98 c 0
 335 98 314 113 314 144 c 0
 314 186 342 219 385 219 c 0
 418 219 436 199 436 169 c 0x2601
684 78 m 0x860040
 684 38 648 6 612 6 c 0
 584 6 561 25 561 54 c 0
 561 89 588 127 632 127 c 0
 663 127 684 107 684 78 c 0x860040
988 139 m 0x460010
 988 99 954 68 916 68 c 0
 886 68 867 86 867 115 c 0
 867 153 895 189 937 189 c 0
 969 189 988 167 988 139 c 0x460010
1184 305 m 0x160004
 1184 265 1149 234 1111 234 c 0
 1076 234 1060 259 1060 284 c 0
 1060 316 1089 355 1133 355 c 0
 1165 355 1184 333 1184 305 c 0x160004
1295 510 m 0x060001
 1295 469 1261 438 1222 438 c 0
 1193 438 1173 454 1173 483 c 0
 1173 523 1201 559 1244 559 c 0
 1273 559 1295 541 1295 510 c 0x060001
1323 750 m 0x06000080
 1323 718 1298 680 1251 680 c 0
 1217 680 1199 701 1199 729 c 0
 1199 768 1237 801 1272 801 c 0
 1304 801 1323 777 1323 750 c 0x06000080
1255 960 m 0x068002
 1255 929 1225 891 1180 891 c 0
 1150 891 1131 910 1131 940 c 0
 1131 979 1165 1012 1202 1012 c 0
 1238 1012 1255 985 1255 960 c 0x068002
1090 1104 m 0x062008
 1090 1070 1057 1033 1019 1033 c 0
 989 1033 968 1052 968 1081 c 0
 968 1117 995 1154 1040 1154 c 0
 1073 1154 1090 1130 1090 1104 c 0x062008
290 749 m 0x0604
 290 709 257 680 216 680 c 0
 181 680 166 703 166 728 c 0
 166 761 196 801 239 801 c 0
 269 801 290 778 290 749 c 0x0604
EndSplineSet
EndChar

StartChar: uni0E10.descless
Encoding: 63232 63232 240
Width: 1192
VWidth: 2045
Flags: W
HStem: 0 21G<705.225 820.888> 296 112<494.707 645.575> 574 112<508.953 658.125> 776 112<404 942.198> 1154 112<628.858 985.477>
VStem: 377 114<412.419 555.297> 955 115<539.734 763.226>
DStem2: 805 266 813 0 0.366887 0.930266<0 440.431>
LayerCount: 2
Fore
SplineSet
377 458 m 0
 377 587 495 686 612 686 c 0
 686 686 766 646 778 529 c 2
 805 266 l 17
 946 631 l 18
 950 641 955 666 955 681 c 0
 955 734 921 776 861 776 c 2
 254 776 l 1
 299 1031 548 1266 834 1266 c 256
 1033 1266 1164 1155 1220 1018 c 9
 1113 961 l 17
 1044 1134 884 1154 814 1154 c 256
 630 1154 472 1027 404 888 c 1
 881 888 l 2
 989 888 1070 808 1070 702 c 0
 1070 669 1062 630 1052 606 c 10
 813 0 l 1
 707 0 l 1
 677 338 l 17
 645 310 600 296 543 296 c 0
 444 296 377 367 377 458 c 0
561 408 m 0
 608 408 663 446 663 506 c 0
 663 548 629 574 590 574 c 0
 538 574 491 531 491 475 c 0
 491 435 520 408 561 408 c 0
EndSplineSet
EndChar

StartChar: uni0E34.left
Encoding: 63233 63233 241
Width: 0
VWidth: 2045
Flags: W
HStem: 1767 112<-782.496 -422.343>
DStem2: -919 1621 -1112 1527 0.995353 -0.0962907<0 629.768>
LayerCount: 2
Back
SplineSet
-516.979 1486 m 21
 -519.254 1492 -521.196 1498 -522.805 1504 c 4
 -546.696 1561.33 -584.976 1607 -637.647 1641 c 132
 -690.318 1675 -751.321 1692 -820.654 1692 c 260
 -889.987 1692 -956.709 1674.67 -1020.82 1640 c 20
 -1066.39 1616 -1107.85 1585 -1145.22 1547 c 5
 -516.979 1486 l 21
-386.372 1359 m 13
 -1336.97 1452 l 5
 -1319.18 1488.67 -1297.22 1524.33 -1271.11 1559 c 12
 -1213.16 1634.33 -1142.66 1693.83 -1059.63 1737.5 c 132
 -976.598 1781.17 -890.357 1803.33 -800.906 1804 c 260
 -711.573 1804 -632.619 1782 -564.044 1738 c 132
 -495.469 1694 -446.157 1634.33 -416.106 1559 c 4
 -389.587 1497.67 -379.676 1431 -386.372 1359 c 13
EndSplineSet
Fore
Refer: 175 3636 N 1 0 0 1 -245 0 2
EndChar

StartChar: uni0E35.left
Encoding: 63234 63234 242
Width: 0
VWidth: 2045
Flags: W
HStem: 1764 112<-782.996 -424.523>
DStem2: -920 1618 -1112 1524 0.995353 -0.0962907<0 630.763> -274.432 1432 -161.692 1432 0.173648 0.984808<273.15 510.714>
LayerCount: 2
Back
SplineSet
-386.019 1361 m 13
 -1336.8 1453 l 5
 -1318.77 1491 -1296.69 1527.33 -1270.58 1562 c 12
 -1212.75 1636.67 -1142.31 1695.83 -1059.28 1739.5 c 132
 -976.246 1783.17 -890.062 1805 -800.729 1805 c 260
 -711.396 1805 -632.55 1783.33 -564.191 1740 c 4
 -518.148 1710 -480.613 1673.33 -451.587 1630 c 13
 -410.326 1864 l 5
 -297.326 1864 l 13
 -386.019 1361 l 13
-516.625 1488 m 21
 -519.136 1492.67 -521.196 1498 -522.805 1504 c 4
 -546.46 1562.67 -584.652 1608.83 -637.383 1642.5 c 132
 -690.114 1676.17 -751.146 1693 -820.479 1693 c 260
 -889.812 1693 -956.416 1676.33 -1020.29 1643 c 20
 -1065.98 1618.33 -1107.62 1586.33 -1145.22 1547 c 5
 -516.625 1488 l 21
EndSplineSet
Fore
Refer: 176 3637 N 1 0 0 1 -245 0 2
EndChar

StartChar: uni0E36.left
Encoding: 63235 63235 243
Width: 0
VWidth: 2045
Flags: W
HStem: 1762 112<-768.496 -466.401> 1966 112<-337.872 -189.996>
VStem: -470 113<1866 1946.58> -184 115<1815.45 1961.52>
DStem2: -905 1616 -1098 1522 0.995353 -0.0962907<0 630.763>
LayerCount: 2
Back
SplineSet
-455.882 1634 m 1
 -439.094 1612 -425.659 1588 -415.577 1562 c 0
 -389.96 1499.33 -380.441 1432.33 -387.019 1361 c 9
 -1336.8 1453 l 1
 -1318.77 1491 -1296.69 1527.33 -1270.58 1562 c 8
 -1212.75 1636.67 -1142.31 1695.83 -1059.28 1739.5 c 128
 -976.246 1783.17 -890.062 1805 -800.729 1805 c 256
 -768.062 1805 -737.533 1802.33 -709.141 1797 c 1
 -709.768 1801 -709.553 1806 -708.495 1812 c 0
 -698.856 1866.67 -671.324 1913.17 -625.897 1951.5 c 128
 -580.472 1989.83 -530.259 2009 -475.259 2009 c 128
 -420.259 2009 -376.805 1989.83 -344.897 1951.5 c 128
 -312.99 1913.17 -301.827 1866.83 -311.407 1812.5 c 128
 -320.988 1758.17 -348.462 1712 -393.829 1674 c 0
 -414.1 1657.33 -434.785 1644 -455.882 1634 c 1
-595.407 1812.5 m 128
 -599.462 1789.5 -594.459 1769.67 -580.398 1753 c 128
 -566.337 1736.33 -547.64 1728 -524.307 1728 c 128
 -500.974 1728 -479.504 1736.33 -459.898 1753 c 128
 -440.293 1769.67 -428.462 1789.5 -424.407 1812.5 c 128
 -420.352 1835.5 -425.188 1855.33 -438.916 1872 c 128
 -452.644 1888.67 -471.175 1897 -494.508 1897 c 128
 -517.841 1897 -539.477 1888.67 -559.416 1872 c 128
 -579.355 1855.33 -591.352 1835.5 -595.407 1812.5 c 128
-516.625 1488 m 17
 -519.136 1492.67 -521.196 1498 -522.805 1504 c 0
 -546.46 1562.67 -584.652 1608.83 -637.383 1642.5 c 128
 -690.114 1676.17 -751.146 1693 -820.479 1693 c 256
 -889.812 1693 -956.416 1676.33 -1020.29 1643 c 16
 -1065.98 1618.33 -1107.62 1586.33 -1145.22 1547 c 1
 -516.625 1488 l 17
EndSplineSet
Fore
Refer: 177 3638 N 1 0 0 1 -230 0 2
EndChar

StartChar: uni0E37.left
Encoding: 63236 63236 244
Width: 0
VWidth: 2045
Flags: W
HStem: 1764 112<-766.996 -409.673>
DStem2: -904 1618 -1096 1524 0.995353 -0.0962907<0 630.763> -258.432 1432 -145.692 1432 0.173648 0.984808<273.15 510.714>
LayerCount: 2
Back
SplineSet
-547.307 1728 m 17
 -508.126 1700.67 -476.22 1668 -451.587 1630 c 9
 -410.326 1864 l 1
 -297.326 1864 l 9
 -386.019 1361 l 9
 -1336.8 1453 l 1
 -1318.77 1491 -1296.69 1527.33 -1270.58 1562 c 8
 -1212.75 1636.67 -1142.31 1695.83 -1059.28 1739.5 c 128
 -976.246 1783.17 -890.062 1805 -800.729 1805 c 256
 -746.729 1805 -696.807 1797 -650.962 1781 c 9
 -636.326 1864 l 1
 -523.326 1864 l 1
 -547.307 1728 l 17
-516.625 1488 m 17
 -519.136 1492.67 -521.196 1498 -522.805 1504 c 0
 -546.46 1562.67 -584.652 1608.83 -637.383 1642.5 c 128
 -690.114 1676.17 -751.146 1693 -820.479 1693 c 256
 -889.812 1693 -956.416 1676.33 -1020.29 1643 c 16
 -1065.98 1618.33 -1107.62 1586.33 -1145.22 1547 c 1
 -516.625 1488 l 17
EndSplineSet
Fore
Refer: 178 3639 N 1 0 0 1 -229 0 2
EndChar

StartChar: uni0E48.low_left
Encoding: 63237 63237 245
Width: 0
VWidth: 2045
Flags: W
HStem: 1444 448<-181 -149>
VStem: -260 190
DStem2: -260 1444 -149 1444 0.173648 0.984808<19.2749 454.912>
LayerCount: 2
Back
SplineSet
-327.52 1568 m 1
 -205.52 1568 l 1
 -254.009 1293 l 1
 -376.009 1293 l 1
 -327.52 1568 l 1
EndSplineSet
Fore
Refer: 250 63242 N 1 0 0 1 -198 0 2
EndChar

StartChar: uni0E48.low
Encoding: 63242 63242 250
Width: 0
VWidth: 2045
Flags: W
HStem: 1444 448<17 49>
VStem: -62 190
DStem2: -62 1444 49 1444 0.173648 0.984808<19.2749 454.912>
AnchorPoint: "AboveMark" 98 2040 basemark 0
AnchorPoint: "AboveBase" 36 1370 mark 0
LayerCount: 2
Back
SplineSet
-14 1719 m 25
 97 1719 l 1
 49 1444 l 1
 -62 1444 l 1
 -14 1719 l 25
EndSplineSet
Fore
SplineSet
17 1892 m 25
 128 1892 l 1
 49 1444 l 1
 -62 1444 l 1
 17 1892 l 25
EndSplineSet
EndChar

StartChar: uni0E49.low
Encoding: 63243 63243 251
Width: 0
VWidth: 2045
Flags: W
HStem: 1421 112<-257 -75.9531> 1604 72<-319.389 -302> 1788 83<-315.336 -206.682>
VStem: -406 85<1676.98 1781.49> -206 87<1680.27 1786.73> 191 114<1788.75 1911>
AnchorPoint: "AboveMark" -110 2040 basemark 0
AnchorPoint: "AboveBase" 119 1370 mark 0
LayerCount: 2
Fore
SplineSet
-406 1708 m 0
 -406 1795 -325 1871 -238 1871 c 0
 -169 1871 -119 1825 -119 1759 c 0
 -119 1731 -130 1683 -157 1649 c 1
 -257 1533 l 1
 -40 1537 155 1706 191 1911 c 265
 305 1911 l 273
 257 1641 -1 1421 -276 1421 c 10
 -389 1421 l 1
 -370 1533 l 1
 -302 1604 l 17
 -347 1604 -406 1637 -406 1708 c 0
-272 1676 m 0
 -234 1676 -206 1708 -206 1743 c 0
 -206 1768 -223 1788 -253 1788 c 0
 -287 1788 -321 1758 -321 1722 c 0
 -321 1694 -299 1676 -272 1676 c 0
EndSplineSet
EndChar

StartChar: uni0E4A.low
Encoding: 63244 63244 252
Width: 0
VWidth: 2045
Flags: W
HStem: 1418 112<-72 23.4023> 1418 83<-419.257 -312.619> 1613 88<-416.827 -307.143> 1754 112<-407.188 -225.655 -130.507 48.0983>
VStem: -558 137<1501.64 1671.44> -306 84<1508.4 1611.13> 63 114<1601.78 1740.39> 376 112<1786.08 1908>
AnchorPoint: "AboveMark" -119 2040 basemark 0
AnchorPoint: "AboveBase" 111 1370 mark 0
LayerCount: 2
Fore
SplineSet
-72 1530 m 1,0,-1
-558 1583 m 0,1,-1
 -558 1761 -414 1865 -287 1866 c 16,4,-1
 -235 1866 -192 1851 -158 1820 c 1,7,-1
 -114 1850 -66 1865 -13 1866 c 1,10,-1
 101 1866 177 1785 177 1680 c 0,13,-1
 177 1649 171 1623 162 1601 c 1,16,-1
 266 1665 353 1774 376 1908 c 265,19,-1
 488 1908 l 273,20,-1
 441 1639 186 1418 -92 1418 c 9,23,-1
 -72 1530 l 17,24,-1
 51 1552 63 1629 63 1661 c 0,27,-1
 63 1716 21 1754 -33 1754 c 8,30,-1
 -93 1754 -131 1710 -143 1695 c 1,33,-1
 -218 1695 l 1,34,-1
 -224 1709 -247 1754 -310 1754 c 24,37,-1
 -383 1754 -441 1686 -448 1643 c 1,40,-1
 -422 1682 -384 1701 -331 1701 c 1,43,-1
 -268 1698 -222 1652 -222 1586 c 0,46,-1
 -222 1493 -304 1418 -390 1418 c 0,49,-1
 -475 1418 -558 1462 -558 1583 c 0,1,-1
-375 1501 m 0,52,-1
 -334 1501 -306 1539 -306 1567 c 0,55,-1
 -306 1593 -326 1613 -356 1613 c 0,58,-1
 -390 1613 -421 1584 -421 1547 c 0,61,-1
 -421 1522 -404 1501 -375 1501 c 0,52,-1
EndSplineSet
EndChar

StartChar: uni0E4B.low
Encoding: 63245 63245 253
Width: 0
VWidth: 2045
Flags: W
HStem: 1599 112<-216 -87 46 175>
VStem: -236 431
DStem2: -117 1430 -4 1430 0.173648 0.984808<19.6222 171.642 305.036 454.912>
AnchorPoint: "AboveMark" 48 2040 basemark 0
AnchorPoint: "AboveBase" 140 1370 mark 0
LayerCount: 2
Back
SplineSet
172 1581 m 1
 23 1581 l 1
 -4 1430 l 1
 -117 1430 l 1
 -90 1581 l 1
 -239 1581 l 1
 -219 1693 l 1
 -70 1693 l 1
 -44 1842 l 1
 69 1842 l 1
 43 1693 l 1
 192 1693 l 1
 172 1581 l 1
EndSplineSet
Fore
SplineSet
175 1599 m 1
 26 1599 l 1
 -4 1430 l 1
 -117 1430 l 1
 -87 1599 l 1
 -236 1599 l 1
 -216 1711 l 1
 -67 1711 l 1
 -38 1878 l 1
 75 1878 l 1
 46 1711 l 1
 195 1711 l 1
 175 1599 l 1
EndSplineSet
EndChar

StartChar: uni0E4C.low
Encoding: 63246 63246 254
Width: 0
VWidth: 2045
Flags: W
HStem: 1420 112<-326.101 -179.764> 1701 112<-313.089 -163.321 -52 272.1>
VStem: -447 115<1536.96 1681.23> -159 115<1550.87 1696.62>
AnchorPoint: "AboveMark" -7 2040 basemark 0
AnchorPoint: "AboveBase" -125 1370 mark 0
LayerCount: 2
Fore
SplineSet
-447 1582 m 0
 -447 1707 -331 1813 -211 1813 c 10
 140 1813 l 2
 195 1813 244 1832 290 1870 c 9
 356 1792 l 17
 284 1731 205 1701 120 1701 c 2
 -52 1701 l 17
 -47 1685 -44 1667 -44 1649 c 0
 -44 1526 -159 1420 -280 1420 c 0
 -381 1420 -447 1491 -447 1582 c 0
-260 1532 m 0
 -210 1532 -159 1577 -159 1632 c 0
 -159 1670 -186 1701 -230 1701 c 0
 -286 1701 -332 1652 -332 1602 c 0
 -332 1563 -304 1532 -260 1532 c 0
EndSplineSet
EndChar

StartChar: uni0E0D.descless
Encoding: 63247 63247 255
Width: 1864
VWidth: 2045
Flags: W
HStem: -12 112<400.082 549.674 1118 1585> 267 112<429.475 561.904> 776 112<501 613> 1154 112<624.605 976.114>
VStem: 280 115<104.7 248.788> 568 114<119.598 260.528> 1128 114<699.233 1004.86>
DStem2: 248.44 -12 362.23 -12 0.173648 0.984808<398.514 800.263> 982.884 -12 1096.14 -12 0.173648 0.984808<145.579 865.254> 1563.14 -12 1675.88 -12 0.173648 0.984808<125.913 1285.47>
LayerCount: 2
Fore
SplineSet
682 218 m 0
 682 87 565 -12 446 -12 c 0
 345 -12 280 59 280 149 c 0
 280 160 281 172 283 184 c 2
 388 776 l 1
 247 776 l 1
 295 1046 555 1266 827 1266 c 256
 1067 1266 1242 1095 1242 862 c 0
 1242 834 1240 805 1235 776 c 2
 1118 112 l 1
 1585 112 l 1
 1786 1254 l 1
 1899 1254 l 1
 1678 0 l 17
 985 0 l 1
 1122 776 l 2
 1126 798 1128 821 1128 842 c 0
 1128 1020 995 1154 807 1154 c 256
 689 1154 510 1099 397 888 c 1
 633 888 l 1
 613 776 l 1
 501 776 l 1
 428 361 l 1
 457 373 486 379 516 379 c 0
 616 379 682 309 682 218 c 0
467 100 m 0
 518 100 568 142 568 198 c 0
 568 240 535 267 496 267 c 0
 444 267 395 223 395 168 c 0
 395 127 427 100 467 100 c 0
EndSplineSet
EndChar

StartChar: uni0E4D.left
Encoding: 63249 63249 257
Width: 0
VWidth: 2045
Flags: W
HStem: 1401 112<-402.066 -253.589> 1681 112<-386.715 -240.412>
VStem: -522 114<1519.64 1661.28> -235 116<1531.05 1675.71>
LayerCount: 2
Back
SplineSet
-655.812 1555 m 132
 -646.29 1609 -618.816 1655.17 -573.391 1693.5 c 132
 -527.965 1731.83 -477.752 1751 -422.752 1751 c 132
 -367.752 1751 -324.465 1731.83 -292.891 1693.5 c 132
 -261.316 1655.17 -250.123 1609 -259.312 1555 c 132
 -268.5 1501 -295.807 1454.83 -341.232 1416.5 c 132
 -386.659 1378.17 -436.872 1359 -491.872 1359 c 132
 -546.872 1359 -590.325 1378.17 -622.232 1416.5 c 132
 -654.14 1454.83 -665.333 1501 -655.812 1555 c 132
-542.988 1554 m 132
 -547.102 1530.67 -542.237 1511 -528.392 1495 c 132
 -514.546 1479 -495.956 1471 -472.623 1471 c 132
 -449.29 1471 -427.713 1479 -407.892 1495 c 132
 -388.07 1511 -376.102 1530.67 -371.988 1554 c 132
 -367.873 1577.33 -372.847 1597.33 -386.908 1614 c 132
 -400.969 1630.67 -419.667 1639 -443 1639 c 132
 -466.333 1639 -487.803 1630.67 -507.408 1614 c 132
 -527.013 1597.33 -538.873 1577.33 -542.988 1554 c 132
EndSplineSet
Fore
Refer: 196 3661 N 1 0 0 1 -209 0 2
EndChar

StartChar: uni0E48.left
Encoding: 63251 63251 259
Width: 0
VWidth: 2045
Flags: W
HStem: 2117 305<-100 -41>
VStem: -154 167
DStem2: -154 2117 -41 2117 0.173648 0.984808<19.6222 309.743>
LayerCount: 2
Back
SplineSet
-169.747 1924 m 1
 -47.7471 1924 l 1
 -96.2363 1649 l 1
 -218.236 1649 l 1
 -169.747 1924 l 1
EndSplineSet
Fore
Refer: 191 3656 N 1 0 0 1 -245 0 2
EndChar

StartChar: uni0E38.low
Encoding: 63256 63256 264
Width: 0
VWidth: 2045
Flags: W
HStem: -1011 112<-587.075 -452.071> -733 112<-573.966 -422.961>
VStem: -705 114<-894.576 -750.616> -419 115<-968.1 -739.204>
DStem2: -489 -1208 -376 -1208 0.173648 0.984808<19.6222 218.332>
LayerCount: 2
Back
SplineSet
-478 -625 m 0
 -596 -625 -712 -731 -712 -858 c 0
 -712 -952 -642 -1018 -547 -1018 c 0
 -517 -1018 -487 -1012 -460 -1000 c 1
 -498 -1213 l 1
 -385 -1213 l 1
 -316 -822 l 2
 -314 -810 -313 -799 -313 -787 c 0
 -313 -694 -381 -625 -478 -625 c 0
-428 -807 m 0
 -428 -854 -471 -906 -527 -906 c 0
 -566 -906 -597 -878 -597 -838 c 0
 -597 -785 -551 -737 -497 -737 c 0
 -454 -737 -428 -768 -428 -807 c 0
EndSplineSet
Fore
Refer: 179 3640 N 1 0 0 1 -95 -537 2
EndChar

StartChar: uni0E39.low
Encoding: 63257 63257 265
Width: 0
VWidth: 2045
Flags: W
HStem: -1206 112<-638 -469> -1011 112<-870.145 -734.307> -733 112<-857.139 -706.058>
VStem: -988 114<-894.399 -750.616> -701 115<-881.499 -739.574>
DStem2: -488.749 -1206 -376 -1206 0.173648 0.984808<113.728 593.955>
LayerCount: 2
Back
SplineSet
-765 -631 m 0
 -884 -631 -1000 -737 -1000 -860 c 0
 -1000 -952 -931 -1021 -834 -1021 c 0
 -803 -1021 -774 -1015 -747 -1003 c 1
 -784 -1216 l 1
 -388 -1216 l 17
 -285 -631 l 1
 -398 -631 l 1
 -482 -1104 l 25
 -652 -1104 l 1
 -603 -826 l 2
 -601 -814 -600 -802 -600 -791 c 0
 -600 -699 -669 -631 -765 -631 c 0
-715 -811 m 0
 -715 -855 -752 -909 -814 -909 c 0
 -858 -909 -885 -880 -885 -841 c 0
 -885 -796 -846 -743 -785 -743 c 0
 -742 -743 -715 -772 -715 -811 c 0
EndSplineSet
Fore
Refer: 180 3641 N 1 0 0 1 -95 -537 2
EndChar

StartChar: uniF71C
Encoding: 63260 63260 266
Width: 698
VWidth: 2045
Flags: W
HStem: -423 269
VStem: 32 426
LayerCount: 2
Fore
SplineSet
32 -423 m 1
 217 -154 l 1
 458 -154 l 1
 169 -423 l 1
 32 -423 l 1
EndSplineSet
EndChar

StartChar: uniF71D
Encoding: 63261 63261 267
Width: 798
VWidth: 2045
Flags: W
HStem: -236 211<179 223 509 574> -127 102<243 509>
VStem: 141 471
DStem2: 141 -236 223 -236 0.173648 0.984808<14.2392 125.056>
LayerCount: 2
Fore
SplineSet
574 -236 m 1xa0
 489 -236 l 1xa0
 509 -127 l 1
 243 -127 l 1x60
 223 -236 l 1
 141 -236 l 1
 179 -25 l 1xa0
 612 -25 l 1x60
 574 -236 l 1xa0
EndSplineSet
EndChar

StartChar: zerowidthnonjoiner
Encoding: 8204 8204 268
Width: 0
VWidth: 2045
Flags: W
LayerCount: 2
Back
SplineSet
264.109 1288 m 1
 -11.4902 -275 l 1
 -85.4902 -275 l 1
 190.109 1288 l 1
 264.109 1288 l 1
EndSplineSet
EndChar

StartChar: uni0E3A.low
Encoding: 63258 63258 271
Width: 0
VWidth: 2045
Flags: W
HStem: -896 277<-539.108 -367.037>
VStem: -596 284<-841.575 -675.834>
LayerCount: 2
Back
SplineSet
-559 -758 m 0
 -559 -673 -483 -599 -400 -599 c 0
 -329 -599 -287 -655 -287 -714 c 0
 -287 -804 -380 -868 -447 -868 c 0
 -509 -868 -559 -824 -559 -758 c 0
EndSplineSet
Fore
Refer: 181 3642 N 1 0 0 1 -95 -537 2
EndChar

StartChar: uniF71B
Encoding: 63259 63259 272
Width: 998
VWidth: 2045
Flags: W
HStem: 1064 20G<402.484 1020>
DStem2: 226 60 840 60 0.173648 0.984808<106.62 1039.7>
LayerCount: 2
Fore
SplineSet
1020 1084 m 1
 840 60 l 1
 226 60 l 1
 406 1084 l 1
 1020 1084 l 1
EndSplineSet
EndChar

StartChar: uni0E47.high
Encoding: 63263 63263 274
Width: 0
VWidth: 2045
Flags: W
HStem: 2061 92<-184.571 -66.9645> 2141 110<-371.191 -258.813> 2213 89<-126.51 -66.2844> 2339 104<-426.045 -5.38547>
VStem: -565 113<2175.33 2310.41> -66 92<2154.34 2212.32>
AnchorPoint: "AboveMark" -216 2512 basemark 0
AnchorPoint: "AboveMark" -299 2040 mark 0
LayerCount: 2
Fore
SplineSet
-331 2141 m 0x5c
 -364 2141 -374 2102 -377 2060 c 1
 -462 2063 -565 2085 -565 2202 c 0
 -565 2319 -480 2443 -258 2443 c 0
 -240 2443 -208 2441 -175 2441 c 0
 -66 2441 -25 2454 47 2539 c 1
 111 2464 l 1
 9 2356 -69 2338 -182 2338 c 0
 -212 2338 -226 2339 -254 2339 c 0
 -375 2339 -452 2319 -452 2218 c 0
 -452 2196 -446 2182 -435 2174 c 1
 -422 2209 -387 2251 -335 2251 c 0x5c
 -273 2251 -245 2192 -218 2177 c 1
 -206 2246 -147 2302 -75 2302 c 0
 -14 2302 26 2259 26 2204 c 0
 26 2135 -32 2061 -130 2061 c 0xbc
 -272 2061 -279 2141 -331 2141 c 0x5c
-91 2213 m 0xbc
 -111 2213 -127 2198 -127 2177 c 0
 -127 2163 -118 2153 -101 2153 c 0
 -82 2153 -66 2168 -66 2189 c 0
 -66 2203 -75 2213 -91 2213 c 0xbc
EndSplineSet
EndChar

StartChar: ff
Encoding: 64256 64256 276
Width: 1136
VWidth: 2045
Flags: W
HStem: 0 21G<177 307.526 745 875.526> 936 124<205 342 491 910 1059 1268> 1391 124<619.728 1009.89 1179.59 1452.19>
DStem2: 177 0 304 0 0.173648 0.984808<22.0533 950.432 1098.42 1359.67> 745 0 872 0 0.173648 0.984808<22.0533 950.432 1098.42 1368.8>
LayerCount: 2
Fore
SplineSet
1313 1391 m 3
 1264 1391 1112 1366 1078 1170 c 2
 1059 1060 l 1
 1290 1060 l 1
 1268 936 l 1
 1037 936 l 1
 872 0 l 1
 745 0 l 1
 910 936 l 1
 469 936 l 1
 304 0 l 1
 177 0 l 1
 342 936 l 1
 183 936 l 1
 205 1060 l 1
 364 1060 l 1
 384 1175 l 2
 432 1447 620 1515 833 1515 c 3
 995 1515 1045 1459 1087 1433 c 1
 1161 1495 1249 1515 1321 1515 c 3
 1372 1515 1422 1506 1470 1488 c 1
 1448 1363 l 1
 1398 1382 1354 1391 1313 1391 c 3
825 1391 m 3
 696 1391 544 1366 510 1170 c 2
 491 1060 l 1
 932 1060 l 1
 952 1175 l 2
 964 1244 986 1300 1013 1345 c 1
 976 1368 922 1391 825 1391 c 3
EndSplineSet
LCarets2: 1 0 
Ligature2: "'liga' Standard Ligatures lookup 0" f f
EndChar

StartChar: fi
Encoding: 64257 64257 277
Width: 1022
VWidth: 2045
Flags: W
HStem: 0 21G<177 307.526 727 857.528> 936 124<205 342 491 892> 1391 124<619.728 1009.84>
DStem2: 177 0 304 0 0.173648 0.984808<22.0533 950.432 1098.42 1359.67> 727 0 854 0 0.173648 0.984808<22.0533 950.432>
LayerCount: 2
Fore
SplineSet
825 1391 m 3
 696 1391 544 1366 510 1170 c 2
 491 1060 l 1
 1041 1060 l 1
 854 0 l 1
 727 0 l 1
 892 936 l 1
 469 936 l 1
 304 0 l 1
 177 0 l 1
 342 936 l 1
 183 936 l 1
 205 1060 l 1
 364 1060 l 1
 384 1175 l 2
 432 1447 620 1515 833 1515 c 3
 1018 1515 1057 1442 1105 1424 c 1
 1083 1299 l 1
 1033 1318 1000 1391 825 1391 c 3
EndSplineSet
LCarets2: 1 0 
Ligature2: "'liga' Standard Ligatures lookup 0" f i
EndChar

StartChar: fl
Encoding: 64258 64258 278
Width: 1022
VWidth: 2045
Flags: W
HStem: 0 21G<177 307.526 730 860.522> 936 124<205 342 491 700> 1391 124<619.728 970.661>
DStem2: 177 0 304 0 0.173648 0.984808<22.0533 950.432 1098.42 1359.67> 730 0 857 0 0.173648 0.984808<22.0533 1400.25>
LayerCount: 2
Fore
SplineSet
825 1391 m 3
 696 1391 544 1366 510 1170 c 2
 491 1060 l 1
 722 1060 l 1
 700 936 l 1
 469 936 l 1
 304 0 l 1
 177 0 l 1
 342 936 l 1
 183 936 l 1
 205 1060 l 1
 364 1060 l 1
 384 1175 l 2
 432 1447 620 1515 833 1515 c 3
 1018 1515 1064 1481 1112 1465 c 1
 1115 1465 l 1
 857 0 l 1
 730 0 l 1
 973 1379 l 1
 937 1386 891 1391 825 1391 c 3
EndSplineSet
LCarets2: 1 0 
Ligature2: "'liga' Standard Ligatures lookup 0" f l
EndChar

StartChar: ffi
Encoding: 64259 64259 279
Width: 1590
VWidth: 2045
Flags: W
HStem: 0 21G<177 307.526 745 875.526 1295 1425.53> 936 124<205 342 491 910 1059 1460> 1391 124<619.728 1012.15 1189.55 1577.84>
DStem2: 177 0 304 0 0.173648 0.984808<22.0533 950.432 1098.42 1359.67> 745 0 872 0 0.173648 0.984808<22.0533 950.432 1098.42 1366.64> 1295 0 1422 0 0.173648 0.984808<22.0533 950.432>
LayerCount: 2
Fore
SplineSet
1393 1391 m 3
 1264 1391 1112 1366 1078 1170 c 2
 1059 1060 l 1
 1609 1060 l 1
 1422 0 l 1
 1295 0 l 1
 1460 936 l 1
 1037 936 l 1
 872 0 l 1
 745 0 l 1
 910 936 l 1
 469 936 l 1
 304 0 l 1
 177 0 l 1
 342 936 l 1
 183 936 l 1
 205 1060 l 1
 364 1060 l 1
 384 1175 l 2
 432 1447 620 1515 833 1515 c 3
 1000 1515 1048 1456 1091 1431 c 1
 1174 1495 1284 1515 1401 1515 c 3
 1586 1515 1625 1442 1673 1424 c 1
 1651 1299 l 1
 1601 1318 1568 1391 1393 1391 c 3
825 1391 m 3
 696 1391 544 1366 510 1170 c 2
 491 1060 l 1
 932 1060 l 1
 952 1175 l 2
 964 1244 986 1300 1014 1345 c 1
 977 1368 923 1391 825 1391 c 3
EndSplineSet
LCarets2: 2 0 0 
Ligature2: "'liga' Standard Ligatures lookup 0" ff i
Ligature2: "'liga' Standard Ligatures lookup 0" f f i
EndChar

StartChar: ffl
Encoding: 64260 64260 280
Width: 1590
VWidth: 2045
Flags: W
HStem: 0 21G<177 307.526 745 875.526 1298 1428.52> 936 124<205 342 491 910 1059 1268> 1391 124<619.728 1012.15 1189.55 1538.66>
DStem2: 177 0 304 0 0.173648 0.984808<22.0533 950.432 1098.42 1359.67> 745 0 872 0 0.173648 0.984808<22.0533 950.432 1098.42 1366.64> 1298 0 1425 0 0.173648 0.984808<22.0533 1400.25>
LayerCount: 2
Fore
SplineSet
1393 1391 m 3
 1264 1391 1112 1366 1078 1170 c 2
 1059 1060 l 1
 1290 1060 l 1
 1268 936 l 1
 1037 936 l 1
 872 0 l 1
 745 0 l 1
 910 936 l 1
 469 936 l 1
 304 0 l 1
 177 0 l 1
 342 936 l 1
 183 936 l 1
 205 1060 l 1
 364 1060 l 1
 384 1175 l 2
 432 1447 620 1515 833 1515 c 3
 1000 1515 1048 1456 1091 1431 c 1
 1174 1495 1284 1515 1401 1515 c 3
 1586 1515 1632 1481 1680 1465 c 1
 1683 1465 l 1
 1425 0 l 1
 1298 0 l 1
 1541 1379 l 1
 1505 1386 1459 1391 1393 1391 c 3
825 1391 m 3
 696 1391 544 1366 510 1170 c 2
 491 1060 l 1
 932 1060 l 1
 952 1175 l 2
 964 1244 986 1300 1014 1345 c 1
 977 1368 923 1391 825 1391 c 3
EndSplineSet
LCarets2: 2 0 0 
Ligature2: "'liga' Standard Ligatures lookup 0" ff l
Ligature2: "'liga' Standard Ligatures lookup 0" f f l
EndChar

StartChar: dotlessi
Encoding: 305 305 281
Width: 454
VWidth: 2045
Flags: W
HStem: 0 21G<159 289.528> 1040 20G<342.472 473>
VStem: 159 314
DStem2: 159 0 286 0 0.173648 0.984808<22.0533 1076.37>
LayerCount: 2
Fore
SplineSet
159 0 m 1
 346 1060 l 1
 473 1060 l 1
 286 0 l 1
 159 0 l 1
EndSplineSet
EndChar

StartChar: dotlessj
Encoding: 567 567 282
Width: 454
VWidth: 2045
Flags: W
HStem: -429 124<-150.329 77.5933> 1040 20G<371.463 502>
VStem: -167 669
DStem2: 111.877 -429 239.406 -429 0.173648 0.984808<183.677 1512.07>
LayerCount: 2
Fore
SplineSet
305 -57 m 2
 271 -250 184 -429 -36 -429 c 0
 -77 -429 -121 -423 -167 -411 c 1
 -147 -296 l 1
 -91 -305 -71 -305 -51 -305 c 0
 5 -305 135 -298 178 -54 c 2
 375 1060 l 1
 502 1060 l 1
 305 -57 l 2
EndSplineSet
EndChar

StartChar: AE
Encoding: 198 198 283
Width: 1844
Flags: W
HStem: 0 136<1043 1764> 500 136<586 974> 670 136<1185 1730> 1314 136<1034 1147 1293 2043>
DStem2: -2 0 166 0 0.549638 0.835403<92.3391 690.322 854.503 1667.98> 868 0 1043 136 0.207698 0.978193<169.381 511.112 650.17 715.206 854.264 1343.29>
LayerCount: 2
Fore
SplineSet
952 1450 m 1
 2072 1450 l 1
 2043 1314 l 1
 1293 1314 l 1
 1185 806 l 1
 1759 806 l 1
 1730 670 l 1
 1156 670 l 1
 1043 136 l 1
 1793 136 l 1
 1764 0 l 1
 868 0 l 1
 974 500 l 1
 494 500 l 1
 166 0 l 1
 -2 0 l 1
 952 1450 l 1
1147 1314 m 1
 1034 1315 l 1
 586 636 l 1
 1003 636 l 1
 1147 1314 l 1
EndSplineSet
EndChar

